SplineFontDB: 1.0
FontName: DBThaiText
FullName: DBThaiText
FamilyName: DBThaiText
Weight: Medium
Copyright: Typeface (c) The Monotype Corporation plc. Data (c) The Monotype Corporation plc/Type Solutions Inc. 1990-1992. All Rights Reserved
Version: 001.000
ItalicAngle: 0
UnderlinePosition: -477
UnderlineWidth: 84
Ascent: 1638
Descent: 410
FSType: 0
PfmFamily: 17
TTFWeight: 500
TTFWidth: 5
Panose: 2 0 6 3 0 0 0 0 0 0
LineGap: 184
VLineGap: 0

LangName: 1033 "" "" "" "PfaEdit : DBThaiText : 13-0-2003" 
Encoding: compacted
DisplaySize: -36
AntiAlias: 1
BeginChars: 256 256
StartChar: .notdef
Encoding: 0 -1
OldEncoding: 0
Width: 1024
Flags: W
Fore
127 0 m 1
 127 1720 l 1
 897 1720 l 1
 897 0 l 1
 127 0 l 1
256 127 m 1
 768 127 l 1
 768 1593 l 1
 256 1593 l 1
 256 127 l 1
EndSplineSet
EndChar
StartChar: exclam
Encoding: 3 33
OldEncoding: 33
Width: 342
Flags: W
Fore
229 205 m 1
 178 205 l 1
 152 455 l 1
 152 895 l 1
 256 895 l 1
 256 455 l 1
 229 205 l 1
152 127 m 1
 256 127 l 1
 256 0 l 1
 152 0 l 1
 152 127 l 1
EndSplineSet
EndChar
StartChar: quotedbl
Encoding: 4 34
OldEncoding: 34
Width: 436
Flags: W
Fore
199 758 m 0
 199 701.333 182.667 657.667 150 627 c 0
 117.333 598.333 81 580.333 41 573 c 1
 21.6667 573 12 576.667 12 584 c 0
 12 586.667 14 590 18 594 c 1
 32 598.667 54 610.333 84 629 c 0
 110 644.333 125 665.333 129 692 c 1
 113 688 l 1
 90 684 l 1
 35.3333 690 8 718.667 8 770 c 0
 8 794 15.6667 814.333 31 831 c 0
 45 847.667 65.3333 856 92 856 c 0
 161.333 856 197 823.333 199 758 c 0
424 758 m 0
 424 700.667 407.667 657 375 627 c 0
 342.333 598.333 306 580.333 266 573 c 1
 247.333 573 238 576.667 238 584 c 0
 238 586.667 240 590 244 594 c 1
 259.333 599.333 281 611 309 629 c 0
 335 644.333 350 665.333 354 692 c 1
 338 688 l 1
 315 684 l 1
 260.333 690 233 718.667 233 770 c 0
 233 793.333 240.667 813.667 256 831 c 0
 270 847.667 290.333 856 317 856 c 0
 386.333 856 422 823.333 424 758 c 0
EndSplineSet
EndChar
StartChar: numbersign
Encoding: 5 35
OldEncoding: 35
Width: 684
Flags: W
Fore
254 858 m 1
 348 858 l 1
 303 618 l 1
 457 618 l 1
 500 858 l 1
 596 858 l 1
 553 618 l 1
 666 618 l 1
 666 520 l 1
 535 520 l 1
 502 332 l 1
 625 332 l 1
 625 233 l 1
 481 233 l 1
 434 -25 l 1
 342 -25 l 1
 387 233 l 1
 236 233 l 1
 186 -25 l 1
 94 -25 l 1
 139 233 l 1
 16 233 l 1
 16 332 l 1
 158 332 l 1
 193 520 l 1
 63 520 l 1
 63 618 l 1
 209 618 l 1
 254 858 l 1
287 520 m 1
 254 332 l 1
 406 332 l 1
 438 520 l 1
 287 520 l 1
EndSplineSet
EndChar
StartChar: dollar
Encoding: 6 36
OldEncoding: 36
Width: 684
Flags: W
Fore
610 639 m 1
 512 639 l 1
 510 686.333 498.333 721 477 743 c 1
 454.333 775 419.667 791 373 791 c 1
 373 489 l 1
 441 469.667 488.667 453.333 516 440 c 1
 545.333 428.667 573.333 405.667 600 371 c 1
 624.667 336.333 637 289.667 637 231 c 0
 637 167.667 616.333 113.333 575 68 c 0
 533.667 21.3333 488.667 -6 440 -14 c 2
 373 -27 l 1
 373 -154 l 1
 299 -154 l 1
 299 -29 l 1
 244.333 -17 204 -6.66667 178 2 c 0
 146.667 13.3333 116 39.3333 86 80 c 1
 56 118 41 176.667 41 256 c 1
 135 256 l 1
 139 219.333 144.667 189.333 152 166 c 0
 158 142.667 172.333 120.667 195 100 c 1
 216.333 82.6667 251 68.3333 299 57 c 1
 299 391 l 1
 229 414 l 2
 203 422 180 432 160 444 c 1
 143.333 452 125.333 465 106 483 c 1
 74.6667 523.667 59 582.333 59 659 c 1
 67.6667 730.333 93.6667 783.667 137 819 c 0
 179 853 233 873.667 299 881 c 1
 299 946 l 1
 373 946 l 1
 373 881 l 1
 442.333 873.667 498.333 851.667 541 815 c 0
 568.333 792.333 586.667 765 596 733 c 0
 605.333 700.333 610 669 610 639 c 1
299 500 m 1
 299 793 l 1
 261.667 791 229 778 201 754 c 1
 169.667 724.667 154 694 154 662 c 0
 152 620.667 165 585 193 555 c 0
 219 526.333 254.333 508 299 500 c 1
373 379 m 1
 373 59 l 1
 393 61 414.667 67.3333 438 78 c 1
 462 86.6667 484 103.667 504 129 c 0
 522.667 155 532 188.333 532 229 c 0
 532 277.667 517.667 311.333 489 330 c 0
 463 347.333 424.333 363.667 373 379 c 1
EndSplineSet
EndChar
StartChar: percent
Encoding: 7 37
OldEncoding: 37
Width: 1091
Flags: W
Fore
748 870 m 1
 831 870 l 1
 346 -25 l 1
 262 -25 l 1
 748 870 l 1
35 631 m 0
 35 689.667 55.3333 739.333 96 780 c 0
 139.333 821.333 189.333 842 246 842 c 0
 304 842 353.667 821.333 395 780 c 0
 436.333 738.667 457 689 457 631 c 0
 457 573 435.667 523.667 393 483 c 0
 352.333 442.333 303.333 422 246 422 c 0
 190 422 140.667 442.333 98 483 c 0
 56 523 35 572.333 35 631 c 0
635 186 m 0
 635 244 655.333 293.333 696 334 c 0
 736.667 374.667 786.667 395 846 395 c 0
 884 395 918.667 385.667 950 367 c 0
 983.333 347.667 1008.67 322.333 1026 291 c 0
 1045.33 257.667 1055 222.667 1055 186 c 0
 1055 128 1034.33 78.3333 993 37 c 0
 951.667 -4.33333 902.667 -25 846 -25 c 0
 789.333 -25 739.333 -4.33333 696 37 c 0
 655.333 77.6667 635 127.333 635 186 c 0
121 631 m 0
 121 595.667 133.333 567 158 545 c 1
 182 520.333 211.333 508 246 508 c 0
 281.333 508 311.333 520.333 336 545 c 0
 359.333 568.333 371 597 371 631 c 0
 371 654.333 365.333 675.333 354 694 c 0
 343.333 713.333 328.333 728.333 309 739 c 0
 290.333 750.333 269.333 756 246 756 c 0
 210.667 756 181.333 744.333 158 721 c 0
 133.333 696.333 121 666.333 121 631 c 0
721 186 m 0
 721 150 733.333 120.667 758 98 c 1
 782.667 73.3333 812 61 846 61 c 0
 878.667 61 908 73.3333 934 98 c 1
 957.333 122.667 969 152 969 186 c 0
 969 220.667 956.667 249.333 932 272 c 0
 907.333 296.667 878.667 309 846 309 c 0
 811.333 309 782 296.667 758 272 c 1
 733.333 250 721 221.333 721 186 c 0
EndSplineSet
EndChar
StartChar: ampersand
Encoding: 8 38
OldEncoding: 38
Width: 819
Flags: W
Fore
782 0 m 1
 647 0 l 1
 571 90 l 1
 543 66 l 1
 533 56 518.667 44.3333 500 31 c 0
 485.333 19.6667 468.333 8.66667 449 -2 c 1
 399 -20 352.333 -29 309 -29 c 0
 260.333 -29 217.333 -18 180 4 c 0
 104.667 47.3333 65.6667 112.333 63 199 c 0
 61 253 72 300 96 340 c 0
 120.667 380 153.667 413.333 195 440 c 2
 258 483 l 1
 217 543 l 2
 181.667 594.333 164 640 164 680 c 0
 164 746.667 193.333 799.333 252 838 c 0
 286.667 860.667 327.667 872 375 872 c 0
 430.333 872 476.667 854.333 514 819 c 0
 556.667 778.333 578 732.667 578 682 c 0
 578 647.333 567.667 614.667 547 584 c 0
 524.333 548 499 522 471 506 c 1
 406 465 l 1
 567 266 l 1
 593 317.333 606 365.333 606 410 c 1
 705 410 l 1
 705 382 697.333 344.333 682 297 c 0
 668 253.667 651 216.667 631 186 c 1
 782 0 l 1
463 735 m 0
 457.667 751 446 763.333 428 772 c 1
 413.333 781.333 393.667 786 369 786 c 0
 343 786 321 779.333 303 766 c 0
 285.667 752.667 274 733 268 707 c 1
 268 665.667 273 637.667 283 623 c 0
 289.667 611.667 311.333 584.333 348 541 c 1
 377.333 551.667 405.333 568.667 432 592 c 0
 460.667 616 475 646 475 682 c 0
 475 699.333 471 717 463 735 c 0
514 166 m 1
 317 412 l 1
 272 383 l 2
 260 375 243.667 361.333 223 342 c 1
 207.667 324.667 194.667 304.333 184 281 c 0
 173.333 254.333 168 227.667 168 201 c 1
 172 174.333 187.667 145.667 215 115 c 0
 241 85 278.667 70 328 70 c 0
 358.667 70 387.333 76 414 88 c 0
 438 97.3333 471.333 123.333 514 166 c 1
EndSplineSet
EndChar
StartChar: quotesingle
Encoding: 9 39
OldEncoding: 39
Width: 235
Flags: W
Fore
219 758 m 0
 219 700.667 202.667 657 170 627 c 0
 137.333 598.333 101 580.333 61 573 c 1
 42.3333 573 33 576.667 33 584 c 0
 33 586.667 35 590 39 594 c 1
 54.3333 599.333 76 611 104 629 c 0
 129.333 644.333 144.667 665.333 150 692 c 1
 133 688 l 1
 111 684 l 1
 56.3333 690 29 718.667 29 770 c 0
 29 794 36.3333 814.333 51 831 c 0
 65.6667 847.667 86.3333 856 113 856 c 0
 181.667 856 217 823.333 219 758 c 0
EndSplineSet
EndChar
StartChar: parenleft
Encoding: 10 40
OldEncoding: 40
Width: 409
Flags: W
Fore
289 895 m 1
 358 895 l 1
 297.333 792.333 255 692.667 231 596 c 0
 205.667 498.667 193 405.667 193 317 c 0
 193 230.333 205.667 138.333 231 41 c 0
 256.333 -60.3333 298.667 -161.333 358 -262 c 1
 289 -262 l 1
 263 -226.667 237 -184.333 211 -135 c 0
 186.333 -90.3333 164.333 -41.3333 145 12 c 0
 131.667 51.3333 118 104 104 170 c 0
 94.6667 219.333 90 268.333 90 317 c 0
 90 380.333 99 448.667 117 522 c 0
 135.667 597.333 159.333 665 188 725 c 0
 220.667 793.667 254.333 850.333 289 895 c 1
EndSplineSet
EndChar
StartChar: parenright
Encoding: 11 41
OldEncoding: 41
Width: 409
Flags: W
Fore
47 895 m 1
 115 895 l 1
 149 850.333 183 793.667 217 725 c 0
 243 673 267 604.667 289 520 c 0
 306.333 451.333 315 383.667 315 317 c 0
 315 249 306.333 181.667 289 115 c 0
 267.667 33.6667 243.667 -34 217 -88 c 0
 181 -162 147 -220 115 -262 c 1
 47 -262 l 1
 88.3333 -194 121 -124.333 145 -53 c 1
 169.667 13.6667 187.667 79 199 143 c 0
 208.333 203 213 261 213 317 c 0
 213 363.667 210.333 406 205 444 c 0
 199 484.667 190 530.667 178 582 c 0
 164 637.333 147 689.667 127 739 c 0
 101.667 797 75 849 47 895 c 1
EndSplineSet
EndChar
StartChar: asterisk
Encoding: 12 42
OldEncoding: 42
Width: 477
Flags: W
Fore
49 748 m 1
 72 819 l 1
 201 772 l 1
 197 909 l 1
 272 909 l 1
 268 772 l 1
 395 817 l 1
 422 741 l 1
 289 709 l 1
 371 598 l 1
 311 555 l 1
 236 670 l 1
 156 557 l 1
 96 600 l 1
 180 709 l 1
 49 748 l 1
EndSplineSet
EndChar
StartChar: plus
Encoding: 13 43
OldEncoding: 43
Width: 716
Flags: W
Fore
315 582 m 1
 401 582 l 1
 401 328 l 1
 655 328 l 1
 655 242 l 1
 401 242 l 1
 401 -12 l 1
 315 -12 l 1
 315 242 l 1
 61 242 l 1
 61 328 l 1
 315 328 l 1
 315 582 l 1
EndSplineSet
EndChar
StartChar: comma
Encoding: 14 44
OldEncoding: 44
Width: 342
Flags: W
Fore
260 61 m 0
 260 4.33333 243.667 -39.3333 211 -70 c 1
 176.333 -99.3333 140 -117 102 -123 c 1
 83.3333 -123 74 -119.667 74 -113 c 0
 74 -109.667 76 -106 80 -102 c 1
 94 -97.3333 115.667 -86 145 -68 c 0
 171 -51.3333 186 -30 190 -4 c 1
 174 -8 l 1
 152 -12 l 1
 97.3333 -6 70 22.6667 70 74 c 0
 70 98 77.3333 118.333 92 135 c 0
 106 151.667 126.667 160 154 160 c 0
 222.667 160 258 127 260 61 c 0
EndSplineSet
EndChar
StartChar: hyphen
Encoding: 15 45
OldEncoding: 45
Width: 409
Flags: W
Fore
348 385 m 1
 348 295 l 1
 57 295 l 1
 57 385 l 1
 348 385 l 1
EndSplineSet
EndChar
StartChar: period
Encoding: 16 46
OldEncoding: 46
Width: 342
Flags: W
Fore
66 94 m 0
 66 117.333 74.6667 138 92 156 c 0
 110 173.333 130.667 182 154 182 c 0
 167.333 182 181.667 178 197 170 c 0
 211 162 221.667 151 229 137 c 0
 237.667 123.667 242 109.333 242 94 c 0
 242 71.3333 233 51 215 33 c 1
 199.667 15 179.333 6 154 6 c 0
 130.667 6 110 15 92 33 c 0
 74.6667 50.3333 66 70.6667 66 94 c 0
EndSplineSet
EndChar
StartChar: slash
Encoding: 17 47
OldEncoding: 47
Width: 342
Flags: W
Fore
-10 -27 m 1
 281 870 l 1
 348 870 l 1
 57 -27 l 1
 -10 -27 l 1
EndSplineSet
EndChar
StartChar: zero
Encoding: 18 48
OldEncoding: 48
Width: 581
Flags: W
Fore
287 -25 m 0
 250.333 -25 215.333 -16 182 2 c 0
 150.667 18 122.667 46 98 86 c 1
 80 119.333 66.3333 161.667 57 213 c 0
 49 264.333 45 312.667 45 358 c 0
 45 404.667 49 453.333 57 504 c 0
 65.6667 554 79.3333 597 98 633 c 1
 121.333 668.333 149.333 695 182 713 c 0
 214 730.333 249 739 287 739 c 0
 325 739 361 730.333 395 713 c 1
 429 693.667 455.667 667 475 633 c 0
 510.333 572.333 528 480.667 528 358 c 0
 528 236 510.333 145.333 475 86 c 1
 454.333 47.3333 427 19.3333 393 2 c 0
 357.667 -16 322.333 -25 287 -25 c 0
287 61 m 0
 339.667 61 379.333 86.3333 406 137 c 0
 411.333 146.333 417.333 162.667 424 186 c 1
 429.333 215.333 432.667 242 434 266 c 1
 438 296.667 440 326.667 440 356 c 0
 440 384 438 414 434 446 c 1
 432.667 472 429.333 498.667 424 526 c 0
 418 548.667 412 565 406 575 c 0
 380 625.667 340.333 651 287 651 c 0
 263.667 651 241.667 645 221 633 c 0
 199 619.667 181.333 600.333 168 575 c 0
 160.667 560.333 152.333 529.667 143 483 c 1
 136.333 433 133 390.667 133 356 c 0
 133 321.333 136.333 279 143 229 c 0
 149.667 186.333 158 155.667 168 137 c 0
 182.667 111.667 200.333 93.3333 221 82 c 0
 244.333 68 266.333 61 287 61 c 0
EndSplineSet
EndChar
StartChar: one
Encoding: 19 49
OldEncoding: 49
Width: 581
Flags: W
Fore
362 0 m 1
 274 0 l 1
 274 522 l 1
 106 522 l 1
 106 594 l 1
 155.333 600 192.333 607.333 217 616 c 0
 238.333 624 254 636.333 264 653 c 0
 276 673.667 288.333 702.333 301 739 c 1
 362 739 l 1
 362 0 l 1
EndSplineSet
EndChar
StartChar: two
Encoding: 20 50
OldEncoding: 50
Width: 581
Flags: W
Fore
387 303 m 2
 264 240 l 1
 234.667 222.667 207.333 201.333 182 176 c 0
 149.333 144.667 133 114.667 133 86 c 1
 528 86 l 1
 528 0 l 1
 35 0 l 1
 39.6667 45.3333 46.3333 89 55 131 c 1
 63 157 80 185.667 106 217 c 0
 132.667 250.333 173 281.667 227 311 c 2
 340 375 l 2
 404.667 411 438 456.667 440 512 c 0
 442 539.333 434.667 566.667 418 594 c 0
 402 617.333 383.333 633.667 362 643 c 0
 338.667 653.667 315.667 659 293 659 c 0
 239 657 200.667 640.667 178 610 c 0
 155.333 578.667 143 536.333 141 483 c 1
 51 483 l 1
 53 526.333 60 567.333 72 606 c 0
 82.6667 641.333 104.333 669.333 137 690 c 1
 161 710 186.333 723 213 729 c 0
 243 735.667 275.667 739 311 739 c 0
 371.667 737 421 720 459 688 c 0
 495 656 518 615 528 565 c 0
 532.667 544.333 535 528.667 535 518 c 0
 535 473.333 519.667 431.667 489 393 c 0
 457 351.667 423 321.667 387 303 c 2
EndSplineSet
EndChar
StartChar: three
Encoding: 21 51
OldEncoding: 51
Width: 581
Flags: W
Fore
33 215 m 1
 121 215 l 1
 127 176 l 1
 129 158 133.667 141 141 125 c 0
 150.333 105.667 163.333 91.3333 180 82 c 1
 200.667 66.6667 225.333 59 254 59 c 0
 370 57 430 104 434 200 c 1
 434 215 l 2
 434 259.667 419.667 291.667 391 311 c 0
 364.333 330.333 325.333 340 274 340 c 1
 231 338 l 1
 231 418 l 1
 297.667 420 344.333 428 371 442 c 0
 400.333 458.667 414 491.667 412 541 c 0
 412 588.333 397.667 619.667 369 635 c 0
 341 649.667 306 657 264 657 c 1
 232.667 651 208 642.333 190 631 c 0
 172 618.333 160 604.667 154 590 c 1
 146 575.333 141 558.333 139 539 c 1
 137 500 l 1
 51 502 l 1
 51 576.667 70.3333 635.333 109 678 c 0
 147 718.667 202 739 274 739 c 0
 315.333 739 354.333 731.667 391 717 c 0
 427 701.667 455 678.333 475 647 c 0
 495.667 614.333 506 574.667 506 528 c 0
 506 491.333 498.333 463.333 483 444 c 0
 467.667 424.667 446 404.333 418 383 c 1
 458.667 365.667 487.333 342.333 504 313 c 0
 520 283 528 247 528 205 c 1
 530 165 518 123.333 492 80 c 0
 466 39.3333 429.667 11.3333 383 -4 c 0
 345.667 -16 312.333 -23 283 -25 c 0
 270.333 -25 247.667 -22.6667 215 -18 c 1
 151.667 -4 107.333 22.3333 82 61 c 0
 55.3333 101 39 152.333 33 215 c 1
EndSplineSet
EndChar
StartChar: four
Encoding: 22 52
OldEncoding: 52
Width: 581
Flags: W
Fore
348 174 m 1
 29 174 l 1
 29 272 l 1
 367 739 l 1
 434 739 l 1
 434 260 l 1
 543 260 l 1
 543 174 l 1
 434 174 l 1
 434 0 l 1
 348 0 l 1
 348 174 l 1
348 260 m 1
 348 592 l 1
 111 260 l 1
 348 260 l 1
EndSplineSet
EndChar
StartChar: five
Encoding: 23 53
OldEncoding: 53
Width: 581
Flags: W
Fore
143 336 m 1
 59 336 l 1
 117 739 l 1
 500 739 l 1
 500 649 l 1
 190 649 l 1
 160 444 l 1
 194.667 472.667 238.333 487 291 487 c 0
 325.667 487 358.333 481.667 389 471 c 0
 489.667 433 539 353 537 231 c 0
 535 185 521.333 139.333 496 94 c 1
 474 58.6667 444 30 406 8 c 1
 380 -4.66667 344.333 -15.6667 299 -25 c 1
 263.667 -25 229.667 -20.6667 197 -12 c 0
 162.333 -2 133.667 13.6667 111 35 c 1
 89 52.3333 74 70 66 88 c 1
 56.6667 103.333 49.6667 121.667 45 143 c 2
 37 180 l 1
 131 180 l 1
 140.333 152 156.667 124.667 180 98 c 1
 204.667 74.6667 243 63 295 63 c 1
 379.667 74.3333 426 121 434 203 c 1
 434 274.333 419.667 324.667 391 354 c 0
 361.667 385.333 325.667 401 283 401 c 0
 229 401 182.333 379.333 143 336 c 1
EndSplineSet
EndChar
StartChar: six
Encoding: 24 54
OldEncoding: 54
Width: 581
Flags: W
Fore
520 547 m 1
 430 547 l 1
 430 575.667 421 598.667 403 616 c 0
 383.667 636 359.333 649 330 655 c 1
 252.667 655 198.667 623 168 559 c 0
 142 504.333 129 451.667 129 401 c 1
 133 375 l 1
 147 387 160 399.333 172 412 c 0
 182.667 422.667 194.333 430.667 207 436 c 0
 222.333 444.667 236.667 451 250 455 c 0
 264 459 283 461 307 461 c 0
 349 461 385.333 452.667 416 436 c 0
 447.333 419.333 472.667 397.667 492 371 c 0
 512.667 340.333 524.667 311.667 528 285 c 1
 534 270.333 537 250.333 537 225 c 0
 537 199 534 180 528 168 c 1
 522 128 507.667 95.3333 485 70 c 1
 458.333 36 432 12 406 -2 c 0
 374 -17.3333 335.667 -25 291 -25 c 0
 255.667 -25 220.667 -16.6667 186 0 c 0
 154.667 13.3333 130.333 34.3333 113 63 c 1
 82.3333 103.667 63 147.667 55 195 c 0
 48.3333 245 45 305.667 45 377 c 0
 45 439 53.3333 495 70 545 c 0
 92.6667 613.667 126 662.667 170 692 c 1
 213.333 723.333 260.333 739 311 739 c 0
 366.333 739 413.667 721.333 453 686 c 0
 472.333 668.667 488 649 500 627 c 0
 509.333 609.667 516 583 520 547 c 1
418 121 m 1
 435.333 144.333 444 175 444 213 c 0
 444 251.667 434.333 289 415 325 c 2
 412 330 l 2
 390.667 362.667 351.667 379 295 379 c 0
 271.667 379 250.333 374.333 231 365 c 0
 210.333 354.333 193.333 342 180 328 c 0
 154 301.333 141 267 141 225 c 0
 141 188.333 152.667 152.333 176 117 c 1
 206.667 75.6667 246.333 55 295 55 c 0
 346.333 53 387.333 75 418 121 c 1
EndSplineSet
EndChar
StartChar: seven
Encoding: 25 55
OldEncoding: 55
Width: 581
Flags: W
Fore
49 653 m 1
 49 739 l 1
 543 739 l 1
 543 662 l 1
 461 545 l 1
 434.333 508.333 402.333 453 365 379 c 0
 304.333 263 263.333 136.667 242 0 c 1
 143 0 l 1
 166.333 94.6667 186.333 164.333 203 209 c 0
 213.667 241 239 295 279 371 c 1
 375 537 l 1
 446 653 l 1
 49 653 l 1
EndSplineSet
EndChar
StartChar: eight
Encoding: 26 56
OldEncoding: 56
Width: 581
Flags: W
Fore
143 696 m 0
 181.667 724.667 227 739 279 739 c 0
 343 739 396.667 724.667 440 696 c 0
 459.333 684 476.667 661.667 492 629 c 0
 504 600.333 510 571.667 510 543 c 0
 510 502.333 500.333 471.667 481 451 c 1
 469 433 447.333 412.333 416 389 c 1
 439.333 385 465.333 364.667 494 328 c 0
 522.667 290 537 242.667 537 186 c 1
 527.667 120.667 496.667 67 444 25 c 1
 392 -10.3333 336 -27 276 -25 c 0
 254 -25 223.333 -18.6667 184 -6 c 0
 156 3.33333 130 19 106 41 c 0
 64.6667 76.3333 43 124.667 41 186 c 0
 39 244.667 50.6667 288.333 76 317 c 1
 84 336.333 111.333 360.333 158 389 c 1
 121 418 l 1
 100 438 l 1
 94 446 88 455 82 465 c 1
 71.3333 488.333 66 514.333 66 543 c 0
 66 605.667 91.6667 656.667 143 696 c 0
375 633 m 0
 355 650.333 326.333 659 289 659 c 0
 248.333 659 217 649 195 629 c 0
 170.333 608.333 158 579.667 158 543 c 0
 158 523.667 160.667 508 166 496 c 0
 183.333 449.333 219.333 426 274 426 c 0
 330.667 424 370.333 439 393 471 c 0
 409.667 493.667 418 517.667 418 543 c 0
 418 579.667 403.667 609.667 375 633 c 0
410 295 m 0
 376.667 332.333 333.667 350 281 348 c 1
 227.667 348 187.333 329.667 160 293 c 0
 142 269 133 237 133 197 c 1
 137 156.333 149.333 126 170 106 c 1
 186.667 87.3333 221.333 72.3333 274 61 c 1
 310 63 344.333 71.3333 377 86 c 1
 419 114 440 152.333 440 201 c 0
 440 225 437.333 243.333 432 256 c 0
 425.333 274 418 287 410 295 c 0
EndSplineSet
EndChar
StartChar: nine
Encoding: 27 57
OldEncoding: 57
Width: 581
Flags: W
Fore
53 164 m 1
 145 164 l 1
 145 139.333 155.333 117.333 176 98 c 0
 197.333 79.3333 222 67.6667 250 63 c 1
 326.667 63 379.333 92.6667 408 152 c 1
 416 171.333 424.667 198.333 434 233 c 1
 442 271.667 446 297.667 446 311 c 1
 442 338 l 1
 421.333 310.667 394.667 288 362 270 c 0
 348.667 262 329.667 256 305 252 c 1
 225 256 l 1
 178.333 262 138.667 281.667 106 315 c 0
 75.3333 347 55 384 45 426 c 1
 42.3333 444.667 41 465 41 487 c 1
 45 549 l 1
 52.3333 585 67.3333 617 90 645 c 0
 120.667 681.667 148 706.333 172 719 c 1
 202 732.333 239.667 739 285 739 c 0
 365 741 425 711 465 649 c 1
 497 603.667 518 532 528 434 c 1
 530 367 l 1
 528 299 l 1
 526 262.333 518.667 218.667 506 168 c 0
 486 97.3333 450.333 46.6667 399 16 c 0
 365.667 -4 325.667 -17.6667 279 -25 c 1
 246.333 -25 214.667 -21.3333 184 -14 c 1
 157.333 -5.33333 135 7.66667 117 25 c 0
 78.3333 62.3333 57 108.667 53 164 c 1
158 594 m 0
 140 570 131 538 131 498 c 0
 131 456.667 142 418.333 164 383 c 0
 187.333 345.667 226.333 328 281 330 c 0
 301.667 330 324 336 348 348 c 0
 368.667 358 384.333 370.333 395 385 c 1
 421 411 434 444.333 434 485 c 0
 434 525 422.333 562.667 399 598 c 0
 387.667 616 371.333 629.667 350 639 c 0
 328.667 649.667 306.333 655 283 655 c 0
 227.667 655 186 634.667 158 594 c 0
EndSplineSet
EndChar
StartChar: colon
Encoding: 28 58
OldEncoding: 58
Width: 342
Flags: W
Fore
90 102 m 0
 90 125.333 99 146 117 164 c 0
 134.333 181.333 154.667 190 178 190 c 0
 194.667 190 209 186 221 178 c 1
 234.333 172.667 245.333 161.667 254 145 c 0
 262 131 266 116.667 266 102 c 0
 266 78.6667 257.333 58.3333 240 41 c 0
 221.333 23 200.667 14 178 14 c 0
 155.333 14 135 23 117 41 c 0
 99 58.3333 90 78.6667 90 102 c 0
90 618 m 0
 90 643.333 99 664.667 117 682 c 0
 135.667 698.667 156 707 178 707 c 0
 200.667 707 222 698.667 242 682 c 1
 258 664 266 642.667 266 618 c 0
 266 594.667 257.333 574.333 240 557 c 0
 221.333 539 200.667 530 178 530 c 0
 155.333 530 135 539 117 557 c 0
 99 574.333 90 594.667 90 618 c 0
EndSplineSet
EndChar
StartChar: semicolon
Encoding: 29 59
OldEncoding: 59
Width: 342
Flags: W
Fore
268 61 m 0
 268 3.66667 251 -40 217 -70 c 0
 184.333 -99.3333 149 -117 111 -123 c 1
 91.6667 -123 82 -119.667 82 -113 c 0
 82 -109.667 84 -106 88 -102 c 1
 101.333 -97.3333 123.333 -86 154 -68 c 1
 182 -49.3333 197 -28 199 -4 c 1
 182 -8 l 1
 160 -12 l 1
 105.333 -6 78 22.6667 78 74 c 0
 78 98 85.3333 118.333 100 135 c 0
 114.667 151.667 135.333 160 162 160 c 0
 230.667 160 266 127 268 61 c 0
57 610 m 0
 57 632.667 66 653.333 84 672 c 0
 101.333 689.333 121.667 698 145 698 c 0
 159.667 698 174 694 188 686 c 0
 204.667 677.333 215.667 666.333 221 653 c 1
 229 641 233 626.667 233 610 c 0
 233 586.667 224.333 566.333 207 549 c 0
 189 531 168.333 522 145 522 c 0
 121.667 522 101.333 531 84 549 c 0
 66 567 57 587.333 57 610 c 0
EndSplineSet
EndChar
StartChar: less
Encoding: 30 60
OldEncoding: 60
Width: 716
Flags: W
Fore
655 582 m 1
 655 483 l 1
 170 285 l 1
 655 86 l 1
 655 -12 l 1
 55 242 l 1
 55 328 l 1
 655 582 l 1
EndSplineSet
EndChar
StartChar: equal
Encoding: 31 61
OldEncoding: 61
Width: 716
Flags: W
Fore
61 432 m 1
 655 432 l 1
 655 346 l 1
 61 346 l 1
 61 432 l 1
61 223 m 1
 655 223 l 1
 655 137 l 1
 61 137 l 1
 61 223 l 1
EndSplineSet
EndChar
StartChar: greater
Encoding: 32 62
OldEncoding: 62
Width: 716
Flags: W
Fore
662 328 m 1
 662 242 l 1
 61 -12 l 1
 61 86 l 1
 543 285 l 1
 61 483 l 1
 61 582 l 1
 662 328 l 1
EndSplineSet
EndChar
StartChar: question
Encoding: 33 63
OldEncoding: 63
Width: 684
Flags: W
Fore
408 240 m 1
 295 240 l 1
 295 313 l 2
 295 349.667 306 382 328 410 c 0
 346.667 436 370.667 463 400 491 c 2
 403 494 l 1
 438 526 l 1
 469 557 l 1
 492 592 l 1
 506.667 626.667 514 655.333 514 678 c 0
 514 703.333 508 726.667 496 748 c 1
 480 769.333 462 785.667 442 797 c 1
 418.667 807.667 393 813 365 813 c 0
 325.667 813 294 805.667 270 791 c 0
 246.667 776.333 229.667 757 219 733 c 0
 209.667 712.333 205 690 205 666 c 1
 201 618 l 1
 94 618 l 1
 94 674.667 103 723.333 121 764 c 1
 136.333 806 165.667 840 209 866 c 1
 250.333 893.333 304.333 907 371 907 c 1
 414 905 l 1
 468 899 510.333 882.667 541 856 c 0
 573 829.333 594.667 800.667 606 770 c 0
 618.667 735.333 625 702.667 625 672 c 0
 625 642.667 620.667 615.333 612 590 c 1
 602 551.333 557 496 477 424 c 0
 454.333 403.333 438 385.667 428 371 c 0
 414.667 353 408 328.333 408 297 c 2
 408 240 l 1
295 0 m 1
 295 127 l 1
 408 127 l 1
 408 0 l 1
 295 0 l 1
EndSplineSet
EndChar
StartChar: at
Encoding: 34 64
OldEncoding: 64
Width: 1247
Flags: W
Fore
920 612 m 1
 801 244 l 2
 795.667 227.333 793 215 793 207 c 0
 793 196.333 796.333 185.333 803 174 c 0
 813.667 159.333 835.333 152 868 152 c 1
 904.667 160.667 935.667 175.667 961 197 c 0
 988.333 220.333 1008.67 243.333 1022 266 c 0
 1054.67 323.333 1071 393 1071 475 c 1
 1065 508.333 1052.67 544 1034 582 c 0
 1017.33 618.667 997 649.333 973 674 c 0
 949.667 698.667 912 724.667 860 752 c 0
 806.667 779.333 755 797.667 705 807 c 0
 680.333 811 655.667 813 631 813 c 0
 574.333 813 521 802.667 471 782 c 0
 426.333 764.667 382 739 338 705 c 1
 295.333 669.667 257.667 627.333 225 578 c 0
 193.667 528 173.333 487 164 455 c 0
 152.667 411 147 372.667 147 340 c 0
 147 273.333 161.333 208.333 190 145 c 0
 207.333 109 239 72.3333 285 35 c 1
 333 -6.33333 383.333 -37.6667 436 -59 c 0
 482.667 -78.3333 537.333 -88 600 -88 c 0
 674.667 -88 755.333 -73.6667 842 -45 c 1
 877 -127 l 1
 779 -162.333 686 -180 598 -180 c 0
 532 -180 467 -170 403 -150 c 1
 355 -132.667 298.333 -101.667 233 -57 c 0
 168.333 -12.3333 121.333 38.6667 92 96 c 0
 58 162 41 238 41 324 c 0
 41 369.333 46.3333 410 57 446 c 0
 77 510 103.667 570.333 137 627 c 1
 175 687.667 224.333 740 285 784 c 0
 315.667 807.333 351.667 828.667 393 848 c 1
 439 867.333 484 881.667 528 891 c 0
 580.667 902.333 630 907 676 905 c 0
 734 903 802.333 886 881 854 c 0
 949.667 824.667 1009 783 1059 729 c 1
 1095.67 686.333 1121 648 1135 614 c 0
 1156.33 564 1167 519.667 1167 481 c 0
 1169 427.667 1164.33 382.667 1153 346 c 0
 1143.67 316.667 1129.33 283.333 1110 246 c 0
 1093.33 213.333 1070.67 181.333 1042 150 c 0
 1010.67 115.333 972.667 91.3333 928 78 c 0
 903.333 70 872.667 66 836 66 c 0
 808 66 788 68 776 72 c 0
 752.667 78 734.333 90.3333 721 109 c 1
 706.333 125.667 698 142 696 158 c 1
 672 133 l 2
 665.333 125 654.333 116 639 106 c 0
 625.667 96 607.333 88 584 82 c 0
 562.667 75.3333 540.667 72 518 72 c 0
 493.333 72 471 76 451 84 c 0
 417 97.3333 392.333 115 377 137 c 1
 361 157 347.333 181 336 209 c 0
 326.667 234.333 322 263 322 295 c 0
 322 322.333 324.667 346.333 330 367 c 0
 353.333 460.333 400.333 532.667 471 584 c 0
 521.667 622 577.667 641 639 641 c 0
 655 641 670 639 684 635 c 0
 708 627.667 731.333 613.333 754 592 c 1
 772 569.333 784.333 548.667 791 530 c 1
 817 612 l 1
 920 612 l 1
745 463 m 1
 743 486.333 737 504 727 516 c 0
 715.667 529.333 697.333 539 672 545 c 1
 662 549 649.667 551 635 551 c 0
 605.667 551 577.667 542.667 551 526 c 0
 525.667 510 505 491 489 469 c 0
 474.333 447.667 461.667 419.667 451 385 c 0
 439.667 353 434 323 434 295 c 0
 434 256.333 445 223.667 467 197 c 1
 489 165.667 518.333 150 555 150 c 1
 586 154 l 1
 623.333 164.667 654.667 190.333 680 231 c 1
 694.667 251.667 709.667 287.333 725 338 c 0
 738.333 388 745 429.667 745 463 c 1
EndSplineSet
EndChar
StartChar: A
Encoding: 35 65
OldEncoding: 65
Width: 819
Flags: W
Fore
240 268 m 1
 143 0 l 1
 20 0 l 1
 346 895 l 1
 487 895 l 1
 803 0 l 1
 674 0 l 1
 582 268 l 1
 240 268 l 1
416 756 m 1
 270 365 l 1
 549 365 l 1
 416 756 l 1
EndSplineSet
EndChar
StartChar: B
Encoding: 36 66
OldEncoding: 66
Width: 819
Flags: W
Fore
539 0 m 2
 96 0 l 1
 96 895 l 1
 494 895 l 2
 528 895 559.333 888 588 874 c 0
 619.333 859.333 645.333 841.667 666 821 c 0
 699.333 789.667 719 748.667 725 698 c 1
 725 582 687.333 507.667 612 475 c 1
 655 455 l 1
 671.667 445 687.333 432.667 702 418 c 0
 720.667 399.333 736 376.667 748 350 c 0
 760 323.333 766 287.333 766 242 c 0
 764 186.667 749.667 142.333 723 109 c 0
 695 73 664.333 46.3333 631 29 c 0
 595.667 9.66667 565 -8.67362e-19 539 0 c 2
213 795 m 1
 213 512 l 1
 451 512 l 2
 511.667 512 553 526.333 575 555 c 0
 597 584.333 608 625.333 608 678 c 1
 602 721.333 577.667 752 535 770 c 1
 490.333 786.667 452.667 795 422 795 c 2
 213 795 l 1
213 410 m 1
 213 102 l 1
 502 102 l 2
 554.667 102 592 119.333 614 154 c 1
 638.667 187.333 651 230.333 651 283 c 1
 645 333 624.667 367 590 385 c 1
 553.333 401.667 502.667 410 438 410 c 2
 213 410 l 1
EndSplineSet
EndChar
StartChar: C
Encoding: 37 67
OldEncoding: 67
Width: 886
Flags: W
Fore
815 618 m 1
 696 618 l 1
 681.333 658.667 663 693 641 721 c 0
 626.333 740.333 608.667 756 588 768 c 0
 562 784 540.667 794.333 524 799 c 0
 506 804.333 483.667 807 457 807 c 0
 421.667 807 386 799.333 350 784 c 0
 316 770 286.667 749 262 721 c 1
 232.667 684.333 211.667 643.333 199 598 c 0
 183.667 546 176 493.333 176 440 c 0
 176 392.667 184.333 341.667 201 287 c 0
 217.667 234.333 238 192.667 262 162 c 0
 308.667 104.667 373.667 76 457 76 c 0
 535 76 596.333 104.667 641 162 c 0
 656.333 181.333 670.667 206 684 236 c 0
 699.333 268 709.667 298.667 715 328 c 1
 831 328 l 1
 813 218 768.667 129.667 698 63 c 0
 676 43 642 22.6667 596 2 c 0
 547.333 -18.6667 499 -29 451 -29 c 0
 402.333 -29 353.667 -18.6667 305 2 c 0
 258.333 20 223.667 40.3333 201 63 c 0
 150.333 112.333 114 170 92 236 c 0
 70 302.667 59 370.667 59 440 c 0
 59 510.667 70 579.667 92 647 c 0
 114.667 713.667 151 771 201 819 c 1
 221.667 841 256.333 861.667 305 881 c 0
 357 901 405.667 911 451 911 c 0
 495.667 911 544 901 596 881 c 0
 642.667 862.333 676.667 841.667 698 819 c 1
 748.667 773 787.667 706 815 618 c 1
EndSplineSet
EndChar
StartChar: D
Encoding: 38 68
OldEncoding: 68
Width: 886
Flags: W
Fore
518 0 m 2
 109 0 l 1
 109 895 l 1
 455 895 l 2
 550.333 895 632 863 700 799 c 1
 768.667 732.333 807 642.667 815 530 c 0
 817.667 502.667 819 474 819 444 c 0
 819 314 787.667 210.333 725 133 c 0
 689.667 87.6667 652.667 55 614 35 c 1
 574.667 11.6667 542.667 -8.67362e-19 518 0 c 2
444 795 m 2
 225 795 l 1
 225 102 l 1
 475 102 l 2
 505 102 535.667 108.333 567 121 c 0
 584.333 128.333 606.333 148 633 180 c 0
 656.333 209.333 671.333 236.667 678 262 c 0
 693.333 329.333 702.333 390 705 444 c 1
 707 542.667 690.333 621.333 655 680 c 0
 607.667 756.667 537.333 795 444 795 c 2
EndSplineSet
EndChar
StartChar: E
Encoding: 39 69
OldEncoding: 69
Width: 819
Flags: W
Fore
111 0 m 1
 111 895 l 1
 733 895 l 1
 733 795 l 1
 225 795 l 1
 225 512 l 1
 713 512 l 1
 713 410 l 1
 225 410 l 1
 225 102 l 1
 754 102 l 1
 754 0 l 1
 111 0 l 1
EndSplineSet
EndChar
StartChar: F
Encoding: 40 70
OldEncoding: 70
Width: 751
Flags: W
Fore
111 0 m 1
 111 895 l 1
 711 895 l 1
 711 795 l 1
 225 795 l 1
 225 512 l 1
 651 512 l 1
 651 410 l 1
 225 410 l 1
 225 0 l 1
 111 0 l 1
EndSplineSet
EndChar
StartChar: G
Encoding: 41 71
OldEncoding: 71
Width: 956
Flags: W
Fore
496 373 m 1
 496 475 l 1
 870 475 l 1
 870 -4 l 1
 797 -4 l 1
 770 106 l 1
 720 62 673.667 28 631 4 c 0
 590.333 -18 531.667 -29 455 -29 c 0
 417 -29 372.667 -19.3333 322 0 c 0
 276 17.3333 239 36.3333 211 57 c 1
 159 101 118.667 159 90 231 c 1
 63.3333 306.333 51 375.333 53 438 c 0
 53 476 59.3333 521 72 573 c 0
 82.6667 621.667 99 666.333 121 707 c 0
 141 745.667 171 783 211 819 c 0
 238.333 842.333 276.667 863 326 881 c 0
 382.667 901 436.333 911 487 911 c 0
 566.333 913 630 900.667 678 874 c 1
 745.333 840 791 801.333 815 758 c 0
 839 716.667 854 672.333 860 625 c 1
 748 625 l 1
 744.667 670.333 720 712 674 750 c 0
 627.333 788 565 807 487 807 c 0
 447 807 407 799.333 367 784 c 0
 326.333 769.333 293.333 748.333 268 721 c 0
 239.333 691 215.667 650 197 598 c 0
 179 550 170 496.667 170 438 c 0
 170 382.667 179 331 197 283 c 0
 215 231 238.667 189.333 268 158 c 0
 323.333 100.667 396.333 72 487 72 c 0
 550.333 72 602.333 86.3333 643 115 c 0
 673 135 698.333 158 719 184 c 0
 737.667 208 750 232 756 256 c 1
 764 278.667 768 299 768 317 c 2
 768 373 l 1
 496 373 l 1
EndSplineSet
EndChar
StartChar: H
Encoding: 42 72
OldEncoding: 72
Width: 886
Flags: W
Fore
676 0 m 1
 676 410 l 1
 217 410 l 1
 217 0 l 1
 102 0 l 1
 102 895 l 1
 217 895 l 1
 217 512 l 1
 676 512 l 1
 676 895 l 1
 791 895 l 1
 791 0 l 1
 676 0 l 1
EndSplineSet
EndChar
StartChar: I
Encoding: 43 73
OldEncoding: 73
Width: 342
Flags: W
Fore
123 0 m 1
 123 895 l 1
 238 895 l 1
 238 0 l 1
 123 0 l 1
EndSplineSet
EndChar
StartChar: J
Encoding: 44 74
OldEncoding: 74
Width: 614
Flags: W
Fore
20 285 m 1
 137 285 l 1
 137 195 l 2
 137 161.667 146 135.667 164 117 c 1
 180 95.6667 201.667 82 229 76 c 1
 262 72 l 1
 309.333 72 347.667 89.6667 377 125 c 0
 397.667 151 408 205 408 287 c 2
 408 895 l 1
 524 895 l 1
 524 186 l 1
 512 105.333 474.667 44.6667 412 4 c 0
 374 -20 316 -31 238 -29 c 0
 163.333 -27 108 -1 72 49 c 0
 37.3333 97.6667 20 144.667 20 190 c 2
 20 285 l 1
EndSplineSet
EndChar
StartChar: K
Encoding: 45 75
OldEncoding: 75
Width: 819
Flags: W
Fore
96 895 m 1
 213 895 l 1
 213 453 l 1
 657 895 l 1
 809 895 l 1
 438 530 l 1
 805 0 l 1
 672 0 l 1
 360 451 l 1
 213 305 l 1
 213 0 l 1
 96 0 l 1
 96 895 l 1
EndSplineSet
EndChar
StartChar: L
Encoding: 46 76
OldEncoding: 76
Width: 684
Flags: W
Fore
98 895 m 1
 213 895 l 1
 213 102 l 1
 655 102 l 1
 655 0 l 1
 98 0 l 1
 98 895 l 1
EndSplineSet
EndChar
StartChar: M
Encoding: 47 77
OldEncoding: 77
Width: 1024
Flags: W
Fore
573 0 m 1
 455 0 l 1
 211 727 l 1
 211 0 l 1
 92 0 l 1
 92 895 l 1
 256 895 l 1
 514 133 l 1
 772 895 l 1
 936 895 l 1
 936 0 l 1
 817 0 l 1
 817 727 l 1
 573 0 l 1
EndSplineSet
EndChar
StartChar: N
Encoding: 48 78
OldEncoding: 78
Width: 886
Flags: W
Fore
795 0 m 1
 662 0 l 1
 209 717 l 1
 209 0 l 1
 94 0 l 1
 94 895 l 1
 229 895 l 1
 678 170 l 1
 678 895 l 1
 795 895 l 1
 795 0 l 1
EndSplineSet
EndChar
StartChar: O
Encoding: 49 79
OldEncoding: 79
Width: 956
Flags: W
Fore
479 911 m 0
 530.333 911 584.333 901 641 881 c 0
 695 861 732.667 840.333 754 819 c 1
 806.667 772.333 846 715 872 647 c 0
 898 582.333 911 513.333 911 440 c 0
 911 368.667 898 300.667 872 236 c 1
 848 168.667 808.667 111 754 63 c 0
 732.667 45 695 24.6667 641 2 c 0
 588.333 -18.6667 534.333 -29 479 -29 c 0
 426.333 -29 373 -18.6667 319 2 c 0
 271 18.6667 233 39 205 63 c 0
 150.333 110.333 110.667 168 86 236 c 1
 60 300.667 47 368.667 47 440 c 0
 47 480 52.3333 525 63 575 c 0
 75 626.333 92.3333 671.667 115 711 c 0
 134.333 747 164.333 783 205 819 c 0
 230.333 841.667 268.333 862.333 319 881 c 0
 377 901 430.333 911 479 911 c 0
479 807 m 0
 439.667 807 400 799.333 360 784 c 0
 320 769.333 287.333 748.333 262 721 c 1
 234 693 210 652 190 598 c 1
 172.667 544.667 164 492 164 440 c 0
 164 384 172.667 332.333 190 285 c 0
 207.333 236.333 231.333 195.333 262 162 c 0
 314.667 104.667 387 76 479 76 c 0
 571 76 643.333 104.667 696 162 c 1
 726 192 750 233 768 285 c 0
 786 340.333 795 392 795 440 c 0
 795 490 786 542.667 768 598 c 0
 749.333 650.667 725.333 691.667 696 721 c 0
 668 750.333 636 771.333 600 784 c 0
 560 799.333 519.667 807 479 807 c 0
EndSplineSet
EndChar
StartChar: P
Encoding: 50 80
OldEncoding: 80
Width: 819
Flags: W
Fore
113 0 m 1
 113 895 l 1
 487 895 l 2
 555 895 614.667 878.667 666 846 c 0
 714.667 814 744.667 758 756 678 c 1
 758 633 l 1
 758 549.667 732.667 486.667 682 444 c 0
 630.667 400.667 578 379 524 379 c 2
 227 379 l 1
 227 0 l 1
 113 0 l 1
227 795 m 1
 227 481 l 1
 520 481 l 2
 539.333 481 565.333 494.667 598 522 c 1
 628.667 550.667 643 592.333 641 647 c 0
 639 698.333 620.667 736.667 586 762 c 0
 555.333 784 521.667 795 485 795 c 2
 227 795 l 1
EndSplineSet
EndChar
StartChar: Q
Encoding: 51 81
OldEncoding: 81
Width: 956
Flags: W
Fore
784 94 m 1
 901 0 l 1
 842 -72 l 1
 715 33 l 1
 638.333 -6.33333 559.667 -27 479 -29 c 0
 426.333 -29 373 -18.6667 319 2 c 0
 271 18.6667 233 39 205 63 c 0
 150.333 110.333 110.667 168 86 236 c 1
 60 300.667 47 368.667 47 440 c 0
 47 480 52.3333 525 63 575 c 0
 75 626.333 92.3333 671.667 115 711 c 0
 134.333 747 164.333 783 205 819 c 0
 230.333 841.667 268.333 862.333 319 881 c 0
 377 901 430.333 911 479 911 c 0
 530.333 911 584.333 901 641 881 c 0
 695 861 732.667 840.333 754 819 c 1
 806.667 772.333 846 715 872 647 c 0
 898 582.333 911 513.333 911 440 c 0
 911 376 901 313.333 881 252 c 0
 860.333 190.667 828 138 784 94 c 1
623 109 m 1
 532 182 l 1
 588 252 l 1
 700 162 l 1
 718 180.667 734.667 206 750 238 c 0
 766 272 777.333 304 784 334 c 0
 791.333 370.667 795 406 795 440 c 0
 795 490 786 542.667 768 598 c 0
 749.333 650.667 725.333 691.667 696 721 c 0
 668 750.333 636 771.333 600 784 c 0
 560 799.333 519.667 807 479 807 c 0
 439.667 807 400 799.333 360 784 c 0
 320 769.333 287.333 748.333 262 721 c 1
 234 693 210 652 190 598 c 1
 172.667 544.667 164 492 164 440 c 0
 164 384 172.667 332.333 190 285 c 0
 207.333 236.333 231.333 195.333 262 162 c 0
 314.667 104.667 387 76 479 76 c 0
 533.667 76 581.667 87 623 109 c 1
EndSplineSet
EndChar
StartChar: R
Encoding: 52 82
OldEncoding: 82
Width: 886
Flags: W
Fore
115 0 m 1
 115 895 l 1
 514 895 l 2
 603.333 895 671.667 880.667 719 852 c 0
 769.667 822 797 760.667 801 668 c 0
 803 610 794.667 566.333 776 537 c 1
 762 511.667 730.667 480 682 442 c 1
 729.333 414 758 387.333 768 362 c 0
 778 336 784 286.333 786 213 c 0
 788 151.667 791.667 110 797 88 c 0
 803 62 815.333 42.3333 834 29 c 1
 834 0 l 1
 696 0 l 1
 685.333 24.6667 676.667 62.3333 670 113 c 1
 670 217 l 2
 670 267 660.333 308.667 641 342 c 0
 623 370.667 584 385 524 385 c 2
 229 385 l 1
 229 0 l 1
 115 0 l 1
518 795 m 2
 229 795 l 1
 229 487 l 1
 518 487 l 2
 618.667 487 674 532.333 684 623 c 1
 684 737.667 628.667 795 518 795 c 2
EndSplineSet
EndChar
StartChar: S
Encoding: 53 83
OldEncoding: 83
Width: 819
Flags: W
Fore
733 635 m 1
 623 635 l 1
 623 697 596.333 744.667 543 778 c 0
 517 793.333 493 803 471 807 c 0
 449 811 423 813 393 813 c 0
 329.667 813 282 798 250 768 c 0
 214.667 736.667 197 702 197 664 c 0
 197 644 201.667 626 211 610 c 0
 220.333 595.333 234.667 581 254 567 c 1
 273.333 556.333 315 542.333 379 525 c 2
 389 522 l 2
 465 504 538.667 484.333 610 463 c 1
 650.667 448.333 686.333 421.667 717 383 c 0
 748.333 343.667 764 303.333 764 262 c 0
 766 203.333 751 151.333 719 106 c 0
 687.667 62.6667 645.333 29.3333 592 6 c 1
 533.333 -17.3333 472.667 -29 410 -29 c 0
 344 -27 289.333 -18 246 -2 c 0
 200 13.3333 159.667 42 125 84 c 0
 99 115.333 81.3333 146 72 176 c 1
 65.3333 206.667 61 243 59 285 c 1
 166 285 l 1
 166 242.333 178.333 200.667 203 160 c 1
 227 116.667 272.667 90 340 80 c 0
 364 77.3333 403 76 457 76 c 1
 515 82 557.333 96.3333 584 119 c 0
 623.333 152.333 643 192 643 238 c 0
 643 278.667 622 314 580 344 c 1
 546 361.333 483 380.333 391 401 c 0
 339 412.333 302.333 422.667 281 432 c 1
 209 457 l 1
 137.667 479 98 533.667 90 621 c 1
 90 675 101.667 724.667 125 770 c 0
 147.667 814 181 848.667 225 874 c 0
 269.667 898.667 325 911 391 911 c 0
 484.333 911 556.667 895.333 608 864 c 0
 691.333 811.333 733 735 733 635 c 1
EndSplineSet
EndChar
StartChar: T
Encoding: 54 84
OldEncoding: 84
Width: 751
Flags: W
Fore
322 0 m 1
 322 795 l 1
 27 795 l 1
 27 895 l 1
 729 895 l 1
 729 795 l 1
 436 795 l 1
 436 0 l 1
 322 0 l 1
EndSplineSet
EndChar
StartChar: U
Encoding: 55 85
OldEncoding: 85
Width: 886
Flags: W
Fore
104 895 m 1
 219 895 l 1
 219 256 l 2
 219 211.333 237.333 169 274 129 c 0
 311.333 89.6667 369.667 70 449 70 c 0
 527.667 70 585.667 89.6667 623 129 c 0
 659.667 169 678 211.333 678 256 c 2
 678 895 l 1
 793 895 l 1
 793 250 l 2
 793 228 787.333 199.333 776 164 c 0
 765.333 132 747 101.333 721 72 c 0
 695.667 42.6667 659.333 18.6667 612 0 c 0
 564 -19.3333 509.667 -29 449 -29 c 0
 365.667 -29 298.667 -14 248 16 c 0
 198 46.6667 161 84.3333 137 129 c 0
 115 172.333 104 212.667 104 250 c 2
 104 895 l 1
EndSplineSet
EndChar
StartChar: V
Encoding: 56 86
OldEncoding: 86
Width: 819
Flags: W
Fore
420 137 m 1
 670 895 l 1
 793 895 l 1
 477 0 l 1
 354 0 l 1
 37 895 l 1
 160 895 l 1
 420 137 l 1
EndSplineSet
EndChar
StartChar: W
Encoding: 57 87
OldEncoding: 87
Width: 1159
Flags: W
Fore
844 174 m 1
 1014 895 l 1
 1141 895 l 1
 913 0 l 1
 786 0 l 1
 582 729 l 1
 379 0 l 1
 254 0 l 1
 27 895 l 1
 156 895 l 1
 322 174 l 1
 520 895 l 1
 645 895 l 1
 844 174 l 1
EndSplineSet
EndChar
StartChar: X
Encoding: 58 88
OldEncoding: 88
Width: 819
Flags: W
Fore
784 895 m 1
 485 459 l 1
 797 0 l 1
 655 0 l 1
 416 365 l 1
 170 0 l 1
 27 0 l 1
 342 459 l 1
 49 895 l 1
 188 895 l 1
 416 553 l 1
 645 895 l 1
 784 895 l 1
EndSplineSet
EndChar
StartChar: Y
Encoding: 59 89
OldEncoding: 89
Width: 819
Flags: W
Fore
16 895 m 1
 158 895 l 1
 416 461 l 1
 672 895 l 1
 813 895 l 1
 475 350 l 1
 475 0 l 1
 358 0 l 1
 358 350 l 1
 16 895 l 1
EndSplineSet
EndChar
StartChar: Z
Encoding: 60 90
OldEncoding: 90
Width: 751
Flags: W
Fore
72 795 m 1
 72 895 l 1
 715 895 l 1
 715 791 l 1
 180 102 l 1
 717 102 l 1
 717 0 l 1
 35 0 l 1
 35 98 l 1
 569 795 l 1
 72 795 l 1
EndSplineSet
EndChar
StartChar: bracketleft
Encoding: 61 91
OldEncoding: 91
Width: 342
Flags: W
Fore
78 895 m 1
 307 895 l 1
 307 803 l 1
 182 803 l 1
 182 -170 l 1
 307 -170 l 1
 307 -262 l 1
 78 -262 l 1
 78 895 l 1
EndSplineSet
EndChar
StartChar: backslash
Encoding: 62 92
OldEncoding: 92
Width: 342
Flags: W
Fore
281 -25 m 1
 -10 895 l 1
 57 895 l 1
 348 -25 l 1
 281 -25 l 1
EndSplineSet
EndChar
StartChar: bracketright
Encoding: 63 93
OldEncoding: 93
Width: 342
Flags: W
Fore
29 803 m 1
 29 895 l 1
 256 895 l 1
 256 -264 l 1
 29 -264 l 1
 29 -172 l 1
 152 -172 l 1
 152 803 l 1
 29 803 l 1
EndSplineSet
EndChar
StartChar: asciicircum
Encoding: 64 94
OldEncoding: 94
Width: 575
Flags: W
Fore
53 410 m 1
 244 877 l 1
 334 877 l 1
 522 410 l 1
 436 410 l 1
 287 772 l 1
 139 410 l 1
 53 410 l 1
EndSplineSet
EndChar
StartChar: underscore
Encoding: 65 95
OldEncoding: 95
Width: 684
Flags: W
Fore
711 -154 m 1
 711 -215 l 1
 -27 -215 l 1
 -27 -154 l 1
 711 -154 l 1
EndSplineSet
EndChar
StartChar: grave
Encoding: 66 96
OldEncoding: 96
Width: 235
Flags: W
Fore
29 672 m 0
 29 728.667 45.3333 772.333 78 803 c 0
 111.333 832.333 147.333 850 186 856 c 1
 205.333 856 215 852.667 215 846 c 0
 215 843.333 213 840 209 836 c 1
 197 831.333 175 819.667 143 801 c 1
 117 783.667 102 762.333 98 737 c 1
 115 741 l 1
 137 745 l 1
 191.667 739 219 710.333 219 659 c 0
 219 635 211.667 614.667 197 598 c 0
 181.667 581.333 161 573 135 573 c 0
 66.3333 573 31 606 29 672 c 0
EndSplineSet
EndChar
StartChar: a
Encoding: 67 97
OldEncoding: 97
Width: 684
Flags: W
Fore
586 528 m 2
 586 96 l 2
 586 86.6667 592 78 604 70 c 0
 616.667 62.6667 634.333 59 657 59 c 1
 657 -16 l 1
 571 -29 l 1
 515 -11.6667 485 20 481 66 c 1
 439.667 33.3333 407 10.6667 383 -2 c 0
 348.333 -20 312.667 -29 276 -29 c 0
 208 -31 153 -13 111 25 c 0
 69 61.6667 49 111.333 51 174 c 0
 51 218.667 64.6667 256.333 92 287 c 1
 118.667 312.333 150 330.667 186 342 c 0
 212.667 350.667 241.333 357.333 272 362 c 0
 302 367.333 332 371 362 373 c 2
 426 379 l 1
 460 389 477 405.333 477 428 c 2
 477 506 l 1
 472.333 528.667 454 545 422 555 c 0
 385.333 567.667 344.333 573 299 571 c 0
 224.333 569 184 529.667 178 453 c 1
 82 453 l 1
 84 508 l 1
 90.6667 534 103 558 121 580 c 0
 140.333 604 164.333 622.333 193 635 c 1
 214.333 646.333 252.333 656 307 664 c 1
 351.667 664 394 660.333 434 653 c 0
 480.667 642.333 517 626.667 543 606 c 0
 571.667 584 586 558 586 528 c 2
477 186 m 2
 477 315 l 1
 455 305.667 427.667 299 395 295 c 2
 297 279 l 1
 268.333 273 242.333 266 219 258 c 1
 205 250.667 191.333 239.667 178 225 c 0
 164.667 211.667 158 193.333 158 170 c 0
 158 132.667 168.667 105.333 190 88 c 0
 214.667 68.6667 241.333 59 270 59 c 0
 306.667 57 343 65.3333 379 84 c 0
 409 99.3333 433 117.667 451 139 c 0
 468.333 161 477 176.667 477 186 c 2
EndSplineSet
EndChar
StartChar: b
Encoding: 68 98
OldEncoding: 98
Width: 684
Flags: W
Fore
66 895 m 1
 170 895 l 1
 170 567 l 1
 178.667 585 198.333 604.333 229 625 c 1
 253 637.667 273.667 647 291 653 c 0
 317.667 660.333 343.667 664 369 664 c 0
 443.667 664 506.333 636.667 557 582 c 0
 577 560.667 592.667 537.333 604 512 c 1
 619.333 482.667 629.667 454 635 426 c 0
 640.333 398.667 643 365.333 643 326 c 1
 641 279 l 1
 639 220.333 623.333 164.333 594 111 c 0
 566 57 529 19.3333 483 -2 c 0
 447.667 -20 405.333 -29 356 -29 c 0
 308.667 -29 272 -20 246 -2 c 0
 200 28.6667 170 53.3333 156 72 c 1
 156 0 l 1
 66 0 l 1
 66 895 l 1
471 129 m 0
 507.667 179.667 526 244 526 322 c 0
 526 359.333 522 393.333 514 424 c 0
 508.667 450.667 497.667 474.667 481 496 c 1
 454.333 540 409.333 561 346 559 c 0
 291.333 559 249 538.667 219 498 c 1
 205 476 193.333 450 184 420 c 0
 173.333 380.667 168 343 168 307 c 0
 168 244.333 183 188.333 213 139 c 0
 239 99 280 76 336 70 c 1
 398.667 70 443.667 89.6667 471 129 c 0
EndSplineSet
EndChar
StartChar: c
Encoding: 69 99
OldEncoding: 99
Width: 614
Flags: W
Fore
487 223 m 1
 586 223 l 1
 584 169.667 572.333 126 551 92 c 0
 528.333 53.3333 495 23.3333 451 2 c 0
 402.333 -20.6667 355 -31 309 -29 c 0
 267.667 -29 222.667 -16 174 10 c 0
 132.667 33.3333 102 66.3333 82 109 c 0
 53.3333 169 39 242 39 328 c 0
 41 425.333 71.6667 507.667 131 575 c 1
 179.667 632.333 244 662 324 664 c 0
 361.333 664 395.333 659 426 649 c 0
 458.667 639 485.333 624.667 506 606 c 1
 530 592 548.333 569 561 537 c 0
 575.667 504.333 584 468 586 428 c 1
 483 428 l 1
 476.333 466 469 492.667 461 508 c 0
 449.667 526 434.667 539.667 416 549 c 0
 386.667 562.333 357.333 569 328 569 c 0
 280 567 237.667 544.667 201 502 c 0
 169 465.333 152 412 150 342 c 1
 145.333 266 153.333 208 174 168 c 0
 207.333 100.667 260.667 68 334 70 c 0
 358.667 70 384 77.3333 410 92 c 0
 434 107.333 449.667 123 457 139 c 0
 473 170.333 483 198.333 487 223 c 1
EndSplineSet
EndChar
StartChar: d
Encoding: 70 100
OldEncoding: 100
Width: 684
Flags: W
Fore
506 895 m 1
 608 895 l 1
 608 -2 l 1
 518 -2 l 1
 518 74 l 1
 490 40.6667 460.667 14.6667 430 -4 c 0
 404.667 -20.6667 367.667 -29 319 -29 c 0
 270.333 -29 227.333 -20 190 -2 c 0
 146.667 19.3333 111.333 56.3333 84 109 c 0
 57.3333 157.667 41 213.333 35 276 c 1
 33 328 l 1
 33 374.667 40.3333 421.667 55 469 c 0
 70.3333 517 91 554 117 580 c 0
 173 636 235.667 664 305 664 c 0
 359 664 406 651 446 625 c 1
 476 603.667 496 584.333 506 567 c 1
 506 895 l 1
203 127 m 0
 233.667 87 278.667 68 338 70 c 0
 362 70 386.667 76.6667 412 90 c 0
 433.333 102 450.333 118.333 463 139 c 0
 491.667 187.667 506 243 506 305 c 0
 506 345.667 500.333 384 489 420 c 0
 479.667 452.667 469 478 457 496 c 1
 426.333 536.667 383.333 557 328 557 c 0
 266 557 221 536.667 193 496 c 0
 162.333 453.333 147 394.333 147 319 c 0
 147 242.333 165.667 178.333 203 127 c 0
EndSplineSet
EndChar
StartChar: e
Encoding: 71 101
OldEncoding: 101
Width: 684
Flags: W
Fore
631 281 m 1
 160 281 l 1
 160 251 162 227 166 209 c 0
 169.333 192.333 179 169.667 195 141 c 1
 233 87.6667 281.333 61 340 61 c 0
 369.333 61 395.333 66 418 76 c 0
 438.667 86 455.667 98.3333 469 113 c 0
 483 129 492.667 144 498 158 c 2
 512 197 l 1
 616 197 l 1
 604.667 142.333 585.667 99.3333 559 68 c 0
 533.667 36 503.667 12.6667 469 -2 c 0
 429.667 -20 387.333 -29 342 -29 c 0
 296.667 -29 254.333 -20 215 -2 c 0
 172.333 18 139 44 115 76 c 0
 71 132 49 212.333 49 317 c 0
 51 426.333 77.6667 509.667 129 567 c 0
 190.333 633.667 269.667 666 367 664 c 0
 385.667 664 410 659 440 649 c 0
 465.333 641 488.667 630 510 616 c 1
 532.667 598.667 548.333 583.667 557 571 c 0
 579.667 541.667 596 512.333 606 483 c 0
 618.667 447.667 625.667 422 627 406 c 1
 631 281 l 1
164 373 m 1
 518 373 l 1
 518 398.333 512.667 427.667 502 461 c 0
 492.667 490.333 482.333 510.667 471 522 c 1
 465 537.333 451.333 549.667 430 559 c 0
 402 573 378.667 580 360 580 c 0
 296 582 249 562.667 219 522 c 1
 209 514 197.333 494.333 184 463 c 0
 173.333 437.667 166.667 407.667 164 373 c 1
EndSplineSet
EndChar
StartChar: f
Encoding: 72 102
OldEncoding: 102
Width: 342
Flags: W
Fore
109 0 m 1
 109 551 l 1
 23 551 l 1
 23 645 l 1
 109 645 l 1
 109 754 l 2
 109 796 122.667 830.667 150 858 c 0
 175.333 882.667 196.333 895 213 895 c 1
 226.333 897.667 242.667 899 262 899 c 0
 282.667 899 301 897.667 317 895 c 1
 317 809 l 1
 277 809 250 805 236 797 c 1
 220.667 785.667 213 766.333 213 739 c 2
 213 645 l 1
 315 645 l 1
 315 551 l 1
 213 551 l 1
 213 0 l 1
 109 0 l 1
EndSplineSet
EndChar
StartChar: g
Encoding: 73 103
OldEncoding: 103
Width: 684
Flags: W
Fore
498 645 m 1
 600 645 l 1
 600 109 l 2
 600 61 596 7 588 -53 c 1
 580 -97 565 -136.667 543 -172 c 0
 521 -205.333 488.667 -229.333 446 -244 c 0
 409.333 -255.333 374 -263.333 340 -268 c 1
 273.333 -268 225 -262 195 -250 c 0
 158.333 -235.333 130.333 -218.333 111 -199 c 0
 89 -177 75.3333 -155.667 70 -135 c 0
 63.3333 -116.333 59 -96 57 -74 c 1
 162 -74 l 1
 168 -94 l 1
 170.667 -106.667 173.333 -115 176 -119 c 0
 178.667 -127 185 -133.667 195 -139 c 1
 205 -149 217.667 -157.333 233 -164 c 0
 252.333 -173.333 279 -178 313 -178 c 0
 347.667 -178 379.333 -172.667 408 -162 c 1
 436 -146 453.667 -131.667 461 -119 c 0
 470.333 -104.333 477.667 -83.6667 483 -57 c 0
 493 -17.6667 498 27.3333 498 78 c 1
 434.667 4.66667 364.333 -31 287 -29 c 0
 242.333 -27 197.333 -7.66667 152 29 c 1
 116 51.6667 88 85.6667 68 131 c 0
 48 179 37 229 35 281 c 1
 35 335 41 387.333 53 438 c 0
 66.3333 490.667 84 532.333 106 563 c 1
 122 583 148.667 605 186 629 c 1
 227.333 652.333 269.667 664 313 664 c 0
 385.667 662 447.333 629.667 498 567 c 1
 498 645 l 1
440 119 m 0
 478.667 159.667 498 223 498 309 c 0
 498 353.667 493 392.667 483 426 c 0
 473.667 460 458.667 487.333 438 508 c 1
 432 516 417 525.667 393 537 c 0
 372.333 546.333 349.333 551 324 551 c 0
 254 551 204.667 519.667 176 457 c 0
 157.333 416.333 147 367.667 145 311 c 0
 143 240.333 156.667 183 186 139 c 1
 219.333 93 261 70 311 70 c 0
 365.667 68 408.667 84.3333 440 119 c 0
EndSplineSet
EndChar
StartChar: h
Encoding: 74 104
OldEncoding: 104
Width: 684
Flags: W
Fore
86 0 m 1
 86 895 l 1
 188 895 l 1
 188 567 l 1
 221.333 602.333 258.333 629 299 647 c 1
 343 658.333 372.333 664 387 664 c 0
 411.667 664 445.333 656.667 488 642 c 2
 492 641 l 2
 534 625 561.667 601.667 575 571 c 0
 590.333 538.333 598 511 598 489 c 2
 598 0 l 1
 494 0 l 1
 494 440 l 2
 494 498.667 476 536.333 440 553 c 1
 406 563.667 369.333 569 330 569 c 1
 299.333 563 265.667 544.667 229 514 c 1
 201.667 488 188 456.667 188 420 c 2
 188 0 l 1
 86 0 l 1
EndSplineSet
EndChar
StartChar: i
Encoding: 75 105
OldEncoding: 105
Width: 272
Flags: W
Fore
184 645 m 1
 184 0 l 1
 82 0 l 1
 82 645 l 1
 184 645 l 1
184 895 m 1
 184 768 l 1
 82 768 l 1
 82 895 l 1
 184 895 l 1
EndSplineSet
EndChar
StartChar: j
Encoding: 76 106
OldEncoding: 106
Width: 272
Flags: W
Fore
84 768 m 1
 84 895 l 1
 188 895 l 1
 188 768 l 1
 84 768 l 1
-23 -268 m 1
 -23 -178 l 1
 39 -172 l 2
 55 -170 66.6667 -163.333 74 -152 c 0
 80.6667 -140 84 -129 84 -119 c 2
 84 645 l 1
 188 645 l 1
 188 -141 l 2
 188 -163.667 181.333 -187 168 -211 c 1
 153.333 -233.667 128.667 -250 94 -260 c 0
 72.6667 -265.333 33.6667 -268 -23 -268 c 1
EndSplineSet
EndChar
StartChar: k
Encoding: 77 107
OldEncoding: 107
Width: 614
Flags: W
Fore
72 895 m 1
 174 895 l 1
 174 377 l 1
 446 645 l 1
 580 645 l 1
 354 422 l 1
 616 0 l 1
 489 0 l 1
 279 344 l 1
 174 242 l 1
 174 0 l 1
 72 0 l 1
 72 895 l 1
EndSplineSet
EndChar
StartChar: l
Encoding: 78 108
OldEncoding: 108
Width: 272
Flags: W
Fore
84 0 m 1
 84 895 l 1
 186 895 l 1
 186 0 l 1
 84 0 l 1
EndSplineSet
EndChar
StartChar: m
Encoding: 79 109
OldEncoding: 109
Width: 1024
Flags: W
Fore
88 0 m 1
 88 645 l 1
 190 645 l 1
 190 563 l 1
 217.333 604.333 240 629 258 637 c 1
 291.333 655 331.667 664 379 664 c 0
 428.333 664 464.333 655.667 487 639 c 1
 515.667 620.333 538.333 596.333 555 567 c 1
 584 602 l 2
 589.333 608.667 597.333 617 608 627 c 0
 616 633 627 639.667 641 647 c 1
 671.667 658.333 703 664 735 664 c 0
 793.667 664 834 657 856 643 c 1
 869.333 636.333 882.333 625.333 895 610 c 1
 908.333 596.667 919.333 579.667 928 559 c 0
 934.667 539 938 520.667 938 504 c 2
 938 0 l 1
 834 0 l 1
 834 461 l 1
 822.667 533 781.667 569 711 569 c 0
 665 569 630.667 556.667 608 532 c 0
 584 508 569 476.667 563 438 c 1
 563 0 l 1
 461 0 l 1
 461 463 l 2
 461 521.667 432 556 374 566 c 0
 364 568 353.333 569 342 569 c 0
 300.667 569 266 554.667 238 526 c 0
 211.333 498 195.333 461.333 190 416 c 1
 190 0 l 1
 88 0 l 1
EndSplineSet
EndChar
StartChar: n
Encoding: 80 110
OldEncoding: 110
Width: 684
Flags: W
Fore
86 645 m 1
 188 645 l 1
 188 563 l 1
 216 601 240.667 625 262 635 c 1
 294 656.333 337 666 391 664 c 0
 435 664 470 658.333 496 647 c 1
 519.333 634.333 541.667 617.333 563 596 c 1
 580.333 576.667 592 545.333 598 502 c 1
 598 0 l 1
 496 0 l 1
 496 449 l 2
 496 471.667 490.333 493.333 479 514 c 1
 465.667 534 449.333 547.667 430 555 c 1
 413.333 564.333 392.333 569 367 569 c 0
 316.333 569 274 551.333 240 516 c 0
 205.333 481.333 188 423.333 188 342 c 2
 188 0 l 1
 86 0 l 1
 86 645 l 1
EndSplineSet
EndChar
StartChar: o
Encoding: 81 111
OldEncoding: 111
Width: 684
Flags: W
Fore
94 98 m 0
 61.3333 153.333 45 226.333 45 317 c 0
 45 408.333 61.3333 481.667 94 537 c 0
 122 581.667 157 614.333 199 635 c 0
 240.333 654.333 286 664 336 664 c 0
 382.667 664 428.333 653.667 473 633 c 0
 514.333 613 548.333 581 575 537 c 0
 609.667 479.667 627 406.333 627 317 c 0
 627 230.333 609.667 157.333 575 98 c 0
 548.333 54 514.333 22 473 2 c 0
 428.333 -18.6667 382.667 -29 336 -29 c 0
 289.333 -29 243.667 -18.6667 199 2 c 0
 155.667 23.3333 120.667 55.3333 94 98 c 0
336 76 m 0
 369.333 76 399.333 84 426 100 c 0
 452 115.333 472.333 140 487 174 c 0
 509 225.333 520 273 520 317 c 0
 520 365.667 509 414.333 487 463 c 0
 473 495.667 452.667 520.333 426 537 c 1
 396.667 553 366.667 561 336 561 c 0
 304 561 273.333 553.667 244 539 c 0
 212 521.667 189.333 496.333 176 463 c 1
 158 381 l 1
 152.667 360.333 150 339 150 317 c 0
 150 275 160.667 227.333 182 174 c 0
 196 142.667 217.333 118 246 100 c 0
 272 84 302 76 336 76 c 0
EndSplineSet
EndChar
StartChar: p
Encoding: 82 112
OldEncoding: 112
Width: 684
Flags: W
Fore
170 -268 m 1
 66 -268 l 1
 66 645 l 1
 156 645 l 1
 156 563 l 1
 170.667 586.333 200 611.667 244 639 c 0
 271.333 655.667 308 664 354 664 c 0
 400.667 664 443.667 655 483 637 c 0
 531 613.667 568 576.667 594 526 c 0
 623.333 470 639 414 641 358 c 1
 643 311 l 1
 643 261.667 635.667 213.333 621 166 c 0
 606.333 120 585 83 557 55 c 0
 503 -1 440.333 -29 369 -29 c 0
 315 -29 268.333 -16 229 10 c 1
 199 32 179.333 52 170 70 c 1
 170 -268 l 1
471 508 m 0
 440.333 549.333 395.333 569 336 567 c 0
 318.667 567 294.667 560.333 264 547 c 1
 240.667 531 223.667 514 213 496 c 0
 183 447.333 168 392 168 330 c 0
 168 294.667 173.333 258.333 184 221 c 0
 195.333 185.667 207 158.333 219 139 c 1
 236.333 118.333 255.333 103.333 276 94 c 0
 300.667 83.3333 324 78 346 78 c 0
 408 78 453 98.3333 481 139 c 0
 511 181.667 526 239.667 526 313 c 0
 526 392.333 507.667 457.333 471 508 c 0
EndSplineSet
EndChar
StartChar: q
Encoding: 83 113
OldEncoding: 113
Width: 684
Flags: W
Fore
608 -268 m 1
 506 -268 l 1
 506 70 l 1
 496.667 50 476.667 30 446 10 c 0
 406 -16 359 -29 305 -29 c 0
 235.667 -29 173 -1 117 55 c 0
 61 113 33 197 33 307 c 1
 35 358 l 1
 41 419.333 57.3333 475.333 84 526 c 0
 110.667 577.333 146 614.333 190 637 c 0
 227.333 655 270.333 664 319 664 c 0
 365 664 402 655.667 430 639 c 0
 468 615 497.333 589.667 518 563 c 1
 518 645 l 1
 608 645 l 1
 608 -268 l 1
203 508 m 1
 163.667 456.667 145 391 147 311 c 0
 147 240.333 162.333 183 193 139 c 0
 221 98.3333 266 78 328 78 c 0
 353.333 78 377.667 83.3333 401 94 c 0
 420.333 102.667 439 117.667 457 139 c 1
 482.333 176.333 498 224.333 504 283 c 1
 506 328 l 1
 506 388 491.667 444 463 496 c 0
 450.333 516.667 434 533 414 545 c 0
 386 559.667 360.667 567 338 567 c 0
 276 569 231 549.333 203 508 c 1
EndSplineSet
EndChar
StartChar: r
Encoding: 84 114
OldEncoding: 114
Width: 409
Flags: W
Fore
84 0 m 1
 84 645 l 1
 188 645 l 1
 188 545 l 1
 206.667 579 230.667 607.667 260 631 c 0
 286.667 651 312 662 336 664 c 1
 395 664 l 1
 395 555 l 1
 355 555 322.333 550.333 297 541 c 1
 260.333 524.333 233 500.333 215 469 c 1
 197 433.667 188 389.333 188 336 c 2
 188 0 l 1
 84 0 l 1
EndSplineSet
EndChar
StartChar: s
Encoding: 85 115
OldEncoding: 115
Width: 614
Flags: W
Fore
41 190 m 1
 139 190 l 1
 145 164 150 145 154 133 c 0
 158 123.667 167.333 112 182 98 c 1
 196 86.6667 218.667 76 250 66 c 1
 268 62.6667 298.667 61 342 61 c 1
 381.333 68.3333 408 77.3333 422 88 c 0
 432 94 441.667 105.667 451 123 c 0
 459 137 463 151.333 463 166 c 0
 463 206 439.667 233.333 393 248 c 1
 336 262 l 1
 268 279 l 1
 207 295 l 2
 183 301 165.333 307 154 313 c 1
 90.6667 335.667 59 388.333 59 471 c 0
 59 531 82.3333 578 129 612 c 1
 173.667 646.667 229.667 664 297 664 c 0
 452.333 664 532.333 597.667 537 465 c 1
 434 465 l 1
 434 493 424.667 517 406 537 c 1
 386.667 555 347 565 287 567 c 1
 223.667 563 182 540.667 162 500 c 1
 159.333 492 158 481.667 158 469 c 0
 158 439.667 169.667 420 193 410 c 2
 231 393 l 1
 279 381 l 1
 344 362 l 1
 405.333 352 455.333 335.667 494 313 c 0
 540 287.667 563 234.667 563 154 c 1
 559 120 546.667 89.6667 526 63 c 0
 504.667 33 478 11.3333 446 -2 c 0
 411.333 -18 372.667 -27 330 -29 c 0
 283.333 -31 241.667 -28 205 -20 c 0
 95.6667 2 41 72 41 190 c 1
EndSplineSet
EndChar
StartChar: t
Encoding: 86 116
OldEncoding: 116
Width: 342
Flags: W
Fore
211 819 m 1
 211 645 l 1
 311 645 l 1
 311 551 l 1
 211 551 l 1
 211 102 l 2
 211 78 228.667 66 264 66 c 1
 311 70 l 1
 311 -20 l 1
 287 -26 250.333 -29 201 -29 c 1
 169.667 -25 145.667 -12.6667 129 8 c 1
 113.667 30.6667 106 49 106 63 c 2
 106 551 l 1
 16 551 l 1
 16 645 l 1
 106 645 l 1
 106 819 l 1
 211 819 l 1
EndSplineSet
EndChar
StartChar: u
Encoding: 87 117
OldEncoding: 117
Width: 684
Flags: W
Fore
592 0 m 1
 489 0 l 1
 489 70 l 1
 464.333 35.3333 440 11.3333 416 -2 c 1
 378.667 -20 335 -29 285 -29 c 0
 243 -29 208.667 -24 182 -14 c 1
 124 16.6667 90 65 80 131 c 1
 80 645 l 1
 182 645 l 1
 182 188 l 2
 182 143.333 198.333 109.333 231 86 c 1
 251 75.3333 271 70 291 70 c 0
 320.333 70 344 72 362 76 c 1
 412 93.3333 446.333 121.333 465 160 c 0
 481 194.667 489 239.667 489 295 c 2
 489 645 l 1
 592 645 l 1
 592 0 l 1
EndSplineSet
EndChar
StartChar: v
Encoding: 88 118
OldEncoding: 118
Width: 614
Flags: W
Fore
350 0 m 1
 238 0 l 1
 12 645 l 1
 127 645 l 1
 295 123 l 1
 481 645 l 1
 598 645 l 1
 350 0 l 1
EndSplineSet
EndChar
StartChar: w
Encoding: 89 119
OldEncoding: 119
Width: 886
Flags: W
Fore
193 0 m 1
 8 645 l 1
 123 645 l 1
 250 143 l 1
 375 645 l 1
 502 645 l 1
 623 143 l 1
 754 645 l 1
 870 645 l 1
 680 0 l 1
 563 0 l 1
 432 489 l 1
 309 0 l 1
 193 0 l 1
EndSplineSet
EndChar
StartChar: x
Encoding: 90 120
OldEncoding: 120
Width: 614
Flags: W
Fore
303 242 m 1
 137 0 l 1
 20 0 l 1
 248 330 l 1
 35 645 l 1
 152 645 l 1
 307 418 l 1
 463 645 l 1
 580 645 l 1
 360 332 l 1
 582 0 l 1
 465 0 l 1
 303 242 l 1
EndSplineSet
EndChar
StartChar: y
Encoding: 91 121
OldEncoding: 121
Width: 614
Flags: W
Fore
477 645 m 1
 588 645 l 1
 295 -150 l 2
 277 -198.667 247 -232.667 205 -252 c 0
 180.333 -262.667 152.333 -268 121 -268 c 0
 98.3333 -268 79 -263.333 63 -254 c 1
 63 -158 l 1
 79.6667 -164.667 105 -168 139 -168 c 1
 165.667 -164 185.667 -145.667 199 -113 c 1
 236 -10 l 1
 25 645 l 1
 133 645 l 1
 297 158 l 1
 477 645 l 1
EndSplineSet
EndChar
StartChar: z
Encoding: 92 122
OldEncoding: 122
Width: 614
Flags: W
Fore
547 645 m 1
 547 555 l 1
 176 102 l 1
 561 102 l 1
 561 0 l 1
 39 0 l 1
 39 84 l 1
 416 543 l 1
 66 543 l 1
 66 645 l 1
 547 645 l 1
EndSplineSet
EndChar
StartChar: braceleft
Encoding: 93 123
OldEncoding: 123
Width: 409
Flags: W
Fore
53 274 m 1
 53 360 l 1
 93 369.333 119 387.333 131 414 c 0
 143.667 441.333 150 482.333 150 537 c 2
 150 745 l 2
 150 786.333 161.333 822 184 852 c 1
 208.667 880.667 230.667 895 250 895 c 2
 340 899 l 1
 340 817 l 1
 285 811 l 2
 269 809 258 802.333 252 791 c 0
 245.333 776.333 242 757 242 733 c 2
 242 514 l 2
 242 460.667 232.333 418.333 213 387 c 0
 197.667 362.333 177.333 339 152 317 c 1
 172 303.667 191.667 282.667 211 254 c 0
 231.667 222 242 177.667 242 121 c 2
 242 -96 l 2
 242 -121.333 245.333 -141.333 252 -156 c 0
 258 -167.333 269 -174 285 -176 c 2
 340 -182 l 1
 340 -262 l 1
 250 -260 l 2
 230 -260 208 -245 184 -215 c 0
 161.333 -187 150 -152.333 150 -111 c 2
 150 100 l 2
 150 154.667 143.667 195.667 131 223 c 0
 117.667 249 91.6667 266 53 274 c 1
EndSplineSet
EndChar
StartChar: bar
Encoding: 94 124
OldEncoding: 124
Width: 319
Flags: W
Fore
197 895 m 1
 197 -264 l 1
 123 -264 l 1
 123 895 l 1
 197 895 l 1
EndSplineSet
EndChar
StartChar: braceright
Encoding: 95 125
OldEncoding: 125
Width: 409
Flags: W
Fore
322 360 m 1
 322 274 l 1
 281.333 266 255.333 249 244 223 c 0
 231.333 197.667 225 156.667 225 100 c 2
 225 -111 l 2
 225 -137.667 219.667 -162.667 209 -186 c 0
 201 -201.333 187.333 -219.333 168 -240 c 1
 155.333 -251.333 141 -258 125 -260 c 1
 35 -262 l 1
 35 -182 l 1
 90 -176 l 2
 107.333 -174 119 -166.667 125 -154 c 0
 130.333 -142.667 133 -123.333 133 -96 c 2
 133 121 l 2
 133 179 144 222.667 166 252 c 1
 186.667 283.333 205.667 305 223 317 c 1
 207 334 l 1
 192.333 346 180.667 360.333 172 377 c 1
 158.667 396.333 149 416 143 436 c 0
 136.333 461.333 133 487.333 133 514 c 2
 133 733 l 2
 133 760.333 130.333 779.667 125 791 c 0
 119.667 802.333 108 809 90 811 c 2
 35 817 l 1
 35 899 l 1
 125 895 l 1
 141 893 155.333 886 168 874 c 0
 186.667 855.333 200.333 837.667 209 821 c 0
 219.667 797.667 225 772.333 225 745 c 2
 225 537 l 2
 225 480.333 231.333 439.333 244 414 c 0
 256 387.333 282 369.333 322 360 c 1
EndSplineSet
EndChar
StartChar: asciitilde
Encoding: 96 126
OldEncoding: 126
Width: 716
Flags: W
Fore
158 358 m 1
 92 358 l 1
 94 421.333 107.667 467.333 133 496 c 0
 160.333 524.667 190.333 539 223 539 c 0
 247.667 539 269 533.333 287 522 c 2
 449 426 l 2
 465.667 416.667 482 412 498 412 c 0
 512.667 412 525.667 416 537 424 c 1
 551.667 436.667 559 464 559 506 c 1
 623 506 l 1
 623 454 610.667 411 586 377 c 0
 563.333 344.333 532.667 328 494 328 c 0
 461.333 328 429 338 397 358 c 2
 266 442 l 1
 252.667 454.667 238.333 461 223 461 c 0
 203.667 461 188 451.333 176 432 c 0
 164 414 158 389.333 158 358 c 1
EndSplineSet
EndChar
StartChar: exclamdown
Encoding: 98 161
OldEncoding: 161
Width: 250
Flags: W
Fore
186 638 m 1
 186 524 l 1
 62 524 l 1
 62 638 l 1
 186 638 l 1
160 435 m 1
 190 1 l 1
 190 -180 l 1
 60 -180 l 1
 60 1 l 1
 87 435 l 1
 160 435 l 1
EndSplineSet
EndChar
StartChar: cent
Encoding: 99 162
OldEncoding: 162
Width: 594
Flags: W
Fore
398 533 m 1
 268 85 l 1
 303 80 l 1
 393 80 446.333 132 463 236 c 1
 567 225 l 1
 555.667 157 526.667 101.667 480 59 c 0
 433.333 15.6667 375 -6 305 -6 c 0
 283 -6 263 -3.33333 245 2 c 1
 176 -230 l 1
 111 -210 l 1
 179 22 l 1
 77.6667 74.6667 27 172.667 27 316 c 0
 27 410.667 48.3333 487.333 91 546 c 1
 141 611.333 211 644 301 644 c 1
 359 640 l 1
 425 866 l 1
 489 847 l 1
 424 620 l 1
 496 591.333 539.667 534 555 448 c 1
 453 432 l 1
 443 476 424.667 509.667 398 533 c 1
335 545 m 1
 306 547 l 2
 191.333 550.333 134 471 134 309 c 0
 134 206.333 158 136.667 206 100 c 1
 335 545 l 1
EndSplineSet
EndChar
StartChar: sterling
Encoding: 100 163
OldEncoding: 163
Width: 504
Flags: W
Fore
182 353 m 1
 322 353 l 1
 322 285 l 1
 195 285 l 1
 201 273.667 204 261 204 247 c 0
 204 189 177.667 132.333 125 77 c 1
 149.667 83.6667 171 87 189 87 c 0
 214.333 87 242 83 272 75 c 0
 323.333 62.3333 357.667 56 375 56 c 0
 396.333 56 425 64.3333 461 81 c 1
 486 9 l 1
 441.333 -9.66667 405.667 -19 379 -19 c 1
 340 -15 l 1
 284 0 l 1
 225 17 l 1
 184 20 l 1
 136 20 91.3333 6.33333 50 -21 c 1
 18 56 l 1
 86 95.3333 120 153.333 120 230 c 1
 113 285 l 1
 27 285 l 1
 27 353 l 1
 93 353 l 1
 79 401.667 72 440.667 72 470 c 0
 72 526.667 91.3333 572 130 606 c 0
 166.667 640 214 657 272 657 c 0
 386.667 657 452.333 600.333 469 487 c 1
 391 475 l 1
 378.333 552.333 338.667 591 272 591 c 0
 240.667 591 213.333 580 190 558 c 0
 168 538 157 512.333 157 481 c 0
 157 449.667 165.333 407 182 353 c 1
EndSplineSet
EndChar
StartChar: currency
Encoding: 101 164
OldEncoding: 164
Width: 597
Flags: W
Fore
94 420 m 1
 14 492 l 1
 80 557 l 1
 160 482 l 1
 200.667 507.333 246 520 296 520 c 0
 345.333 520 390 507.333 430 482 c 1
 510 557 l 1
 575 492 l 1
 497 420 l 1
 523.667 380.667 537 339 537 295 c 0
 537 249 523.667 207 497 169 c 1
 575 95 l 1
 510 32 l 1
 430 108 l 1
 390 80.6667 345.333 67 296 67 c 0
 244.667 67 199.333 80.6667 160 108 c 1
 80 32 l 1
 14 95 l 1
 94 169 l 1
 67.3333 207 54 249 54 295 c 0
 54 339 67.3333 380.667 94 420 c 1
147 295 m 0
 147 255 161 221.667 189 195 c 0
 217.667 168.333 252.667 155 294 155 c 0
 336 155 371 168.333 399 195 c 0
 427.667 221.667 442 255 442 295 c 0
 442 333 427.667 365.333 399 392 c 0
 369.667 419.333 334.667 433 294 433 c 0
 252.667 433 218 419.333 190 392 c 0
 161.333 365.333 147 333 147 295 c 0
EndSplineSet
EndChar
StartChar: yen
Encoding: 102 165
OldEncoding: 165
Width: 745
Flags: W
Fore
320 1 m 1
 320 187 l 1
 72 187 l 1
 72 268 l 1
 320 268 l 1
 320 349 l 1
 72 349 l 1
 72 435 l 1
 276 435 l 1
 34 840 l 1
 152 840 l 1
 326 544 l 1
 371 458 l 1
 419 551 l 1
 584 840 l 1
 711 840 l 1
 469 435 l 1
 673 435 l 1
 673 349 l 1
 427 349 l 1
 427 268 l 1
 673 268 l 1
 673 187 l 1
 427 187 l 1
 427 1 l 1
 320 1 l 1
EndSplineSet
EndChar
StartChar: brokenbar
Encoding: 103 166
OldEncoding: 166
Width: 151
Flags: W
Fore
114 644 m 1
 114 262 l 1
 26 262 l 1
 26 644 l 1
 114 644 l 1
114 95 m 1
 114 -287 l 1
 26 -287 l 1
 26 95 l 1
 114 95 l 1
EndSplineSet
EndChar
StartChar: section
Encoding: 104 167
OldEncoding: 167
Width: 670
Flags: W
Fore
71 -19 m 1
 185 -5 l 1
 203.667 -89 257 -131 345 -131 c 0
 381 -131 412 -123.333 438 -108 c 0
 468 -91.3333 483 -68 483 -38 c 0
 483 -7.33333 450.333 28.3333 385 69 c 1
 245 145 l 2
 179 180.333 132 210 104 234 c 0
 56 274.667 32 319 32 367 c 0
 32 444.333 79 495 173 519 c 1
 119 562.333 92 607.333 92 654 c 0
 92 706 116 748.333 164 781 c 0
 208.667 811 244 829.333 270 836 c 0
 284 839.333 298.333 841 313 841 c 0
 423.667 841 502.333 805.333 549 734 c 2
 550 733 l 2
 568 705 579.667 673 585 637 c 1
 469 627 l 1
 453 705.667 407.333 745 332 745 c 0
 300.667 745 271.667 738 245 724 c 1
 217.667 706.667 204 684.667 204 658 c 0
 204 628.667 232.667 595 290 557 c 1
 420 487 l 2
 492.667 449 541.333 420.333 566 401 c 0
 614 361.667 638 318 638 270 c 0
 638 200.667 591 148.667 497 114 c 1
 563.667 71.3333 597 21.3333 597 -36 c 0
 597 -92.6667 570.667 -137.667 518 -171 c 0
 471.333 -199.667 414.667 -214 348 -214 c 0
 188 -214 95.6667 -149 71 -19 c 1
438 150 m 1
 500 178 531 211.667 531 251 c 0
 531 294.333 473 346.333 357 407 c 0
 305.667 435 263 460.333 229 483 c 1
 165.667 452.333 134 417 134 377 c 0
 134 333.667 187.333 284.667 294 230 c 0
 360.667 196 408.667 169.333 438 150 c 1
EndSplineSet
EndChar
StartChar: dieresis
Encoding: 105 168
OldEncoding: 168
Width: 406
Flags: W
Fore
22 757 m 1
 22 870 l 1
 145 870 l 1
 145 757 l 1
 22 757 l 1
263 757 m 1
 263 870 l 1
 384 870 l 1
 384 757 l 1
 263 757 l 1
EndSplineSet
EndChar
StartChar: copyright
Encoding: 106 169
OldEncoding: 169
Width: 751
Flags: W
Fore
375 704 m 0
 471 704 551.667 669.333 617 600 c 1
 683 532.667 716 448.333 716 347 c 0
 716 249 682.667 165.333 616 96 c 0
 550 26 469.667 -9 375 -9 c 0
 279.667 -9 199.333 25.3333 134 94 c 0
 68 163.333 35 247.667 35 347 c 0
 35 448.333 67.3333 533.333 132 602 c 0
 198 670 279 704 375 704 c 0
375 647 m 0
 295.667 647 228.333 618 173 560 c 0
 117.667 502 90 431 90 347 c 0
 90 263.667 117.667 193.667 173 137 c 0
 228.333 80.3333 295.667 52 375 52 c 0
 455 52 522 80.3333 576 137 c 0
 631.333 193.667 659 263.667 659 347 c 0
 659 429.667 631.333 500 576 558 c 0
 520.667 617.333 453.667 647 375 647 c 0
484 290 m 1
 540 273 l 1
 517.333 187 462.333 144 375 144 c 0
 318.333 144 274.333 163 243 201 c 0
 211.667 238.333 196 287 196 347 c 0
 196 407.667 212.333 456.333 245 493 c 0
 277.667 530.333 322.667 549 380 549 c 0
 459.333 549 510.333 511.333 533 436 c 1
 479 423 l 1
 459.667 471 426 495 378 495 c 0
 338.667 495 308 479.667 286 449 c 0
 267.333 421.667 258 387 258 345 c 0
 258 248.333 296.333 200 373 200 c 0
 431.667 200 468.667 230 484 290 c 1
EndSplineSet
EndChar
StartChar: ordfeminine
Encoding: 107 170
OldEncoding: 170
Width: 304
Flags: W
Fore
217 606 m 1
 185.667 576 152 561 116 561 c 0
 52 561 20 591.667 20 653 c 0
 20 692.333 38.6667 719.333 76 734 c 1
 116 743 l 1
 174 752 l 1
 212 761 l 1
 212 803 191.333 824 150 824 c 0
 110.667 824 88.6667 807 84 773 c 1
 30 786 l 1
 40 844.667 80 874 150 874 c 0
 228.667 874 268 840.333 268 773 c 2
 268 646 l 1
 267.333 608.667 272.667 582.667 284 568 c 1
 226 568 l 1
 220 580.667 217 593.333 217 606 c 1
212 711 m 1
 133 696 l 1
 96.3333 687.333 78 673 78 653 c 0
 78 625 95 611 129 611 c 0
 184.333 611 212 644.333 212 711 c 1
EndSplineSet
EndChar
StartChar: guillemotleft
Encoding: 108 171
OldEncoding: 171
Width: 680
Flags: W
Fore
188 314 m 1
 364 0 l 1
 265 0 l 1
 47 314 l 1
 265 628 l 1
 366 628 l 1
 188 314 l 1
453 314 m 1
 633 0 l 1
 528 0 l 1
 314 314 l 1
 528 628 l 1
 633 628 l 1
 453 314 l 1
EndSplineSet
EndChar
StartChar: logicalnot
Encoding: 109 172
OldEncoding: 172
Width: 504
Flags: W
Fore
471 406 m 1
 394 406 l 1
 394 540 l 1
 33 540 l 1
 33 591 l 1
 471 591 l 1
 471 406 l 1
EndSplineSet
EndChar
StartChar: uni00AD
Encoding: 110 173
OldEncoding: 173
Width: 256
Flags: W
Fore
24 271 m 1
 24 333 l 1
 231 333 l 1
 231 271 l 1
 24 271 l 1
EndSplineSet
EndChar
StartChar: registered
Encoding: 111 174
OldEncoding: 174
Width: 962
Flags: W
Fore
909 399 m 0
 909 341 898.333 287.333 877 238 c 0
 855.667 185.333 825.333 139.333 786 100 c 0
 750.667 64 705 33.3333 649 8 c 0
 597.667 -14 543 -25 485 -25 c 0
 408.333 -25 337.333 -5.66667 272 33 c 0
 206.667 69.6667 155.667 120.667 119 186 c 0
 80.3333 253.333 61 324.333 61 399 c 0
 61 455.667 72 510.333 94 563 c 0
 119.333 619 150 664.667 186 700 c 0
 225.333 739.333 271.333 769.667 324 791 c 0
 373.333 812.333 427 823 485 823 c 0
 543 823 597.667 812.333 649 791 c 1
 706.333 765 752 734.667 786 700 c 0
 820.667 666 851 620.333 877 563 c 1
 898.333 511.667 909 457 909 399 c 0
860 399 m 0
 860 448.333 850.333 497 831 545 c 0
 813.667 587 786.667 626.667 750 664 c 0
 712.667 700.667 673 727.667 631 745 c 0
 583 764.333 534.333 774 485 774 c 0
 417.667 774 355.667 757.667 299 725 c 1
 241.667 689.667 196 643.333 162 586 c 0
 128 528 111 465 111 397 c 0
 111 329.667 128 268.333 162 213 c 0
 196.667 156.333 242.333 110.667 299 76 c 0
 354.333 42 416.333 25 485 25 c 0
 553 25 615.333 42 672 76 c 0
 729.333 110 775.667 155.667 811 213 c 1
 843.667 269.667 860 331.667 860 399 c 0
422 403 m 1
 422 244 l 2
 422 220.667 441 209 479 209 c 1
 479 186 l 1
 283 186 l 1
 283 209 l 1
 323.667 209 344 219.333 344 240 c 2
 344 594 l 2
 344 612.667 341.333 623.667 336 627 c 0
 328 629.667 312.333 631 289 631 c 1
 289 653 l 1
 494 653 l 2
 535.333 653 567.333 649 590 641 c 1
 622 626.333 643 610 653 592 c 0
 661.667 578.667 666 561 666 539 c 0
 666 501.667 653.667 471.667 629 449 c 1
 600.333 427.667 571.667 416 543 414 c 1
 690 225 l 2
 698.667 214.333 713 209 733 209 c 1
 733 186 l 1
 616 186 l 1
 455 403 l 1
 422 403 l 1
420 602 m 1
 422 432 l 1
 462 432 491.333 434.667 510 440 c 1
 561.333 460 586 494.333 584 543 c 0
 584 569.667 575 589.333 557 602 c 1
 540.333 616 525.333 623 512 623 c 2
 446 627 l 2
 430.667 627 422 618.667 420 602 c 1
EndSplineSet
EndChar
StartChar: macron
Encoding: 112 175
OldEncoding: 175
Width: 249
Flags: W
Fore
11 840 m 1
 11 880 l 1
 238 880 l 1
 238 840 l 1
 11 840 l 1
EndSplineSet
EndChar
StartChar: degree
Encoding: 113 176
OldEncoding: 176
Width: 265
Flags: W
Fore
17 793 m 0
 17 825 28 852.667 50 876 c 0
 72.6667 898 100 909 132 909 c 0
 164.667 909 192.333 898 215 876 c 0
 237 852.667 248 825 248 793 c 0
 248 760.333 237 732.667 215 710 c 0
 191.667 688 164 677 132 677 c 0
 100 677 72.6667 688 50 710 c 0
 28 732.667 17 760.333 17 793 c 0
62 793 m 0
 62 773.667 69 757 83 743 c 0
 97 729 113.333 722 132 722 c 0
 151.333 722 168 729 182 743 c 0
 196 757 203 773.667 203 793 c 0
 203 812.333 196 829 182 843 c 0
 168 857.667 151.333 865 132 865 c 0
 113.333 865 97 858 83 844 c 0
 69 829.333 62 812.333 62 793 c 0
EndSplineSet
EndChar
StartChar: plusminus
Encoding: 114 177
OldEncoding: 177
Width: 628
Flags: W
Fore
262 164 m 1
 262 415 l 1
 16 415 l 1
 16 519 l 1
 262 519 l 1
 262 767 l 1
 366 767 l 1
 366 519 l 1
 612 519 l 1
 612 415 l 1
 366 415 l 1
 366 164 l 1
 262 164 l 1
612 0 m 1
 16 0 l 1
 16 106 l 1
 612 106 l 1
 612 0 l 1
EndSplineSet
EndChar
StartChar: twosuperior
Encoding: 115 178
OldEncoding: 178
Width: 214
Flags: W
Fore
23 583 m 1
 25.6667 610.333 48 643.667 90 683 c 2
 125 714 l 1
 139.667 729.333 147 743 147 755 c 0
 147 780.333 135 793 111 793 c 0
 87.6667 793 73.6667 780.333 69 755 c 1
 29 760 l 1
 38.3333 807.333 66 831 112 831 c 0
 162.667 831 188 808.667 188 764 c 0
 188 741.333 180 720 164 700 c 0
 156.667 691.333 141.333 676.667 118 656 c 0
 104.667 643.333 94 632 86 622 c 1
 191 622 l 1
 191 583 l 1
 23 583 l 1
EndSplineSet
EndChar
StartChar: threesuperior
Encoding: 116 179
OldEncoding: 179
Width: 208
Flags: W
Fore
16 661 m 1
 58 665 l 1
 64 642.333 78.6667 631 102 631 c 0
 132 631 147 644.667 147 672 c 0
 147 695.333 132 707 102 707 c 1
 92 705 l 1
 86 705 l 1
 92 740 l 1
 122 740 137 750.333 137 771 c 0
 137 789.667 125.333 799 102 799 c 0
 82.6667 799 69 788.667 61 768 c 1
 20 775 l 1
 32.6667 814.333 60 834 102 834 c 0
 155.333 834 182 814.333 182 775 c 0
 182 751.667 169 735.333 143 726 c 1
 175.667 716.667 192 696.333 192 665 c 0
 192 642.333 182.333 624.667 163 612 c 0
 146.333 600 127 594 105 594 c 0
 53 594 23.3333 616.333 16 661 c 1
EndSplineSet
EndChar
StartChar: acute
Encoding: 117 180
OldEncoding: 180
Width: 205
Flags: W
Fore
24 769 m 1
 87 872 l 1
 199 872 l 1
 94 769 l 1
 24 769 l 1
EndSplineSet
EndChar
StartChar: mu
Encoding: 118 181
OldEncoding: 181
Width: 538
Flags: W
Fore
507 628 m 1
 507 9 l 1
 418 9 l 1
 418 82 l 1
 386 23.3333 337.333 -6 272 -6 c 0
 215.333 -6 169 19.6667 133 71 c 1
 133 -229 l 1
 34 -229 l 1
 34 628 l 1
 133 628 l 1
 133 365 l 2
 133 279 137.667 219.333 147 186 c 0
 165.667 121.333 205.667 89 267 89 c 0
 331 89 373 120.667 393 184 c 0
 404.333 218.667 410 278.333 410 363 c 2
 410 628 l 1
 507 628 l 1
EndSplineSet
EndChar
StartChar: paragraph
Encoding: 119 182
OldEncoding: 182
Width: 683
Flags: W
Fore
254 -144 m 1
 254 439 l 1
 186.667 439 131 458 87 496 c 0
 43.6667 534.667 22 583.667 22 643 c 0
 22 713 47.6667 767 99 805 c 1
 147 838.333 212.333 855 295 855 c 2
 661 855 l 1
 661 769 l 1
 577 769 l 1
 577 -144 l 1
 479 -144 l 1
 479 769 l 1
 350 769 l 1
 350 -144 l 1
 254 -144 l 1
EndSplineSet
EndChar
StartChar: periodcentered
Encoding: 120 183
OldEncoding: 183
Width: 120
Flags: W
Fore
19 412 m 1
 19 504 l 1
 105 504 l 1
 105 412 l 1
 19 412 l 1
EndSplineSet
EndChar
StartChar: cedilla
Encoding: 121 184
OldEncoding: 184
Width: 265
Flags: W
Fore
74 -52 m 1
 103 26 l 1
 176 26 l 1
 158 -22 l 1
 218.667 -27.3333 249 -49 249 -87 c 0
 249 -115.667 231 -137.667 195 -153 c 0
 167 -165 133.667 -171 95 -171 c 0
 65.6667 -171 39.3333 -169 16 -165 c 1
 22 -114 l 1
 72 -116 l 2
 130.667 -117.333 160 -105.667 160 -81 c 0
 160 -61.6667 131.333 -52 74 -52 c 1
EndSplineSet
EndChar
StartChar: onesuperior
Encoding: 122 185
OldEncoding: 185
Width: 185
Flags: W
Fore
106 558 m 1
 106 741 l 1
 83.3333 723.667 58 711.333 30 704 c 1
 30 744 l 1
 64 756 93.3333 777 118 807 c 1
 155 807 l 1
 155 558 l 1
 106 558 l 1
EndSplineSet
EndChar
StartChar: ordmasculine
Encoding: 123 186
OldEncoding: 186
Width: 268
Flags: W
Fore
133 849 m 0
 170.333 849 199.667 835.667 221 809 c 0
 240.333 783.667 250 751.667 250 713 c 0
 250 674.333 240.333 642.333 221 617 c 0
 199.667 590.333 170.333 577 133 577 c 0
 97 577 68 590.333 46 617 c 0
 27.3333 641 18 672.333 18 711 c 0
 18 750.333 27.3333 782.333 46 807 c 0
 66.6667 835 95.6667 849 133 849 c 0
133 800 m 0
 90.3333 800 69 771 69 713 c 0
 69 654.333 90.3333 625 133 625 c 0
 175.667 625 197 654.667 197 714 c 0
 197 771.333 175.667 800 133 800 c 0
EndSplineSet
EndChar
StartChar: guillemotright
Encoding: 124 187
OldEncoding: 187
Width: 680
Flags: W
Fore
492 315 m 1
 316 1 l 1
 415 1 l 1
 633 315 l 1
 415 629 l 1
 314 629 l 1
 492 315 l 1
227 315 m 1
 47 1 l 1
 152 1 l 1
 366 315 l 1
 152 629 l 1
 47 629 l 1
 227 315 l 1
EndSplineSet
EndChar
StartChar: onequarter
Encoding: 125 188
OldEncoding: 188
Width: 1081
Flags: W
Fore
150 -36 m 1
 819 776 l 1
 915 776 l 1
 246 -36 l 1
 150 -36 l 1
198 379 m 1
 198 670 l 1
 158.667 642.667 113.667 623 63 611 c 1
 63 677 l 1
 123.667 694.333 176.667 726.667 222 774 c 1
 287 774 l 1
 287 379 l 1
 198 379 l 1
865 -23 m 1
 865 59 l 1
 632 59 l 1
 632 125 l 1
 880 372 l 1
 954 372 l 1
 954 116 l 1
 1017 116 l 1
 1017 59 l 1
 954 59 l 1
 954 -23 l 1
 865 -23 l 1
865 116 m 1
 865 253 l 1
 726 116 l 1
 865 116 l 1
EndSplineSet
EndChar
StartChar: onehalf
Encoding: 126 189
OldEncoding: 189
Width: 1080
Flags: W
Fore
151 -36 m 1
 820 777 l 1
 916 777 l 1
 247 -36 l 1
 151 -36 l 1
199 379 m 1
 199 670 l 1
 159.667 642.667 114.667 623 64 611 c 1
 64 677 l 1
 124.667 694.333 177.667 726.667 223 774 c 1
 288 774 l 1
 288 379 l 1
 199 379 l 1
694 -39 m 1
 694 3 735.667 56.3333 819 121 c 0
 887 173.667 921 211.667 921 235 c 0
 921 273.667 898.333 293 853 293 c 0
 816.333 293 791.667 273.667 779 235 c 1
 705 241 l 1
 723 317 772.667 355 854 355 c 0
 950.667 355 999 319.333 999 248 c 0
 999 213.333 984.333 179.333 955 146 c 1
 870 75 l 1
 810 26 l 1
 1001 26 l 1
 1001 -39 l 1
 694 -39 l 1
EndSplineSet
EndChar
StartChar: threequarters
Encoding: 127 190
OldEncoding: 190
Width: 1081
Flags: W
Fore
34 484 m 1
 115 491 l 1
 125.667 451.667 153.333 432 198 432 c 0
 255.333 432 284 455.667 284 503 c 0
 284 542.333 255.333 562 198 562 c 1
 179 559 l 1
 167 559 l 1
 179 618 l 1
 236.333 618 265 636.333 265 673 c 0
 265 704.333 242.667 720 198 720 c 0
 160.667 720 134.667 702.667 120 668 c 1
 42 680 l 1
 66.6667 747.333 118.667 781 198 781 c 0
 300 781 351 747.333 351 680 c 0
 351 639.333 326 611 276 595 c 1
 338.667 579 370 544.333 370 491 c 0
 370 451.667 351.667 421 315 399 c 0
 283 378.333 246 368 204 368 c 0
 105.333 368 48.6667 406.667 34 484 c 1
150 -36 m 1
 819 776 l 1
 915 776 l 1
 246 -36 l 1
 150 -36 l 1
865 -23 m 1
 865 59 l 1
 632 59 l 1
 632 125 l 1
 880 372 l 1
 954 372 l 1
 954 116 l 1
 1017 116 l 1
 1017 59 l 1
 954 59 l 1
 954 -23 l 1
 865 -23 l 1
865 116 m 1
 865 253 l 1
 726 116 l 1
 865 116 l 1
EndSplineSet
EndChar
StartChar: questiondown
Encoding: 128 191
OldEncoding: 191
Width: 548
Flags: W
Fore
328 581 m 1
 328 467 l 1
 220 467 l 1
 220 581 l 1
 328 581 l 1
321 380 m 1
 321 352 l 2
 321 296.667 311.333 251.333 292 216 c 0
 277.333 189.333 247 155.333 201 114 c 0
 148.333 66.6667 122 22.6667 122 -18 c 0
 122 -59.3333 136.667 -94 166 -122 c 0
 196 -150.667 231 -165 271 -165 c 0
 357.667 -165 409.333 -110.333 426 -1 c 1
 525 -13 l 1
 504.333 -169.667 420.333 -248 273 -248 c 0
 205.667 -248 148.333 -229 101 -191 c 0
 49 -149.667 23 -94.3333 23 -25 c 0
 23 40.3333 62.3333 109.667 141 183 c 0
 178.333 218.333 202.333 246.333 213 267 c 0
 224.333 291.667 230 329.333 230 380 c 1
 321 380 l 1
EndSplineSet
EndChar
StartChar: caron
Encoding: 129 711
OldEncoding: 711
Width: 1228
Flags: W
Fore
614 1008 m 1
 342 1214 l 1
 319 1237 l 1
 315 1255 l 1
 315 1268.33 320 1278.67 330 1286 c 1
 338 1294 347.333 1298 358 1298 c 0
 366.667 1298 378.333 1292.67 393 1282 c 2
 614 1112 l 1
 836 1280 l 1
 850 1292 861.333 1298 870 1298 c 0
 882.667 1298 893 1294 901 1286 c 0
 909 1278 913 1267.67 913 1255 c 0
 913 1243 903.667 1229.33 885 1214 c 1
 614 1008 l 1
EndSplineSet
EndChar
StartChar: ring
Encoding: 130 730
OldEncoding: 730
Width: 1228
Flags: W
Fore
795 1186 m 0
 795 1138.67 777 1097 741 1061 c 0
 707 1025.67 664.667 1008 614 1008 c 0
 563.333 1008 520.333 1025.67 485 1061 c 0
 449.667 1097.67 432 1139.33 432 1186 c 0
 432 1234 449.667 1276.33 485 1313 c 0
 519 1347 562 1364 614 1364 c 0
 665.333 1364 707.667 1347 741 1313 c 0
 777 1277 795 1234.67 795 1186 c 0
735 1186 m 0
 735 1218.67 723.333 1246.67 700 1270 c 0
 674.667 1293.33 646 1305 614 1305 c 0
 581.333 1305 552.667 1293.33 528 1270 c 0
 504 1247.33 492 1219.33 492 1186 c 0
 492 1155.33 504 1128 528 1104 c 0
 552.667 1079.33 581.333 1067 614 1067 c 0
 647.333 1067 676 1079.33 700 1104 c 1
 723.333 1126 735 1153.33 735 1186 c 0
EndSplineSet
EndChar
StartChar: uni0E01
Encoding: 131 3585
OldEncoding: 3585
Width: 743
Flags: W
Fore
43 547 m 1
 61.6667 574.333 98 608.333 152 649 c 0
 206.667 689 275.333 709 358 709 c 0
 408 709 455.333 700.667 500 684 c 0
 541.333 668.667 574.667 643.333 600 608 c 0
 624.667 573.333 637 531.667 637 483 c 2
 637 0 l 1
 551 0 l 1
 551 483 l 2
 551 515.667 542 542.333 524 563 c 1
 508 586.333 485.667 604 457 616 c 0
 429 628.667 396.667 635 360 635 c 0
 286.667 635 223.333 612.333 170 567 c 1
 180.667 565 201 557.667 231 545 c 0
 259.667 532.333 286.333 514.667 311 492 c 1
 291 486.667 268.667 474.333 244 455 c 0
 215.333 434.333 201 399.333 201 350 c 2
 201 0 l 1
 115 0 l 1
 115 346 l 2
 115 385.333 122.333 416.667 137 440 c 1
 154.333 461.333 174.333 477 197 487 c 1
 185.667 496.333 167.667 507.333 143 520 c 0
 115 536 81.6667 545 43 547 c 1
EndSplineSet
EndChar
StartChar: uni0E02
Encoding: 132 3586
OldEncoding: 3586
Width: 755
Flags: W
Fore
248 709 m 0
 290 709 326.667 700.667 358 684 c 0
 389.333 666 414 643.333 432 616 c 0
 448.667 590.667 457 562 457 530 c 0
 457 502 454.333 481.667 449 469 c 1
 424 422 l 1
 410 399.333 401 383.667 397 375 c 0
 391.667 361.667 389 339 389 307 c 2
 389 74 l 1
 500 74 l 2
 527.333 74 545 78 553 86 c 0
 559.667 92.6667 563 108.333 563 133 c 2
 563 696 l 1
 649 696 l 1
 649 133 l 2
 649 77.6667 639.667 41.6667 621 25 c 0
 600.333 8.33333 560 8.67362e-19 500 0 c 2
 217 0 l 1
 217 74 l 1
 303 74 l 1
 303 319 l 2
 303 346.333 305.667 366.333 311 379 c 0
 314.333 389 322.667 404 336 424 c 0
 349.333 441.333 359 456.333 365 469 c 0
 371 483 375 501.333 377 524 c 1
 377 560 366 588.667 344 610 c 0
 322.667 632 295.333 643 262 643 c 1
 231 639 l 1
 242.333 637 257.333 627.333 276 610 c 0
 296 593.333 305 564.667 303 524 c 0
 303 488.667 289.333 460.667 262 440 c 0
 236 420 201.333 410 158 410 c 1
 81.3333 420 43 471 43 563 c 1
 49 607 73.6667 642.667 117 670 c 0
 160.333 696 204 709 248 709 c 0
176 602 m 0
 154.667 602 139 596 129 584 c 0
 118.333 570 113 555 113 539 c 0
 113 523 118.333 508.667 129 496 c 1
 138.333 482 154 475 176 475 c 0
 198 475 213.667 482 223 496 c 1
 234.333 509.333 240 523.667 240 539 c 0
 240 554.333 234.333 569.333 223 584 c 0
 213 596 197.333 602 176 602 c 0
EndSplineSet
EndChar
StartChar: uni0E03
Encoding: 133 3587
OldEncoding: 3587
Width: 802
Flags: W
Fore
500 578 m 0
 500 562 497.333 550.333 492 543 c 2
 469 516 l 1
 460.333 508.667 452 499 444 487 c 0
 438.667 478.333 436 464 436 444 c 2
 436 74 l 1
 547 74 l 2
 575 74 592 78 598 86 c 1
 606 92 610 107.667 610 133 c 2
 610 696 l 1
 696 696 l 1
 696 133 l 2
 696 77.6667 686.667 41.6667 668 25 c 0
 649.333 8.33333 609 8.67362e-19 547 0 c 2
 264 0 l 1
 264 74 l 1
 350 74 l 1
 350 449 l 2
 350 474.333 352.667 493.333 358 506 c 0
 364 516 371.667 526.333 381 537 c 1
 414 561 l 2
 422 567 426 574.667 426 584 c 0
 426 596 419.333 609 406 623 c 1
 390 636.333 377 643.667 367 645 c 1
 283 588 l 1
 184 645 l 1
 155.333 639 133.667 624 119 600 c 1
 102.333 578.667 94 558.333 94 539 c 1
 95.3333 541 102.333 545.667 115 553 c 0
 123.667 558.333 138.667 561 160 561 c 0
 195.333 559 225.333 548.667 250 530 c 0
 274.667 509.333 287 478 287 436 c 0
 287 398.667 273.333 368 246 344 c 0
 219.333 322 190 311 158 311 c 0
 116 311 81 326.667 53 358 c 0
 25.6667 390 12 431.667 12 483 c 0
 12 518.333 17 547.667 27 571 c 1
 37 611 60.6667 644.667 98 672 c 0
 134 696.667 165.667 709 193 709 c 1
 283 653 l 1
 362 709 l 1
 397.333 697.667 429 681 457 659 c 0
 485.667 636.333 500 609.333 500 578 c 0
158 502 m 0
 138 502 123 495.667 113 483 c 1
 100.333 471 94 456 94 438 c 0
 94 422 100.333 407.667 113 395 c 1
 122.333 381.667 137.333 375 158 375 c 0
 179.333 375 195 381 205 393 c 1
 215.667 409 221 424 221 438 c 0
 221 455.333 215.667 470.333 205 483 c 0
 195 495.667 179.333 502 158 502 c 0
EndSplineSet
EndChar
StartChar: uni0E04
Encoding: 134 3588
OldEncoding: 3588
Width: 751
Flags: W
Fore
135 461 m 0
 135 437 142.667 409 158 377 c 0
 171.333 348.333 180 323.667 184 303 c 1
 184 369 l 2
 184 419 197 460.667 223 494 c 0
 250.333 526.667 288.667 543 338 543 c 0
 376.667 543 407.333 530.667 430 506 c 0
 452 482 463 452 463 416 c 0
 463 380 452 350.667 430 328 c 0
 408 303.333 377.333 291 338 291 c 0
 302 291 276 299 260 315 c 1
 260 0 l 1
 176 0 l 1
 176 125 l 2
 176 156.333 171.333 183.667 162 207 c 0
 153.333 226.333 137 255 113 293 c 0
 93 323.667 77.3333 353 66 381 c 1
 56 401 51 429 51 465 c 0
 51 517 65.3333 562 94 600 c 0
 123.333 640 161 668.667 207 686 c 1
 253 705.333 301.333 715 352 715 c 0
 429.333 715 497.667 693.667 557 651 c 0
 615.667 608.333 645 549 645 473 c 2
 645 0 l 1
 559 0 l 1
 559 465 l 2
 559 523.667 538 568 496 598 c 0
 452.667 629.333 402.667 645 346 645 c 0
 288 645 238.333 629.333 197 598 c 0
 155.667 566.667 135 521 135 461 c 0
338 479 m 0
 316.667 479 301 473 291 461 c 0
 279.667 447.667 274 432.667 274 416 c 0
 274 400.667 279.667 386.333 291 373 c 1
 300.333 359 316 352 338 352 c 0
 360 352 375.667 359 385 373 c 1
 395.667 385.667 401 400 401 416 c 0
 401 433.333 395.667 448.333 385 461 c 0
 375 473 359.333 479 338 479 c 0
EndSplineSet
EndChar
StartChar: uni0E05
Encoding: 135 3589
OldEncoding: 3589
Width: 751
Flags: W
Fore
51 465 m 0
 51 513 70.3333 559.333 109 604 c 0
 147 649.333 193.333 684.333 248 709 c 1
 367 629 l 1
 483 709 l 1
 591 657.667 645 579 645 473 c 2
 645 0 l 1
 559 0 l 1
 559 465 l 2
 559 496.333 557 522.333 553 543 c 1
 545.667 566.333 538.667 582 532 590 c 0
 528 596.667 519.333 605.333 506 616 c 2
 479 637 l 1
 367 563 l 1
 326 592 l 1
 256 637 l 1
 214 616.333 184 591.667 166 563 c 0
 147.333 532.333 137 498.333 135 461 c 0
 135 437 142.667 409 158 377 c 0
 171.333 348.333 180 323.667 184 303 c 1
 184 369 l 2
 184 419 197 460.667 223 494 c 0
 250.333 526.667 288.667 543 338 543 c 0
 376.667 543 407.333 530.667 430 506 c 0
 452 482 463 452 463 416 c 0
 463 380 452 350.667 430 328 c 0
 408 303.333 377.333 291 338 291 c 0
 302 291 276 299 260 315 c 1
 260 0 l 1
 176 0 l 1
 176 125 l 2
 176 156.333 171.333 183.667 162 207 c 0
 153.333 226.333 137 255 113 293 c 0
 93 323.667 77.3333 353 66 381 c 1
 56 401 51 429 51 465 c 0
338 479 m 0
 316.667 479 301 473 291 461 c 0
 279.667 447.667 274 432.667 274 416 c 0
 274 400.667 279.667 386.333 291 373 c 1
 300.333 359 316 352 338 352 c 0
 360 352 375.667 359 385 373 c 1
 395.667 385.667 401 400 401 416 c 0
 401 433.333 395.667 448.333 385 461 c 0
 375 473 359.333 479 338 479 c 0
EndSplineSet
EndChar
StartChar: uni0E06
Encoding: 136 3590
OldEncoding: 3590
Width: 940
Flags: W
Fore
367 303 m 1
 367 449 l 2
 367 471.667 370.333 490.667 377 506 c 0
 383 520 390.333 531 399 539 c 1
 432 561 l 2
 440 567 444 574.667 444 584 c 0
 444 596 437.333 609 424 623 c 1
 409.333 635.667 396.333 643 385 645 c 1
 299 588 l 1
 201 645 l 1
 177.667 639.667 155.667 624.667 135 600 c 1
 119 578 111 557.667 111 539 c 1
 131 553 l 2
 139.667 558.333 154.667 561 176 561 c 0
 213.333 559 243.333 548 266 528 c 1
 290.667 510 303 479.333 303 436 c 0
 303 398 289.333 367.333 262 344 c 0
 236 322 207.333 311 176 311 c 0
 134 311 99.3333 326.667 72 358 c 0
 44.6667 391.333 31 433 31 483 c 0
 31 511.667 35 541 43 571 c 0
 54.3333 610.333 78.3333 644 115 672 c 1
 151 696.667 182.333 709 209 709 c 1
 299 653 l 1
 381 709 l 1
 414.333 697.667 445 681 473 659 c 0
 501.667 637 516 610 516 578 c 0
 516 562 513.333 550.333 508 543 c 0
 498.667 530.333 491 521.333 485 516 c 0
 473 504 465 494.333 461 487 c 0
 455.667 478.333 453 464 453 444 c 2
 453 303 l 1
 501 299 544 288 582 270 c 1
 617.333 255.333 651.333 235.667 684 211 c 1
 708.667 189.667 730 167.667 748 145 c 1
 748 696 l 1
 834 696 l 1
 834 0 l 1
 748 0 l 1
 748 26.6667 735 57.3333 709 92 c 0
 679.667 130 642.667 161.333 598 186 c 1
 554.667 212 506.333 228.667 453 236 c 1
 453 106 l 2
 453 71.3333 443.333 42.6667 424 20 c 1
 403.333 -1.33333 374.667 -12 338 -12 c 0
 295.333 -12 263.333 3 242 33 c 1
 218.667 61.6667 207 96.3333 207 137 c 0
 207 181 221.333 219.333 250 252 c 0
 276.667 284 315.667 301 367 303 c 1
299 78 m 1
 309.667 65.3333 322 59 336 59 c 0
 356.667 59 367 70.6667 367 94 c 2
 367 240 l 1
 338.333 240 316.333 230.333 301 211 c 1
 286.333 189 279 165.667 279 141 c 0
 279 112.333 285.667 91.3333 299 78 c 1
176 502 m 0
 154.667 502 139 495.667 129 483 c 1
 118.333 472.333 113 457.333 113 438 c 0
 113 424 118.333 409 129 393 c 1
 139 381 154.667 375 176 375 c 0
 197.333 375 213 381 223 393 c 0
 234.333 407.667 240 422.667 240 438 c 0
 240 456.667 234.333 471.667 223 483 c 1
 213 495.667 197.333 502 176 502 c 0
EndSplineSet
EndChar
StartChar: uni0E07
Encoding: 137 3591
OldEncoding: 3591
Width: 589
Flags: W
Fore
397 96 m 2
 397 461 l 1
 388.333 455.667 374.667 453 356 453 c 0
 316.667 453 286 466 264 492 c 0
 242 516 231 545.333 231 580 c 0
 231 614.667 242 644.667 264 670 c 1
 288.667 693.333 319.333 705 356 705 c 0
 380.667 705 403.333 699.333 424 688 c 0
 444 676.667 459 661.667 469 643 c 0
 478.333 626.333 483 604.667 483 578 c 2
 483 90 l 2
 483 56.6667 473 30.6667 453 12 c 0
 433 -5.33333 407 -14 375 -14 c 0
 351.667 -14 330.333 -9.33333 311 0 c 0
 287 13.3333 270 29 260 47 c 2
 31 436 l 1
 98 473 l 1
 330 86 l 2
 338.667 70.6667 351 63 367 63 c 0
 375.667 63 383 66 389 72 c 0
 394.333 77.3333 397 85.3333 397 96 c 2
356 641 m 0
 337.333 641 322.333 635 311 623 c 1
 299 607.667 293 593.333 293 580 c 0
 293 564 298.333 549.667 309 537 c 0
 321 523 336.667 516 356 516 c 0
 377.333 516 394 523 406 537 c 0
 416.667 549.667 422 564 422 580 c 0
 422 594 415.667 608.333 403 623 c 0
 391 635 375.333 641 356 641 c 0
EndSplineSet
EndChar
StartChar: uni0E08
Encoding: 138 3592
OldEncoding: 3592
Width: 700
Flags: W
Fore
295 508 m 0
 337.667 508 373 493.667 401 465 c 0
 427.667 438.333 451.667 402 473 356 c 2
 508 283 l 1
 508 479 l 2
 508 530.333 490.333 570 455 598 c 0
 417 628 371 643 317 643 c 0
 225.667 645 152.667 607.333 98 530 c 1
 43 573 l 1
 62.3333 607 97 638.667 147 668 c 1
 199.667 695.333 257 709 319 709 c 0
 370.333 709 417.667 700 461 682 c 0
 504.333 663.333 536.333 637.333 557 604 c 1
 581.667 569.333 594 527.667 594 479 c 2
 594 0 l 1
 508 0 l 1
 508 42.6667 503.333 85 494 127 c 0
 484.667 163.667 471.667 204 455 248 c 1
 440.333 280 424.667 307.333 408 330 c 1
 403.333 318 393 303 377 285 c 1
 358.333 266.333 331 256 295 254 c 1
 258.333 254 229 266.333 207 291 c 1
 182.333 315 170 346.333 170 385 c 0
 170 421.667 181.667 451 205 473 c 1
 227 496.333 257 508 295 508 c 0
295 440 m 0
 273.667 440 258 434 248 422 c 0
 236.667 408.667 231 394.333 231 379 c 0
 231 363 237.333 348.667 250 336 c 1
 260 322 275 315 295 315 c 0
 314.333 315 329.333 321.333 340 334 c 0
 350.667 346.667 356 361.667 356 379 c 0
 356 396.333 351.333 410.667 342 422 c 0
 332 434 316.333 440 295 440 c 0
EndSplineSet
EndChar
StartChar: uni0E09
Encoding: 139 3593
OldEncoding: 3593
Width: 802
Flags: W
Fore
295 358 m 2
 295 150 l 1
 323.667 190 364.667 224 418 252 c 0
 470.667 278 520.333 293.667 567 299 c 1
 567 479 l 2
 567 531.667 550.667 571.333 518 598 c 1
 485.333 626.667 441 641 385 641 c 0
 338.333 641 295.333 629.333 256 606 c 0
 220 584.667 191.333 557.333 170 524 c 1
 115 567 l 1
 143 609 179 642.667 223 668 c 0
 272.333 695.333 326.333 709 385 709 c 0
 464.333 709 529.333 688.333 580 647 c 0
 628.667 608.333 653 552.333 653 479 c 2
 653 299 l 1
 696.333 291 730 273.333 754 246 c 1
 775.333 218 786 181.667 786 137 c 0
 786 91.6667 773.333 56.3333 748 31 c 0
 721.333 2.33333 688.333 -12 649 -12 c 0
 624.333 -12 604.667 -4.66667 590 10 c 0
 574.667 25.3333 567 45.3333 567 70 c 2
 567 231 l 1
 515.667 221 469.333 204 428 180 c 0
 384 153.333 351.333 124 330 92 c 0
 306.667 58.6667 295 28 295 0 c 1
 209 0 l 1
 209 244 l 1
 201.667 238.667 188.667 236 170 236 c 0
 130 236 99.3333 248.667 78 274 c 0
 54.6667 299.333 43 328.667 43 362 c 0
 43 397.333 54 427 76 451 c 0
 98 475 129.333 487 170 487 c 0
 208 487 238 475 260 451 c 0
 283.333 425.667 295 394.667 295 358 c 2
170 424 m 0
 148.667 424 133 418 123 406 c 0
 111.667 391.333 106 376 106 360 c 0
 106 344.667 111.667 329.667 123 315 c 0
 133 303 148.667 297 170 297 c 0
 191.333 297 207 303 217 315 c 1
 227.667 331 233 346 233 360 c 0
 233 376.667 227.667 392 217 406 c 0
 207 418 191.333 424 170 424 c 0
721 137 m 0
 721 161 715.667 183 705 203 c 1
 691 219.667 673.667 229 653 231 c 1
 653 74 l 2
 653 61.3333 657.333 55 666 55 c 0
 681.333 55 694.333 63.3333 705 80 c 0
 715.667 97.3333 721 116.333 721 137 c 0
EndSplineSet
EndChar
StartChar: uni0E0A
Encoding: 140 3594
OldEncoding: 3594
Width: 755
Flags: W
Fore
551 559 m 1
 559.667 559 570.667 556.333 584 551 c 0
 598 545 612.333 531.333 627 510 c 0
 641.667 486 649 455.333 649 418 c 2
 649 133 l 2
 649 77.6667 639.667 41.6667 621 25 c 0
 600.333 8.33333 560 8.67362e-19 500 0 c 2
 217 0 l 1
 217 74 l 1
 303 74 l 1
 303 319 l 2
 303 346.333 305.667 366.333 311 379 c 0
 314.333 389 322.667 404 336 424 c 0
 349.333 441.333 359 456.333 365 469 c 0
 371 483 375 501.333 377 524 c 1
 377 560 366 588.667 344 610 c 0
 322.667 632 295.333 643 262 643 c 1
 231 639 l 1
 242.333 637 257.333 627.333 276 610 c 0
 296 593.333 305 564.667 303 524 c 0
 303 488.667 289.333 460.667 262 440 c 0
 236 420 201.333 410 158 410 c 1
 81.3333 420 43 471 43 563 c 1
 49 607 73.6667 642.667 117 670 c 0
 160.333 696 204 709 248 709 c 0
 277.333 709 307.333 703.333 338 692 c 0
 362.667 682.667 385.333 667.667 406 647 c 0
 422.667 630.333 435.333 610 444 586 c 1
 466.667 586 499 596.667 541 618 c 0
 586.333 640 628 683.333 666 748 c 1
 727 709 l 1
 703.667 659.667 674.333 624 639 602 c 1
 597 578.667 567.667 564.333 551 559 c 1
455 524 m 1
 455 498 452 479 446 467 c 0
 436 443.667 428.667 428.667 424 422 c 0
 409.333 399.333 400.333 383 397 373 c 0
 391.667 357.667 389 335.667 389 307 c 2
 389 74 l 1
 500 74 l 2
 527.333 74 545 78 553 86 c 0
 559.667 92.6667 563 108.333 563 133 c 2
 563 401 l 2
 563 483 527 524 455 524 c 1
176 602 m 0
 154.667 602 139 596 129 584 c 0
 118.333 570 113 555 113 539 c 0
 113 523 118.333 508.667 129 496 c 1
 138.333 482 154 475 176 475 c 0
 198 475 213.667 482 223 496 c 1
 234.333 509.333 240 523.667 240 539 c 0
 240 554.333 234.333 569.333 223 584 c 0
 213 596 197.333 602 176 602 c 0
EndSplineSet
EndChar
StartChar: uni0E0B
Encoding: 141 3595
OldEncoding: 3595
Width: 802
Flags: W
Fore
500 598 m 1
 529.333 606 562.667 621.667 600 645 c 0
 644.667 671 682.333 712 713 768 c 1
 776 727 l 1
 759.333 694.333 737.667 666.333 711 643 c 0
 689 623.667 664.333 607.333 637 594 c 0
 609 579.333 593.333 571.667 590 571 c 1
 606.667 569 629 558.333 657 539 c 1
 683 519 696 478.667 696 418 c 2
 696 133 l 2
 696 77.6667 686.667 41.6667 668 25 c 0
 649.333 8.33333 609 8.67362e-19 547 0 c 2
 264 0 l 1
 264 74 l 1
 350 74 l 1
 350 449 l 2
 350 480.333 355.667 503.333 367 518 c 0
 377.667 532.667 393.333 547 414 561 c 0
 422 567 426 574.667 426 584 c 0
 426 596 419.333 609 406 623 c 1
 390 636.333 377 643.667 367 645 c 1
 283 588 l 1
 184 645 l 1
 155.333 639 133.667 624 119 600 c 1
 102.333 578.667 94 558.333 94 539 c 1
 95.3333 541 102.333 545.667 115 553 c 0
 123.667 558.333 138.667 561 160 561 c 0
 195.333 559 225.333 548.667 250 530 c 0
 274.667 509.333 287 478 287 436 c 0
 287 398.667 273.333 368 246 344 c 0
 219.333 322 190 311 158 311 c 0
 116 311 81 326.667 53 358 c 0
 25.6667 390 12 431.667 12 483 c 0
 12 518.333 17 547.667 27 571 c 1
 37 611 60.6667 644.667 98 672 c 0
 134 696.667 165.667 709 193 709 c 1
 283 653 l 1
 362 709 l 1
 394.667 701.667 419.333 690.667 436 676 c 0
 458.667 658 474.333 641 483 625 c 1
 500 598 l 1
 500 598 l 1
492 539 m 1
 469 516 l 1
 457 508 448.667 499 444 489 c 0
 438.667 480.333 436 465.333 436 444 c 2
 436 74 l 1
 547 74 l 2
 575 74 592 78 598 86 c 1
 606 92 610 107.667 610 133 c 2
 610 418 l 2
 610 498.667 570.667 539 492 539 c 1
158 502 m 0
 138 502 123 495.667 113 483 c 1
 100.333 471 94 456 94 438 c 0
 94 422 100.333 407.667 113 395 c 1
 122.333 381.667 137.333 375 158 375 c 0
 179.333 375 195 381 205 393 c 1
 215.667 409 221 424 221 438 c 0
 221 455.333 215.667 470.333 205 483 c 0
 195 495.667 179.333 502 158 502 c 0
EndSplineSet
EndChar
StartChar: uni0E0C
Encoding: 142 3596
OldEncoding: 3596
Width: 972
Flags: W
Fore
201 367 m 2
 201 231 l 1
 206.333 237 220.667 240 244 240 c 0
 280.667 240 310.667 227.667 334 203 c 1
 354.667 177 365 147.667 365 115 c 0
 365 81 354.667 51.6667 334 27 c 0
 312 1 282 -12 244 -12 c 0
 207.333 -12 176.667 -0.333333 152 23 c 0
 127.333 45 115 75.6667 115 115 c 2
 115 362 l 2
 115 442 143.667 492 201 512 c 1
 143 547 l 1
 125 556.333 91.6667 568 43 582 c 1
 58.3333 603.333 90.3333 630 139 662 c 0
 188.333 693.333 253.333 709 334 709 c 0
 504.667 709 590 643.333 590 512 c 2
 590 254 l 1
 619.333 248 653.333 233.667 692 211 c 1
 731.333 185.667 760.667 157 780 125 c 1
 780 696 l 1
 866 696 l 1
 866 0 l 1
 780 0 l 1
 772 20 762 41 750 63 c 1
 735.333 83.6667 714.667 106.333 688 131 c 0
 662.667 153 630 171.333 590 186 c 1
 590 78 l 2
 590 18 562.667 -12 508 -12 c 0
 473.333 -12 446 1.66667 426 29 c 0
 406.667 57 397 89.6667 397 127 c 0
 397 161 406.667 191 426 217 c 0
 443.333 241 469.333 254 504 256 c 1
 504 512 l 2
 504 556 489.667 589.333 461 612 c 0
 433 634 394.667 645 346 645 c 0
 283.333 645 223.333 628 166 594 c 1
 176.667 590.667 198.333 581 231 565 c 0
 260.333 551.667 288.333 532.667 315 508 c 1
 304.333 508 291.333 505.333 276 500 c 0
 261.333 494.667 244.333 481.667 225 461 c 1
 209 437.667 201 406.333 201 367 c 2
504 82 m 1
 504 197 l 1
 472.667 189.667 457 163.667 457 119 c 0
 457 104.333 461 92 469 82 c 0
 475.667 71.3333 482.333 66 489 66 c 0
 497 66 502 71.3333 504 82 c 1
242 51 m 0
 263.333 51 279 57.3333 289 70 c 0
 299.667 82.6667 305 97.6667 305 115 c 0
 305 129.667 299.667 144 289 158 c 1
 276.333 170 260.667 176 242 176 c 0
 222 176 207 170 197 158 c 1
 184.333 145.333 178 131 178 115 c 0
 178 97.6667 183.667 82.6667 195 70 c 0
 207 57.3333 222.667 51 242 51 c 0
EndSplineSet
EndChar
StartChar: uni0E0D
Encoding: 143 3597
OldEncoding: 3597
Width: 972
Flags: W
Fore
866 -72 m 1
 866 -132.667 854.333 -183.667 831 -225 c 1
 809 -268.333 778.333 -299 739 -317 c 1
 700.333 -337.667 660 -348 618 -348 c 0
 564 -348 515.667 -333 473 -303 c 0
 431 -273 410 -236.333 410 -193 c 0
 410 -160.333 420 -130.667 440 -104 c 0
 460.667 -78 492.333 -66 535 -68 c 0
 571.667 -68 600.333 -80 621 -104 c 0
 641 -126.667 651 -154.667 651 -188 c 0
 651 -208.667 646.333 -228 637 -246 c 0
 628.333 -261.333 615.333 -275 598 -287 c 1
 640.667 -287 682.333 -273.333 723 -246 c 0
 761 -220 780 -162 780 -72 c 1
 866 -72 l 1
115 115 m 2
 115 362 l 2
 115 442 143.667 492 201 512 c 1
 143 547 l 1
 125 556.333 91.6667 568 43 582 c 1
 58.3333 603.333 90.3333 630 139 662 c 0
 188.333 693.333 253.333 709 334 709 c 0
 504.667 709 590 643.333 590 512 c 2
 590 74 l 1
 717 74 l 2
 745 74 762 78 768 86 c 1
 776 92 780 107.667 780 133 c 2
 780 696 l 1
 866 696 l 1
 866 133 l 2
 866 95 862 66.3333 854 47 c 0
 846 28.3333 831.667 16 811 10 c 0
 789 3.33333 757.667 2.1684e-19 717 0 c 2
 418 0 l 1
 418 74 l 1
 504 74 l 1
 504 512 l 2
 504 556 489.667 589.333 461 612 c 0
 433 634 394.667 645 346 645 c 0
 283.333 645 223.333 628 166 594 c 1
 176.667 590.667 198.333 581 231 565 c 0
 260.333 551.667 288.333 532.667 315 508 c 1
 304.333 508 291.333 505.333 276 500 c 0
 261.333 494.667 244.333 481.667 225 461 c 1
 209 437.667 201 406.333 201 367 c 2
 201 231 l 1
 206.333 237 220.667 240 244 240 c 0
 280.667 240 310.667 227.667 334 203 c 1
 354.667 177 365 147.667 365 115 c 0
 365 81 354.667 51.6667 334 27 c 0
 312 1 282 -12 244 -12 c 0
 207.333 -12 176.667 -0.333333 152 23 c 0
 127.333 45 115 75.6667 115 115 c 2
530 -244 m 0
 547.333 -244 561 -238.333 571 -227 c 0
 581 -217.667 586 -204.667 586 -188 c 0
 586 -173.333 581 -160.667 571 -150 c 0
 561 -138.667 547.333 -133 530 -133 c 0
 514 -133 500.333 -138.667 489 -150 c 0
 478.333 -160.667 473 -173.333 473 -188 c 0
 473 -203.333 478.333 -216.333 489 -227 c 0
 500.333 -238.333 514 -244 530 -244 c 0
242 51 m 0
 263.333 51 279 57.3333 289 70 c 0
 299.667 82.6667 305 97.6667 305 115 c 0
 305 129.667 299.667 144 289 158 c 1
 276.333 170 260.667 176 242 176 c 0
 222 176 207 170 197 158 c 1
 184.333 145.333 178 131 178 115 c 0
 178 97.6667 183.667 82.6667 195 70 c 0
 207 57.3333 222.667 51 242 51 c 0
EndSplineSet
EndChar
StartChar: uni0E0E
Encoding: 144 3598
OldEncoding: 3598
Width: 827
Flags: W
Fore
201 231 m 1
 201 346 l 2
 201 372.667 205 396.667 213 418 c 0
 219.667 438.667 229.333 453.667 242 463 c 0
 254 473 267.667 481 283 487 c 1
 274.333 494.333 255.667 505.333 227 520 c 0
 199 536 165.667 545 127 547 c 1
 146.333 575 183.333 609 238 649 c 0
 294.667 689 363.333 709 444 709 c 0
 526 709 592.333 689.667 643 651 c 0
 695 611 721 555 721 483 c 2
 721 -350 l 1
 637 -350 l 1
 610.333 -314.667 578.333 -282 541 -252 c 0
 518.333 -234 491 -216.333 459 -199 c 1
 449.667 -235 425.667 -270.333 387 -305 c 0
 348.333 -339.667 304.667 -356 256 -354 c 0
 214 -354 180 -340.333 154 -313 c 0
 128 -287.667 115 -253 115 -209 c 0
 117 -163.667 133.333 -128.667 164 -104 c 1
 196 -81.3333 235 -70 281 -70 c 0
 317.667 -70 360 -77.3333 408 -92 c 1
 418 -57 l 2
 420.667 -47 423.333 -28 426 0 c 1
 504 -16 l 1
 501.333 -46 498 -68 494 -82 c 1
 483 -125 l 1
 513.667 -139.667 545.333 -158.667 578 -182 c 0
 609.333 -206 629 -224 637 -236 c 1
 637 483 l 2
 637 515.667 628 542.333 610 563 c 1
 594 586.333 571.667 604 543 616 c 0
 515 628.667 482.667 635 446 635 c 0
 372.667 635 309.333 612.333 256 567 c 1
 266.667 565 287 557.667 317 545 c 0
 345.667 532.333 372.333 514.667 397 492 c 1
 377 486.667 354.667 474.333 330 455 c 0
 301.333 434.333 287 399.333 287 350 c 2
 287 111 l 2
 287 75.6667 276 47 254 25 c 0
 231.333 0.333333 200 -12 160 -12 c 0
 122 -12 92 0.333333 70 25 c 0
 46.6667 49.6667 35 79.6667 35 115 c 0
 35 149.667 46 179 68 203 c 0
 90.6667 227.667 121.333 240 160 240 c 0
 178 240 191.667 237 201 231 c 1
311 -264 m 0
 331.667 -254 348 -237.667 360 -215 c 0
 372 -194.333 380.333 -177.333 385 -164 c 1
 343.667 -151.333 309 -145 281 -145 c 0
 223.667 -145 195 -166.333 195 -209 c 0
 195 -219 197 -229.333 201 -240 c 0
 211 -262.667 234 -274 270 -274 c 0
 282 -274 295.667 -270.667 311 -264 c 0
160 51 m 0
 180.667 51 197 57.3333 209 70 c 0
 219.667 82.6667 225 97.6667 225 115 c 0
 225 129.667 219.667 144 209 158 c 1
 197 170 180.667 176 160 176 c 0
 140 176 125 170 115 158 c 0
 102.333 143.333 96 129 96 115 c 0
 96 98.3333 102.333 84 115 72 c 1
 124.333 58 139.333 51 160 51 c 0
EndSplineSet
EndChar
StartChar: uni0E0F
Encoding: 145 3599
OldEncoding: 3599
Width: 827
Flags: W
Fore
201 231 m 1
 201 346 l 2
 201 372.667 205 396.667 213 418 c 0
 219.667 438.667 229.333 453.667 242 463 c 0
 254 473 267.667 481 283 487 c 1
 274.333 494.333 255.667 505.333 227 520 c 0
 199 536 165.667 545 127 547 c 1
 146.333 575 183.333 609 238 649 c 0
 294.667 689 363.333 709 444 709 c 0
 526 709 592.333 689.667 643 651 c 0
 695 611 721 555 721 483 c 2
 721 -350 l 1
 637 -350 l 1
 543 -236 l 1
 440 -354 l 1
 428 -332.667 415.667 -314.333 403 -299 c 0
 386.333 -278.333 374.333 -264 367 -256 c 1
 357 -273.333 341 -293.667 319 -317 c 0
 295 -341.667 263 -354 223 -354 c 0
 187.667 -354 159.667 -341.667 139 -317 c 1
 117 -295 106 -261.667 106 -217 c 1
 111.333 -181.667 124.333 -155 145 -137 c 0
 167 -119.667 195.667 -111 231 -111 c 0
 267.667 -111 304 -122.333 340 -145 c 1
 358 -84 l 1
 367.333 -56 373 -28 375 0 c 1
 449 -16 l 1
 447 -31.3333 440 -62.3333 428 -109 c 0
 418 -147.667 408.333 -175.667 399 -193 c 1
 402.333 -193 419 -210 449 -244 c 1
 539 -150 l 1
 637 -248 l 1
 637 483 l 2
 637 515.667 628 542.333 610 563 c 1
 594 586.333 571.667 604 543 616 c 0
 515 628.667 482.667 635 446 635 c 0
 372.667 635 309.333 612.333 256 567 c 1
 266.667 565 287 557.667 317 545 c 0
 345.667 532.333 372.333 514.667 397 492 c 1
 377 486.667 354.667 474.333 330 455 c 0
 301.333 434.333 287 399.333 287 350 c 2
 287 111 l 2
 287 75.6667 276 47 254 25 c 0
 231.333 0.333333 200 -12 160 -12 c 0
 122 -12 92 0.333333 70 25 c 0
 46.6667 49.6667 35 79.6667 35 115 c 0
 35 149.667 46 179 68 203 c 0
 90.6667 227.667 121.333 240 160 240 c 0
 178 240 191.667 237 201 231 c 1
260 -276 m 0
 270.667 -268.667 282.333 -256 295 -238 c 0
 304.333 -224 310.333 -213 313 -205 c 1
 290.333 -187 265.333 -178 238 -178 c 0
 205.333 -178 186 -190.333 180 -215 c 1
 180 -261 197 -285 231 -287 c 0
 241.667 -287 251.333 -283.333 260 -276 c 0
160 51 m 0
 180.667 51 197 57.3333 209 70 c 0
 219.667 82.6667 225 97.6667 225 115 c 0
 225 129.667 219.667 144 209 158 c 1
 197 170 180.667 176 160 176 c 0
 140 176 125 170 115 158 c 0
 102.333 143.333 96 129 96 115 c 0
 96 98.3333 102.333 84 115 72 c 1
 124.333 58 139.333 51 160 51 c 0
EndSplineSet
EndChar
StartChar: uni0E10
Encoding: 146 3600
OldEncoding: 3600
Width: 661
Flags: W
Fore
256 428 m 0
 280.667 428 306 420.667 332 406 c 1
 356 389.333 373.667 369.333 385 346 c 2
 469 170 l 1
 469 338 l 2
 469 390 460 424.667 442 442 c 1
 426.667 460 396 476.667 350 492 c 1
 305.333 504.667 255.667 515.333 201 524 c 1
 151.667 534.667 113.333 541 86 543 c 1
 111.333 587.667 144.667 627.333 186 662 c 1
 226.667 693.333 271 709 319 709 c 0
 349 709 372.333 706.667 389 702 c 2
 459 680 l 1
 520 659 l 2
 534.667 655 549.667 653 565 653 c 0
 589 653 613 658.667 637 670 c 1
 653 598 l 1
 619.667 584.667 589 578 561 578 c 0
 542.333 578 526 580 512 584 c 2
 446 606 l 1
 377 631 l 2
 360.333 636.333 342 639 322 639 c 0
 304 639 282.667 633.667 258 623 c 1
 236.667 610.333 225 600.667 223 594 c 1
 264 584 l 1
 338 563 l 1
 406 547 l 2
 473.333 529.667 514.667 507 530 479 c 1
 546.667 453 555 407.333 555 342 c 2
 555 0 l 1
 453 0 l 1
 446.333 39.3333 432.667 83.6667 412 133 c 0
 388.667 185.667 372 220.667 362 238 c 1
 356.667 220.667 343.333 205.667 322 193 c 0
 302.667 181.667 280.667 176 256 176 c 0
 216.667 176 186 188.333 164 213 c 0
 142 239 131 268.333 131 301 c 0
 131 338.333 142 368.333 164 391 c 0
 186 415.667 216.667 428 256 428 c 0
471 -303 m 1
 477 -283 l 1
 479 -260 l 1
 471 -260 l 1
 457 -262 l 1
 425.667 -262 401 -252.333 383 -233 c 0
 365 -215 356 -192.667 356 -166 c 0
 356 -142.667 365.667 -118.667 385 -94 c 1
 403.667 -73.3333 427.667 -63 457 -63 c 0
 486.333 -63 510 -72 528 -90 c 0
 546 -108 555 -133.333 555 -166 c 2
 555 -287 l 2
 555 -301 553 -312.667 549 -322 c 1
 543 -330.667 535.333 -337.333 526 -342 c 1
 496 -362 l 1
 436 -397 l 1
 358 -346 l 1
 276 -393 l 1
 236 -319 l 1
 213.333 -365 176.333 -387 125 -385 c 0
 65.6667 -383 33.6667 -353.667 29 -297 c 0
 29 -279 l 0
 29 -253 39.6667 -230.333 61 -211 c 0
 81.6667 -193 106.333 -184 135 -184 c 0
 159 -184 185 -192.333 213 -209 c 1
 215 -201 219 -186 225 -164 c 1
 229 -141.333 231 -110.667 231 -72 c 1
 295 -72 l 1
 295 -143.333 284 -205.333 262 -258 c 1
 295 -307 l 1
 319 -295 l 1
 358 -272 l 1
 440 -324 l 1
 471 -303 l 1
457 -213 m 0
 471.667 -213 484 -208.333 494 -199 c 1
 502 -187.667 506 -176 506 -164 c 0
 506 -150.667 502 -139 494 -129 c 1
 484 -119.667 471.667 -115 457 -115 c 0
 439 -115 427.333 -119.667 422 -129 c 1
 412.667 -138.333 408 -150 408 -164 c 0
 408 -177.333 412.667 -189 422 -199 c 1
 427.333 -208.333 439 -213 457 -213 c 0
256 238 m 0
 277.333 238 293 244 303 256 c 0
 313.667 270.667 319 285.667 319 301 c 0
 319 318.333 313.667 333.333 303 346 c 0
 292.333 358.667 276.667 365 256 365 c 0
 236.667 365 221.667 358.667 211 346 c 0
 199 334 193 319 193 301 c 0
 193 284.333 199 270 211 258 c 1
 220.333 244.667 235.333 238 256 238 c 0
133 -240 m 0
 115.667 -240 103.333 -244.667 96 -254 c 0
 88 -264 84 -275 84 -287 c 0
 84 -297.667 88 -307 96 -315 c 1
 103.333 -325 115.667 -330 133 -330 c 0
 145.667 -330 156.667 -325.667 166 -317 c 0
 174 -310.333 181.333 -301.667 188 -291 c 1
 197 -272 l 1
 195.667 -270 188 -263.333 174 -252 c 0
 164 -244 150.333 -240 133 -240 c 0
EndSplineSet
EndChar
StartChar: uni0E11
Encoding: 147 3601
OldEncoding: 3601
Width: 964
Flags: W
Fore
350 0 m 1
 350 449 l 2
 350 474.333 352.667 493.333 358 506 c 0
 364 516 371.667 526.333 381 537 c 1
 414 561 l 2
 422 567 426 574.667 426 584 c 0
 426 596 419.333 609 406 623 c 1
 390 636.333 377 643.667 367 645 c 1
 283 588 l 1
 184 645 l 1
 155.333 639 133.667 624 119 600 c 1
 102.333 578.667 94 558.333 94 539 c 1
 95.3333 541 102.333 545.667 115 553 c 0
 123.667 558.333 138.667 561 160 561 c 0
 195.333 559 225.333 548.667 250 530 c 0
 274.667 509.333 287 478 287 436 c 0
 287 398.667 273.333 368 246 344 c 0
 219.333 322 190 311 158 311 c 0
 116 311 81 326.667 53 358 c 0
 25.6667 390 12 431.667 12 483 c 0
 12 518.333 17 547.667 27 571 c 1
 37 611 60.6667 644.667 98 672 c 0
 134 696.667 165.667 709 193 709 c 1
 283 653 l 1
 362 709 l 1
 397.333 697.667 429 681 457 659 c 0
 485.667 636.333 500 609.333 500 578 c 0
 500 562 497.333 550.333 492 543 c 2
 469 516 l 1
 460.333 508.667 452 499 444 487 c 0
 438.667 478.333 436 464 436 444 c 2
 436 334 l 1
 446 360 463 401 487 457 c 0
 508.333 504.333 542.667 557.333 590 616 c 0
 632.667 669.333 678.333 696 727 696 c 0
 770.333 696 803 680.333 825 649 c 0
 847 619.667 858 583 858 539 c 2
 858 0 l 1
 772 0 l 1
 772 539 l 2
 772 591.667 755 618 721 618 c 0
 696.333 618 669 597 639 555 c 0
 602.333 504.333 571 450.333 545 393 c 1
 509.667 321.667 483.667 253.333 467 188 c 1
 446.333 120 436 57.3333 436 0 c 1
 350 0 l 1
158 502 m 0
 138 502 123 495.667 113 483 c 1
 100.333 471 94 456 94 438 c 0
 94 422 100.333 407.667 113 395 c 1
 122.333 381.667 137.333 375 158 375 c 0
 179.333 375 195 381 205 393 c 1
 215.667 409 221 424 221 438 c 0
 221 455.333 215.667 470.333 205 483 c 0
 195 495.667 179.333 502 158 502 c 0
EndSplineSet
EndChar
StartChar: uni0E12
Encoding: 148 3602
OldEncoding: 3602
Width: 1028
Flags: W
Fore
559 256 m 1
 559 461 l 2
 559 509 554.333 544.333 545 567 c 0
 536.333 589 514.333 612.333 479 637 c 1
 367 563 l 1
 326 592 l 1
 256 637 l 1
 168.667 592.333 125 528 125 444 c 0
 125 386 146 322 188 252 c 0
 215.333 204.667 229 173.333 229 158 c 1
 243.667 187.333 259.333 214 276 238 c 0
 292.667 260 305.667 275 315 283 c 1
 286.333 291 264 306.667 248 330 c 1
 231.333 351.333 223 376.667 223 406 c 0
 223 440.667 234 470 256 494 c 0
 278.667 518 310 530 350 530 c 0
 390 530 420.667 517.333 442 492 c 0
 464 466 475 435.667 475 401 c 0
 475 383.667 471.667 366.667 465 350 c 0
 459 336 450 323 438 311 c 2
 403 274 l 1
 375 242 352.667 213.333 336 188 c 0
 314.667 158.667 297.667 130 285 102 c 0
 269 69.3333 258 35.3333 252 0 c 1
 166 0 l 1
 175.333 14.6667 180 33 180 55 c 0
 180 72.3333 172.667 104 158 150 c 0
 155.333 158 143 185 121 231 c 1
 96.3333 274.333 78.6667 312 68 344 c 0
 55.3333 378 49 415.667 49 457 c 0
 51 512.333 71 562 109 606 c 0
 145 648.667 191.333 683 248 709 c 1
 367 629 l 1
 483 709 l 1
 531 685.667 566 663 588 641 c 0
 610 617.667 625 593 633 567 c 0
 641 541 645 505.667 645 461 c 2
 645 254 l 1
 674.333 248.667 709.333 234.333 750 211 c 1
 788 185.667 817.333 157 838 125 c 1
 838 696 l 1
 922 696 l 1
 922 0 l 1
 838 0 l 1
 790.667 98 726.333 160 645 186 c 1
 645 78 l 2
 645 18 617.667 -12 563 -12 c 0
 529 -12 502.333 1.66667 483 29 c 0
 463 55 453 87.6667 453 127 c 0
 453 162.333 462.333 192.333 481 217 c 0
 499 241 525 254 559 256 c 1
350 467 m 0
 330.667 467 315 461 303 449 c 1
 292.333 433 287 417.667 287 403 c 0
 287 388.333 292.333 374 303 360 c 0
 314.333 346.667 330 340 350 340 c 0
 371.333 340 387 346 397 358 c 0
 408.333 371.333 414 386.333 414 403 c 0
 414 420.333 408.333 435.667 397 449 c 0
 387 461 371.333 467 350 467 c 0
559 82 m 1
 559 197 l 1
 527.667 189.667 512 163.667 512 119 c 0
 512 105.667 515.333 93.3333 522 82 c 1
 530.667 71.3333 538.333 66 545 66 c 0
 552.333 66 557 71.3333 559 82 c 1
EndSplineSet
EndChar
StartChar: uni0E13
Encoding: 149 3603
OldEncoding: 3603
Width: 1003
Flags: W
Fore
115 115 m 2
 115 362 l 2
 115 442 143.667 492 201 512 c 1
 143 547 l 1
 125 556.333 91.6667 568 43 582 c 1
 58.3333 603.333 90.3333 630 139 662 c 0
 188.333 693.333 253.333 709 334 709 c 0
 504.667 709 590 643.333 590 512 c 2
 590 150 l 1
 637.333 224 696.667 272.333 768 295 c 1
 768 696 l 1
 854 696 l 1
 854 301 l 1
 897.333 295 930 279.333 952 254 c 0
 975.333 226.667 987 189 987 141 c 0
 987 91 973.333 53 946 27 c 1
 920 -0.333333 889.333 -14 854 -14 c 0
 828.667 -14 808.333 -7.33333 793 6 c 0
 776.333 20 768 39 768 63 c 2
 768 225 l 1
 718.667 207 678.333 173 647 123 c 1
 615.667 76.3333 596.667 35.3333 590 0 c 1
 504 0 l 1
 504 512 l 2
 504 556 489.667 589.333 461 612 c 0
 433 634 394.667 645 346 645 c 0
 283.333 645 223.333 628 166 594 c 1
 176.667 590.667 198.333 581 231 565 c 0
 260.333 551.667 288.333 532.667 315 508 c 1
 304.333 508 291.333 505.333 276 500 c 0
 261.333 494.667 244.333 481.667 225 461 c 1
 209 437.667 201 406.333 201 367 c 2
 201 231 l 1
 206.333 237 220.667 240 244 240 c 0
 280.667 240 310.667 227.667 334 203 c 1
 354.667 177 365 147.667 365 115 c 0
 365 81 354.667 51.6667 334 27 c 0
 312 1 282 -12 244 -12 c 0
 207.333 -12 176.667 -0.333333 152 23 c 0
 127.333 45 115 75.6667 115 115 c 2
854 78 m 2
 854 62.6667 859.333 55 870 55 c 0
 883.333 55 895 63.3333 905 80 c 1
 917.667 93.3333 924 113.667 924 141 c 0
 924 197.667 900.667 229.333 854 236 c 1
 854 78 l 2
242 51 m 0
 263.333 51 279 57.3333 289 70 c 0
 299.667 82.6667 305 97.6667 305 115 c 0
 305 129.667 299.667 144 289 158 c 1
 276.333 170 260.667 176 242 176 c 0
 222 176 207 170 197 158 c 1
 184.333 145.333 178 131 178 115 c 0
 178 97.6667 183.667 82.6667 195 70 c 0
 207 57.3333 222.667 51 242 51 c 0
EndSplineSet
EndChar
StartChar: uni0E14
Encoding: 150 3604
OldEncoding: 3604
Width: 751
Flags: W
Fore
127 453 m 0
 125 394.333 145.333 328.667 188 256 c 0
 212.667 213.333 225 178 225 150 c 1
 245.667 189.333 262.667 217 276 233 c 2
 315 283 l 1
 286.333 291 264 306.667 248 330 c 1
 231.333 351.333 223 376.667 223 406 c 0
 223 440.667 234 470 256 494 c 0
 278.667 518 310 530 350 530 c 0
 390 530 420.667 517.333 442 492 c 0
 464 466 475 435.667 475 401 c 0
 475 383.667 471.667 366.667 465 350 c 0
 459 336 450 323 438 311 c 2
 403 274 l 1
 375 242 352.667 213.333 336 188 c 0
 314.667 158.667 297.667 130 285 102 c 0
 269 69.3333 258 35.3333 252 0 c 1
 166 0 l 1
 175.333 14.6667 180 33 180 55 c 0
 180 72.3333 172.667 104 158 150 c 0
 150 170.667 137 198.333 119 233 c 0
 96.3333 273.667 80 311.333 70 346 c 1
 55.3333 384.667 49 421.667 51 457 c 0
 53 525 81.6667 585.667 137 639 c 0
 188.333 688.333 265 713 367 713 c 0
 552.333 713 645 629 645 461 c 2
 645 0 l 1
 559 0 l 1
 559 465 l 2
 559 519 546.667 563.333 522 598 c 0
 498.667 632 447 649 367 649 c 0
 298.333 649 241.667 630.667 197 594 c 0
 150.333 555.333 127 508.333 127 453 c 0
350 467 m 0
 330.667 467 315 461 303 449 c 1
 292.333 433 287 417.667 287 403 c 0
 287 388.333 292.333 374 303 360 c 0
 314.333 346.667 330 340 350 340 c 0
 371.333 340 387 346 397 358 c 0
 408.333 371.333 414 386.333 414 403 c 0
 414 420.333 408.333 435.667 397 449 c 0
 387 461 371.333 467 350 467 c 0
EndSplineSet
EndChar
StartChar: uni0E15
Encoding: 151 3605
OldEncoding: 3605
Width: 751
Flags: W
Fore
229 158 m 1
 243.667 187.333 259.333 214 276 238 c 0
 292.667 260 305.667 275 315 283 c 1
 286.333 291 264 306.667 248 330 c 1
 231.333 351.333 223 376.667 223 406 c 0
 223 440.667 234 470 256 494 c 0
 278.667 518 310 530 350 530 c 0
 390 530 420.667 517.333 442 492 c 0
 464 466 475 435.667 475 401 c 0
 475 383.667 471.667 366.667 465 350 c 0
 459 336 450 323 438 311 c 2
 403 274 l 1
 375 242 352.667 213.333 336 188 c 0
 314.667 158.667 297.667 130 285 102 c 0
 269 69.3333 258 35.3333 252 0 c 1
 166 0 l 1
 175.333 14.6667 180 33 180 55 c 0
 180 72.3333 172.667 104 158 150 c 0
 155.333 158 143 185 121 231 c 1
 96.3333 274.333 78.6667 312 68 344 c 0
 55.3333 378 49 415.667 49 457 c 0
 51 512.333 71 562 109 606 c 0
 145 648.667 191.333 683 248 709 c 1
 367 629 l 1
 483 709 l 1
 531 685.667 566 663 588 641 c 0
 610 617.667 625 593 633 567 c 0
 641 541 645 505.667 645 461 c 2
 645 0 l 1
 559 0 l 1
 559 461 l 2
 559 509 554.333 544.333 545 567 c 0
 536.333 589 514.333 612.333 479 637 c 1
 367 563 l 1
 326 592 l 1
 256 637 l 1
 168.667 592.333 125 528 125 444 c 0
 125 386 146 322 188 252 c 0
 215.333 204.667 229 173.333 229 158 c 1
350 467 m 0
 330.667 467 315 461 303 449 c 1
 292.333 433 287 417.667 287 403 c 0
 287 388.333 292.333 374 303 360 c 0
 314.333 346.667 330 340 350 340 c 0
 371.333 340 387 346 397 358 c 0
 408.333 371.333 414 386.333 414 403 c 0
 414 420.333 408.333 435.667 397 449 c 0
 387 461 371.333 467 350 467 c 0
EndSplineSet
EndChar
StartChar: uni0E16
Encoding: 152 3606
OldEncoding: 3606
Width: 743
Flags: W
Fore
115 115 m 2
 115 346 l 2
 115 385.333 122.333 416.667 137 440 c 1
 154.333 461.333 174.333 477 197 487 c 1
 185.667 496.333 167.667 507.333 143 520 c 0
 115 536 81.6667 545 43 547 c 1
 61.6667 574.333 98 608.333 152 649 c 0
 206.667 689 275.333 709 358 709 c 0
 408 709 455.333 700.667 500 684 c 0
 541.333 668.667 574.667 643.333 600 608 c 0
 624.667 573.333 637 531.667 637 483 c 2
 637 0 l 1
 551 0 l 1
 551 483 l 2
 551 515.667 542 542.333 524 563 c 1
 508 586.333 485.667 604 457 616 c 0
 429 628.667 396.667 635 360 635 c 0
 286.667 635 223.333 612.333 170 567 c 1
 180.667 565 201 557.667 231 545 c 0
 259.667 532.333 286.333 514.667 311 492 c 1
 291 486.667 268.667 474.333 244 455 c 0
 215.333 434.333 201 399.333 201 350 c 2
 201 231 l 1
 206.333 237 220.667 240 244 240 c 0
 280.667 240 310.667 227.667 334 203 c 1
 354.667 177 365 147.667 365 115 c 0
 365 81 354.667 51.6667 334 27 c 0
 312 1 282 -12 244 -12 c 0
 207.333 -12 176.667 -0.333333 152 23 c 0
 127.333 45 115 75.6667 115 115 c 2
242 51 m 0
 263.333 51 279 57.3333 289 70 c 0
 299.667 82.6667 305 97.6667 305 115 c 0
 305 129.667 299.667 144 289 158 c 1
 276.333 170 260.667 176 242 176 c 0
 222 176 207 170 197 158 c 1
 184.333 145.333 178 131 178 115 c 0
 178 97.6667 183.667 82.6667 195 70 c 0
 207 57.3333 222.667 51 242 51 c 0
EndSplineSet
EndChar
StartChar: uni0E17
Encoding: 153 3607
OldEncoding: 3607
Width: 757
Flags: W
Fore
209 0 m 1
 209 459 l 1
 199 455 186 453 170 453 c 0
 130 453 99.3333 466 78 492 c 1
 54.6667 516.667 43 546 43 580 c 0
 43 613.333 54.6667 642.667 78 668 c 0
 100.667 692.667 131.333 705 170 705 c 0
 192.667 705 214.667 699.333 236 688 c 0
 254.667 677.333 269.667 662.333 281 643 c 0
 290.333 626.333 295 604.667 295 578 c 2
 295 334 l 1
 342 436 l 1
 360.667 481.333 382.667 523 408 561 c 0
 436 602.333 464 635 492 659 c 0
 519.333 683.667 550.667 696 586 696 c 0
 616 696 640.333 688.667 659 674 c 1
 677.667 657.333 692 637.333 702 614 c 0
 712 594 717 569 717 539 c 2
 717 0 l 1
 631 0 l 1
 631 539 l 2
 631 591.667 614.667 618 582 618 c 0
 558.667 618 531.333 597 500 555 c 0
 464 508.333 431.667 454.333 403 393 c 0
 367.667 319.667 342 251.333 326 188 c 1
 305.333 120 295 57.3333 295 0 c 1
 209 0 l 1
170 641 m 0
 148.667 641 133 635 123 623 c 0
 111.667 608.333 106 593.333 106 578 c 0
 106 562.667 111.667 548.333 123 535 c 1
 132.333 521 148 514 170 514 c 0
 192 514 207.667 521 217 535 c 1
 227.667 547.667 233 562 233 578 c 0
 233 594 227.667 609 217 623 c 0
 207 635 191.333 641 170 641 c 0
EndSplineSet
EndChar
StartChar: uni0E18
Encoding: 154 3608
OldEncoding: 3608
Width: 665
Flags: W
Fore
166 586 m 1
 194.667 584.667 246.667 576.333 322 561 c 0
 388.667 547 446.667 519.667 496 479 c 1
 517.333 463.667 531.667 445.333 539 424 c 0
 544.333 405.333 547 377.333 547 340 c 2
 547 133 l 2
 547 77 537.333 41 518 25 c 0
 498.667 8.33333 458.333 8.67362e-19 397 0 c 2
 94 0 l 1
 94 74 l 1
 180 74 l 1
 180 444 l 1
 264 444 l 1
 264 74 l 1
 397 74 l 2
 424.333 74 442.333 78 451 86 c 0
 457.667 92.6667 461 108.333 461 133 c 2
 461 342 l 2
 461 367.333 459 387 455 401 c 0
 449.667 415.667 437.333 430.667 418 446 c 0
 384.667 473.333 340.333 494 285 508 c 0
 229.667 521.333 171 528 109 528 c 1
 43 524 l 1
 52.3333 552.667 76.3333 591.667 115 641 c 0
 152.333 686.333 206 709 276 709 c 0
 318 709 367.333 699.333 424 680 c 0
 480.667 660.667 516 651 530 651 c 0
 556.667 651 580.667 657.333 602 670 c 1
 633 610 l 1
 599 591.333 567 582 537 582 c 0
 519 582 496.333 586 469 594 c 2
 399 618 l 1
 340 637 l 2
 321.333 642.333 300 645 276 645 c 0
 241.333 645 215.667 637.667 199 623 c 0
 181 609 170 596.667 166 586 c 1
EndSplineSet
EndChar
StartChar: uni0E19
Encoding: 155 3609
OldEncoding: 3609
Width: 806
Flags: W
Fore
209 0 m 1
 209 459 l 1
 199 455 186 453 170 453 c 0
 130 453 99.3333 466 78 492 c 1
 54.6667 516.667 43 546 43 580 c 0
 43 613.333 54.6667 642.667 78 668 c 0
 100.667 692.667 131.333 705 170 705 c 0
 192.667 705 214.667 699.333 236 688 c 0
 254.667 677.333 269.667 662.333 281 643 c 0
 290.333 626.333 295 604.667 295 578 c 2
 295 133 l 1
 363 226.333 455 283 571 303 c 1
 571 696 l 1
 657 696 l 1
 657 301 l 1
 701.667 295 734.667 279.333 756 254 c 0
 779.333 225.333 791 187.667 791 141 c 0
 791 91 778 53 752 27 c 0
 724.667 -0.333333 693 -14 657 -14 c 0
 631.667 -14 611.333 -7.33333 596 6 c 0
 579.333 20.6667 571 39.6667 571 63 c 2
 571 236 l 1
 521 226.667 476.667 206.667 438 176 c 0
 402 147.333 371.333 116 346 82 c 0
 319.333 44.6667 302.333 17.3333 295 0 c 1
 209 0 l 1
170 641 m 0
 150 641 135 635 125 623 c 0
 112.333 609 106 594.667 106 580 c 0
 106 563.333 111.667 548.333 123 535 c 0
 133 522.333 148.667 516 170 516 c 0
 191.333 516 207 522.333 217 535 c 0
 227.667 549.667 233 564.667 233 580 c 0
 233 596 227 610.333 215 623 c 0
 205 635 190 641 170 641 c 0
657 78 m 2
 657 62.6667 663.333 55 676 55 c 0
 686.667 55 698.333 63.3333 711 80 c 1
 721.667 97.3333 727 117.667 727 141 c 0
 727 197.667 703.667 229.333 657 236 c 1
 657 78 l 2
EndSplineSet
EndChar
StartChar: uni0E1A
Encoding: 156 3610
OldEncoding: 3610
Width: 802
Flags: W
Fore
209 74 m 1
 209 459 l 1
 199 455 186 453 170 453 c 0
 130 453 99.3333 466 78 492 c 1
 54.6667 516.667 43 546 43 580 c 0
 43 613.333 54.6667 642.667 78 668 c 0
 100.667 692.667 131.333 705 170 705 c 0
 192.667 705 214.667 699.333 236 688 c 0
 254.667 677.333 269.667 662.333 281 643 c 0
 290.333 626.333 295 604.667 295 578 c 2
 295 74 l 1
 547 74 l 2
 575 74 592 78 598 86 c 1
 606 92 610 107.667 610 133 c 2
 610 696 l 1
 696 696 l 1
 696 133 l 2
 696 77.6667 686.667 41.6667 668 25 c 0
 649.333 8.33333 609 8.67362e-19 547 0 c 2
 125 0 l 1
 125 74 l 1
 209 74 l 1
170 641 m 0
 148.667 641 133 635 123 623 c 0
 111.667 608.333 106 593.333 106 578 c 0
 106 562.667 111.667 548.333 123 535 c 1
 132.333 521 148 514 170 514 c 0
 192 514 207.667 521 217 535 c 1
 227.667 547.667 233 562 233 578 c 0
 233 594 227.667 609 217 623 c 0
 207 635 191.333 641 170 641 c 0
EndSplineSet
EndChar
StartChar: uni0E1B
Encoding: 157 3611
OldEncoding: 3611
Width: 802
Flags: W
Fore
209 74 m 1
 209 459 l 1
 199 455 186 453 170 453 c 0
 130 453 99.3333 466 78 492 c 1
 54.6667 516.667 43 546 43 580 c 0
 43 613.333 54.6667 642.667 78 668 c 0
 100.667 692.667 131.333 705 170 705 c 0
 192.667 705 214.667 699.333 236 688 c 0
 254.667 677.333 269.667 662.333 281 643 c 0
 290.333 626.333 295 604.667 295 578 c 2
 295 74 l 1
 547 74 l 2
 575 74 592 78 598 86 c 1
 606 92 610 107.667 610 133 c 2
 610 948 l 1
 696 948 l 1
 696 133 l 2
 696 77.6667 686.667 41.6667 668 25 c 0
 649.333 8.33333 609 8.67362e-19 547 0 c 2
 125 0 l 1
 125 74 l 1
 209 74 l 1
170 641 m 0
 150 641 135 635 125 623 c 0
 112.333 609 106 594.667 106 580 c 0
 106 563.333 111.667 548.333 123 535 c 0
 133 522.333 148.667 516 170 516 c 0
 191.333 516 207 522.333 217 535 c 0
 227.667 549.667 233 564.667 233 580 c 0
 233 596 227 610.333 215 623 c 0
 205 635 190 641 170 641 c 0
EndSplineSet
EndChar
StartChar: uni0E1C
Encoding: 158 3612
OldEncoding: 3612
Width: 768
Flags: W
Fore
193 461 m 1
 193 180 l 1
 385 389 l 1
 575 180 l 1
 575 696 l 1
 662 696 l 1
 662 0 l 1
 575 0 l 1
 575 52.6667 561.667 95 535 127 c 1
 385 295 l 1
 236 127 l 1
 207.333 96.3333 193 54 193 0 c 1
 106 0 l 1
 106 578 l 2
 106 614 117 644.667 139 670 c 1
 163.667 693.333 194.333 705 231 705 c 0
 271 705 302.667 692.667 326 668 c 0
 347.333 644 358 614.667 358 580 c 0
 358 543.333 347.333 513 326 489 c 0
 303.333 465 271.667 453 231 453 c 0
 218.333 453 205.667 455.667 193 461 c 1
231 514 m 0
 252.333 514 269 521 281 535 c 0
 291.667 549.667 297 564 297 578 c 0
 297 594 291.667 609 281 623 c 1
 268.333 635 251.667 641 231 641 c 0
 213 641 197.333 635 184 623 c 1
 173.333 607 168 592 168 578 c 0
 168 564 173.333 549.667 184 535 c 0
 196 521 211.667 514 231 514 c 0
EndSplineSet
EndChar
StartChar: uni0E1D
Encoding: 159 3613
OldEncoding: 3613
Width: 768
Flags: W
Fore
193 461 m 1
 193 180 l 1
 385 389 l 1
 575 180 l 1
 575 948 l 1
 662 948 l 1
 662 0 l 1
 575 0 l 1
 575 52.6667 561.667 95 535 127 c 1
 385 295 l 1
 236 127 l 1
 207.333 96.3333 193 54 193 0 c 1
 106 0 l 1
 106 578 l 2
 106 614 117 644.667 139 670 c 1
 163.667 693.333 194.333 705 231 705 c 0
 271 705 302.667 692.667 326 668 c 0
 347.333 644 358 614.667 358 580 c 0
 358 543.333 347.333 513 326 489 c 0
 303.333 465 271.667 453 231 453 c 0
 218.333 453 205.667 455.667 193 461 c 1
231 516 m 0
 252.333 516 269 523 281 537 c 0
 291.667 549.667 297 564 297 580 c 0
 297 593.333 291 607.667 279 623 c 1
 266.333 635 250.333 641 231 641 c 0
 211.667 641 196.667 635 186 623 c 0
 174 607.667 168 593.333 168 580 c 0
 168 564 173.333 549.667 184 537 c 0
 196 523 211.667 516 231 516 c 0
EndSplineSet
EndChar
StartChar: uni0E1E
Encoding: 160 3614
OldEncoding: 3614
Width: 888
Flags: W
Fore
209 0 m 1
 209 459 l 1
 199 455 186 453 170 453 c 0
 130 453 99.3333 466 78 492 c 1
 54.6667 516.667 43 546 43 580 c 0
 43 613.333 54.6667 642.667 78 668 c 0
 100.667 692.667 131.333 705 170 705 c 0
 192.667 705 214.667 699.333 236 688 c 0
 254.667 677.333 269.667 662.333 281 643 c 0
 290.333 626.333 295 604.667 295 578 c 2
 295 225 l 1
 502 696 l 1
 709 223 l 1
 709 696 l 1
 795 696 l 1
 795 0 l 1
 709 0 l 1
 707 39 l 1
 705.667 49.6667 700.667 65.3333 692 86 c 2
 502 530 l 1
 311 86 l 2
 305 72.6667 301 57 299 39 c 1
 295 0 l 1
 209 0 l 1
170 641 m 0
 150 641 135 635 125 623 c 0
 112.333 609 106 594.667 106 580 c 0
 106 563.333 111.667 548.333 123 535 c 0
 133 522.333 148.667 516 170 516 c 0
 191.333 516 207 522.333 217 535 c 0
 227.667 549.667 233 564.667 233 580 c 0
 233 596 227 610.333 215 623 c 0
 205 635 190 641 170 641 c 0
EndSplineSet
EndChar
StartChar: uni0E1F
Encoding: 161 3615
OldEncoding: 3615
Width: 888
Flags: W
Fore
209 0 m 1
 209 459 l 1
 199 455 186 453 170 453 c 0
 130 453 99.3333 466 78 492 c 1
 54.6667 516.667 43 546 43 580 c 0
 43 613.333 54.6667 642.667 78 668 c 0
 100.667 692.667 131.333 705 170 705 c 0
 192.667 705 214.667 699.333 236 688 c 0
 254.667 677.333 269.667 662.333 281 643 c 0
 290.333 626.333 295 604.667 295 578 c 2
 295 225 l 1
 502 696 l 1
 709 223 l 1
 709 948 l 1
 795 948 l 1
 795 0 l 1
 709 0 l 1
 707 39 l 1
 705.667 49.6667 700.667 65.3333 692 86 c 2
 502 530 l 1
 311 86 l 2
 305 72.6667 301 57 299 39 c 1
 295 0 l 1
 209 0 l 1
170 641 m 0
 148.667 641 133 635 123 623 c 0
 111.667 608.333 106 593.333 106 578 c 0
 106 562.667 111.667 548.333 123 535 c 1
 132.333 521 148 514 170 514 c 0
 192 514 207.667 521 217 535 c 1
 227.667 547.667 233 562 233 578 c 0
 233 594 227.667 609 217 623 c 0
 207 635 191.333 641 170 641 c 0
EndSplineSet
EndChar
StartChar: uni0E20
Encoding: 162 3616
OldEncoding: 3616
Width: 827
Flags: W
Fore
201 231 m 1
 201 346 l 2
 201 372.667 205 396.667 213 418 c 0
 219.667 438.667 229.333 453.667 242 463 c 0
 254 473 267.667 481 283 487 c 1
 274.333 494.333 255.667 505.333 227 520 c 0
 199 536 165.667 545 127 547 c 1
 146.333 575 183.333 609 238 649 c 0
 294.667 689 363.333 709 444 709 c 0
 526 709 592.333 689.667 643 651 c 0
 695 611 721 555 721 483 c 2
 721 0 l 1
 637 0 l 1
 637 483 l 2
 637 515.667 628 542.333 610 563 c 1
 594 586.333 571.667 604 543 616 c 0
 515 628.667 482.667 635 446 635 c 0
 372.667 635 309.333 612.333 256 567 c 1
 266.667 565 287 557.667 317 545 c 0
 345.667 532.333 372.333 514.667 397 492 c 1
 377 486.667 354.667 474.333 330 455 c 0
 301.333 434.333 287 399.333 287 350 c 2
 287 111 l 2
 287 75.6667 276 47 254 25 c 0
 231.333 0.333333 200 -12 160 -12 c 0
 122 -12 92 0.333333 70 25 c 0
 46.6667 49.6667 35 79.6667 35 115 c 0
 35 149.667 46 179 68 203 c 0
 90.6667 227.667 121.333 240 160 240 c 0
 178 240 191.667 237 201 231 c 1
160 51 m 0
 180.667 51 197 57.3333 209 70 c 0
 219.667 82.6667 225 97.6667 225 115 c 0
 225 129.667 219.667 144 209 158 c 1
 197 170 180.667 176 160 176 c 0
 140 176 125 170 115 158 c 0
 102.333 143.333 96 129 96 115 c 0
 96 98.3333 102.333 84 115 72 c 1
 124.333 58 139.333 51 160 51 c 0
EndSplineSet
EndChar
StartChar: uni0E21
Encoding: 163 3617
OldEncoding: 3617
Width: 798
Flags: W
Fore
225 303 m 1
 225 459 l 1
 215 455 202 453 186 453 c 0
 147.333 453 116.667 465 94 489 c 0
 72 513.667 61 544 61 580 c 0
 61 613.333 72 642.667 94 668 c 0
 117.333 692.667 148 705 186 705 c 0
 208.667 705 230.667 699.333 252 688 c 0
 272 676.667 287 661.667 297 643 c 0
 306.333 626.333 311 604.667 311 578 c 2
 311 303 l 1
 353.667 299 396 288 438 270 c 0
 481.333 251.333 516.333 231.667 543 211 c 1
 571 186.333 592 164.333 606 145 c 1
 606 696 l 1
 692 696 l 1
 692 0 l 1
 606 0 l 1
 606 26 592.333 56.6667 565 92 c 0
 537.667 128.667 501.667 160 457 186 c 0
 413.667 212 365 228.667 311 236 c 1
 311 106 l 2
 311 70.6667 301.667 42 283 20 c 1
 262.333 -1.33333 233.667 -12 197 -12 c 0
 154.333 -12 122 3 100 33 c 0
 77.3333 61.6667 66 96.3333 66 137 c 0
 66 179.667 79.3333 218 106 252 c 1
 134 284 173.667 301 225 303 c 1
158 78 m 1
 168.667 65.3333 181 59 195 59 c 0
 215 59 225 70.6667 225 94 c 2
 225 240 l 1
 197 240 175.333 230.333 160 211 c 0
 144.667 189.667 137 166.333 137 141 c 0
 137 112.333 144 91.3333 158 78 c 1
186 641 m 0
 167.333 641 151.667 635 139 623 c 1
 128.333 607 123 592 123 578 c 0
 123 564 128.333 549.667 139 535 c 0
 151 521 166.667 514 186 514 c 0
 208 514 223.667 521 233 535 c 1
 244.333 547.667 250 562 250 578 c 0
 250 594.667 244.333 609.667 233 623 c 0
 223 635 207.333 641 186 641 c 0
EndSplineSet
EndChar
StartChar: uni0E22
Encoding: 164 3618
OldEncoding: 3618
Width: 712
Flags: W
Fore
205 330 m 1
 163 343.333 131 366.333 109 399 c 0
 87 430.333 76 466.667 76 508 c 0
 76 560.667 93 607 127 647 c 0
 160.333 688.333 202 709 252 709 c 0
 287.333 709 317.333 697.333 342 674 c 1
 362.667 648 373 619.333 373 588 c 0
 373 554.667 362.667 526.667 342 504 c 1
 318.667 480.667 288.667 469 252 469 c 0
 224.667 469 204 473.667 190 483 c 0
 174 495.667 164.667 504 162 508 c 1
 162 459.333 178.333 423.667 211 401 c 0
 243 378.333 277.667 367 315 367 c 1
 315 291 l 1
 269 291 235 280 213 258 c 1
 188.333 236 176 206.667 176 170 c 2
 176 74 l 1
 457 74 l 2
 484.333 74 502 78 510 86 c 0
 516.667 92.6667 520 108.333 520 133 c 2
 520 696 l 1
 606 696 l 1
 606 133 l 2
 606 77.6667 596.667 41.6667 578 25 c 0
 557.333 8.33333 517 8.67362e-19 457 0 c 2
 90 0 l 1
 90 170 l 2
 90 201.333 95.3333 229.333 106 254 c 1
 117.333 275.333 130.333 291 145 301 c 2
 182 324 l 1
 205 330 l 1
252 530 m 0
 291.333 532 311 552 311 590 c 0
 311 607.333 306.333 621.667 297 633 c 0
 286.333 643.667 271.333 649 252 649 c 0
 234 649 219.667 643.667 209 633 c 0
 198.333 620.333 193 606 193 590 c 0
 193 575.333 198.333 561.667 209 549 c 0
 219.667 536.333 234 530 252 530 c 0
EndSplineSet
EndChar
StartChar: uni0E23
Encoding: 165 3619
OldEncoding: 3619
Width: 641
Flags: W
Fore
512 342 m 2
 512 111 l 2
 512 75 499.667 44.6667 475 20 c 0
 453.667 -1.33333 424.333 -12 387 -12 c 0
 347 -12 316.333 1 295 27 c 1
 271.667 51.6667 260 80.3333 260 113 c 0
 260 145.667 271.667 175.667 295 203 c 0
 317.667 227.667 347.667 240 385 240 c 0
 395.667 240 409.333 237.667 426 233 c 1
 426 338 l 2
 426 370.667 422.667 398.667 416 422 c 1
 408 441.333 395.667 456.333 379 467 c 1
 363.667 474.333 339.667 482.667 307 492 c 0
 259.667 504.667 209.333 515.333 156 524 c 2
 43 543 l 1
 68.3333 587.667 101.667 627.333 143 662 c 1
 183.667 693.333 228 709 276 709 c 0
 306 709 329.333 706.667 346 702 c 2
 416 680 l 1
 477 659 l 1
 492.333 655 507.333 653 522 653 c 0
 546 653 570 658.667 594 670 c 1
 610 598 l 1
 576.667 584.667 546 578 518 578 c 0
 497.333 578 481 580 469 584 c 2
 403 608 l 1
 332 633 l 2
 315.333 638.333 296.667 641 276 641 c 0
 254.667 641 232.333 635.667 209 625 c 1
 185 611 172 600.667 170 594 c 1
 170 594 l 1
 362 547 l 1
 428 532.333 469.667 509.667 487 479 c 0
 503.667 449.667 512 404 512 342 c 2
387 51 m 0
 408.333 51 424 57.3333 434 70 c 0
 445.333 83.3333 451 98.3333 451 115 c 0
 451 129 445.333 143.333 434 158 c 0
 424 170 408.333 176 387 176 c 0
 367 176 352 170 342 158 c 0
 330 143.333 324 129 324 115 c 0
 324 98.3333 330 84 342 72 c 1
 351.333 58 366.333 51 387 51 c 0
EndSplineSet
EndChar
StartChar: uni0E24
Encoding: 166 3620
OldEncoding: 3620
Width: 743
Flags: W
Fore
115 115 m 2
 115 346 l 2
 115 385.333 122.333 416.667 137 440 c 1
 154.333 461.333 174.333 477 197 487 c 1
 185.667 496.333 167.667 507.333 143 520 c 0
 115 536 81.6667 545 43 547 c 1
 61.6667 574.333 98 608.333 152 649 c 0
 206.667 689 275.333 709 358 709 c 0
 408 709 455.333 700.667 500 684 c 0
 541.333 668.667 574.667 643.333 600 608 c 0
 624.667 573.333 637 531.667 637 483 c 2
 637 -362 l 1
 551 -362 l 1
 551 483 l 2
 551 515.667 542 542.333 524 563 c 1
 508 586.333 485.667 604 457 616 c 0
 429 628.667 396.667 635 360 635 c 0
 286.667 635 223.333 612.333 170 567 c 1
 180.667 565 201 557.667 231 545 c 0
 259.667 532.333 286.333 514.667 311 492 c 1
 291 486.667 268.667 474.333 244 455 c 0
 215.333 434.333 201 399.333 201 350 c 2
 201 231 l 1
 206.333 237 220.667 240 244 240 c 0
 280.667 240 310.667 227.667 334 203 c 1
 354.667 177 365 147.667 365 115 c 0
 365 81 354.667 51.6667 334 27 c 0
 312 1 282 -12 244 -12 c 0
 207.333 -12 176.667 -0.333333 152 23 c 0
 127.333 45 115 75.6667 115 115 c 2
242 51 m 0
 263.333 51 279 57.3333 289 70 c 0
 299.667 82.6667 305 97.6667 305 115 c 0
 305 129.667 299.667 144 289 158 c 1
 276.333 170 260.667 176 242 176 c 0
 222 176 207 170 197 158 c 1
 184.333 145.333 178 131 178 115 c 0
 178 97.6667 183.667 82.6667 195 70 c 0
 207 57.3333 222.667 51 242 51 c 0
EndSplineSet
EndChar
StartChar: uni0E25
Encoding: 167 3621
OldEncoding: 3621
Width: 716
Flags: W
Fore
264 440 m 1
 205.333 434 176 383 176 287 c 1
 180 223 l 1
 183.333 226.333 189.667 229.667 199 233 c 0
 208.333 237.667 222 240 240 240 c 0
 278 240 308.667 227.667 332 203 c 0
 354 178.333 365 149 365 115 c 0
 365 77 354 47 332 25 c 0
 309.333 0.333333 278.667 -12 240 -12 c 0
 200 -12 169 1 147 27 c 0
 124.333 53.6667 110.667 83.6667 106 117 c 0
 98.6667 173 96 231 98 291 c 0
 98 347 111.667 397.333 139 442 c 0
 165.667 482.667 203.333 506 252 512 c 1
 305.333 512 351.667 494.333 391 459 c 1
 430.333 421.667 461 379.333 483 332 c 1
 524 240 l 1
 524 479 l 2
 524 529 506.333 568.667 471 598 c 0
 436.333 626.667 390.667 641 334 641 c 0
 240.667 641 167.667 604 115 530 c 1
 59 573 l 1
 79.6667 607.667 115.333 639.333 166 668 c 0
 217.333 695.333 274.667 709 338 709 c 0
 416 709 481.667 689 535 649 c 0
 585 611 610 554.333 610 479 c 2
 610 0 l 1
 524 0 l 1
 524 21.3333 516.667 58.3333 502 111 c 0
 486 161.667 466 211.333 442 260 c 0
 419.333 308.667 391.333 351.667 358 389 c 0
 328.667 423 297.333 440 264 440 c 1
240 176 m 0
 220.667 176 205 170 193 158 c 0
 181.667 144.667 176 129.667 176 113 c 0
 176 97 181.667 82.6667 193 70 c 0
 204.333 56 220 49 240 49 c 0
 261.333 49 277 56 287 70 c 0
 297.667 82.6667 303 97 303 113 c 0
 303 129 297.667 144 287 158 c 1
 275.667 170 260 176 240 176 c 0
EndSplineSet
EndChar
StartChar: uni0E26
Encoding: 168 3622
OldEncoding: 3622
Width: 827
Flags: W
Fore
201 231 m 1
 201 346 l 2
 201 372.667 205 396.667 213 418 c 0
 219.667 438.667 229.333 453.667 242 463 c 0
 254 473 267.667 481 283 487 c 1
 274.333 494.333 255.667 505.333 227 520 c 0
 199 536 165.667 545 127 547 c 1
 146.333 575 183.333 609 238 649 c 0
 294.667 689 363.333 709 444 709 c 0
 526 709 592.333 689.667 643 651 c 0
 695 611 721 555 721 483 c 2
 721 -362 l 1
 637 -362 l 1
 637 483 l 2
 637 515.667 628 542.333 610 563 c 1
 594 586.333 571.667 604 543 616 c 0
 515 628.667 482.667 635 446 635 c 0
 372.667 635 309.333 612.333 256 567 c 1
 266.667 565 287 557.667 317 545 c 0
 345.667 532.333 372.333 514.667 397 492 c 1
 377 486.667 354.667 474.333 330 455 c 0
 301.333 434.333 287 399.333 287 350 c 2
 287 111 l 2
 287 75.6667 276 47 254 25 c 0
 231.333 0.333333 200 -12 160 -12 c 0
 122 -12 92 0.333333 70 25 c 0
 46.6667 49.6667 35 79.6667 35 115 c 0
 35 149.667 46 179 68 203 c 0
 90.6667 227.667 121.333 240 160 240 c 0
 178 240 191.667 237 201 231 c 1
160 51 m 0
 180.667 51 197 57.3333 209 70 c 0
 219.667 82.6667 225 97.6667 225 115 c 0
 225 129.667 219.667 144 209 158 c 1
 197 170 180.667 176 160 176 c 0
 140 176 125 170 115 158 c 0
 102.333 143.333 96 129 96 115 c 0
 96 98.3333 102.333 84 115 72 c 1
 124.333 58 139.333 51 160 51 c 0
EndSplineSet
EndChar
StartChar: uni0E27
Encoding: 169 3623
OldEncoding: 3623
Width: 679
Flags: W
Fore
571 479 m 2
 571 115 l 2
 571 81 561.667 51.6667 543 27 c 0
 525 1 493.667 -12 449 -12 c 0
 409.667 -12 378.667 0.333333 356 25 c 0
 333.333 49.6667 322 79.6667 322 115 c 0
 322 149.667 332.667 179 354 203 c 0
 375.333 227.667 406 240 446 240 c 0
 460 240 473.667 237.667 487 233 c 1
 487 479 l 2
 487 533 470.667 573.333 438 600 c 0
 405.333 627.333 360.333 641 303 641 c 0
 256.333 641 213.333 629.333 174 606 c 0
 140 586 111.333 558.667 88 524 c 1
 35 567 l 1
 47 588.333 67.3333 611.667 96 637 c 0
 120.667 657 151.333 674 188 688 c 0
 225.333 702 263.667 709 303 709 c 0
 383.667 709 448.667 688.333 498 647 c 1
 546.667 608.333 571 552.333 571 479 c 2
446 176 m 0
 427.333 176 412.333 170 401 158 c 0
 389 143.333 383 129 383 115 c 0
 383 99 388.333 84.6667 399 72 c 0
 411 58 426.667 51 446 51 c 0
 467.333 51 483.333 57.3333 494 70 c 0
 504.667 82.6667 510 97.6667 510 115 c 0
 510 129.667 504.667 144 494 158 c 0
 483.333 170 467.333 176 446 176 c 0
EndSplineSet
EndChar
StartChar: uni0E28
Encoding: 170 3624
OldEncoding: 3624
Width: 751
Flags: W
Fore
582 633 m 1
 588.667 641.667 596.667 656 606 676 c 0
 616 694 625 715 633 739 c 1
 709 700 l 1
 698.333 668 685.333 642.333 670 623 c 0
 656 605 641 587 625 569 c 1
 638.333 542.333 645 510.333 645 473 c 2
 645 0 l 1
 559 0 l 1
 559 465 l 1
 555 510 l 1
 508 481 l 2
 486 468.333 469 460.333 457 457 c 1
 461 438 l 1
 463 410 l 1
 463 376 450.667 348 426 326 c 1
 402.667 302.667 373.333 291 338 291 c 0
 302 291 276 299 260 315 c 1
 260 0 l 1
 176 0 l 1
 176 125 l 2
 176 156.333 171.333 183.667 162 207 c 0
 153.333 226.333 137 255 113 293 c 0
 93 323.667 77.3333 353 66 381 c 1
 56 401 51 429 51 465 c 0
 51 516.333 64.6667 561.333 92 600 c 0
 120 638 157.667 666 205 684 c 0
 253.667 703.333 302 713 350 713 c 0
 446 713 523.333 686.333 582 633 c 1
524 567 m 1
 514 582.333 495 598.667 467 616 c 0
 437.667 635.333 398.667 645 350 645 c 0
 320.667 645 289.333 639.667 256 629 c 1
 220.667 615 192 595 170 569 c 0
 146.667 543 135 507 135 461 c 0
 135 437 142.667 409 158 377 c 0
 171.333 348.333 180 323.667 184 303 c 1
 184 369 l 2
 184 419 197 460.667 223 494 c 0
 250.333 526.667 288.667 543 338 543 c 0
 357.333 543 373 541 385 537 c 1
 401 527.667 411.333 520.667 416 516 c 2
 428 506 l 1
 443.333 510 459.667 518 477 530 c 0
 498.333 544.667 514 557 524 567 c 1
338 479 m 0
 316.667 479 301 473 291 461 c 0
 279.667 447.667 274 432.667 274 416 c 0
 274 400.667 279.667 386.333 291 373 c 1
 300.333 359 316 352 338 352 c 0
 360 352 375.667 359 385 373 c 1
 395.667 385.667 401 400 401 416 c 0
 401 433.333 395.667 448.333 385 461 c 0
 375 473 359.333 479 338 479 c 0
EndSplineSet
EndChar
StartChar: uni0E29
Encoding: 171 3625
OldEncoding: 3625
Width: 823
Flags: W
Fore
696 283 m 1
 696 133 l 2
 696 77.6667 686.667 41.6667 668 25 c 0
 649.333 8.33333 609 8.67362e-19 547 0 c 2
 125 0 l 1
 125 74 l 1
 209 74 l 1
 209 459 l 1
 199 455 186 453 170 453 c 0
 130 453 99.3333 466 78 492 c 1
 54.6667 516.667 43 546 43 580 c 0
 43 613.333 54.6667 642.667 78 668 c 0
 100.667 692.667 131.333 705 170 705 c 0
 192.667 705 214.667 699.333 236 688 c 0
 254.667 677.333 269.667 662.333 281 643 c 0
 290.333 626.333 295 604.667 295 578 c 2
 295 74 l 1
 547 74 l 2
 575 74 592 78 598 86 c 1
 606 92 610 107.667 610 133 c 2
 610 256 l 1
 596.667 253.333 578.333 252 555 252 c 0
 500.333 254 452.667 265 412 285 c 0
 370 304.333 348 339 346 389 c 0
 346 417.667 355 443 373 465 c 0
 392.333 488.333 420.333 500 457 500 c 0
 495 500 523.667 489.667 543 469 c 1
 561.667 445 571 419 571 391 c 0
 571 357 560.333 331.667 539 315 c 1
 610 317 l 1
 610 696 l 1
 696 696 l 1
 696 350 l 1
 707.333 357.333 721 373.667 737 399 c 0
 750.333 417.667 758 448.667 760 492 c 1
 827 492 l 1
 827 429.333 815 384.667 791 358 c 1
 763 329.333 731.333 304.333 696 283 c 1
457 336 m 0
 468.333 336 478.333 338.667 487 344 c 0
 496.333 350 502.667 357 506 365 c 0
 510 373 512 381.667 512 391 c 0
 512 407.667 507.333 420.667 498 430 c 0
 486 440.667 472.333 446 457 446 c 0
 440.333 446 426.667 440.667 416 430 c 0
 406 420 401 407 401 391 c 0
 401 378.333 406 365.333 416 352 c 1
 426.667 341.333 440.333 336 457 336 c 0
170 641 m 0
 148.667 641 133 635 123 623 c 0
 111.667 608.333 106 593.333 106 578 c 0
 106 562.667 111.667 548.333 123 535 c 1
 132.333 521 148 514 170 514 c 0
 192 514 207.667 521 217 535 c 1
 227.667 547.667 233 562 233 578 c 0
 233 594 227.667 609 217 623 c 0
 207 635 191.333 641 170 641 c 0
EndSplineSet
EndChar
StartChar: uni0E2A
Encoding: 172 3626
OldEncoding: 3626
Width: 716
Flags: W
Fore
240 176 m 0
 220.667 176 205 170 193 158 c 0
 181.667 144.667 176 129.667 176 113 c 0
 176 97 181.667 82.6667 193 70 c 0
 204.333 56 220 49 240 49 c 0
 261.333 49 277 56 287 70 c 0
 297.667 82.6667 303 97 303 113 c 0
 303 129 297.667 144 287 158 c 1
 275.667 170 260 176 240 176 c 0
502 563 m 1
 502 558.333 489 537.333 463 500 c 1
 435.667 464.667 422 443.333 422 436 c 1
 438.667 417.333 454.333 394.333 469 367 c 1
 504 293 l 1
 524 240 l 1
 524 479 l 2
 524 507.667 516.667 535.667 502 563 c 1
385 485 m 2
 385.667 485 400 505 428 545 c 2
 467 602 l 1
 437 628 392.667 641 334 641 c 0
 240.667 641 167.667 604 115 530 c 1
 59 573 l 1
 79.6667 607.667 115.333 639.333 166 668 c 0
 217.333 695.333 274.667 709 338 709 c 0
 398 709 452 696.667 500 672 c 1
 503.333 672 515.667 687.667 537 719 c 0
 557 750.333 570.667 766 578 766 c 1
 598 754 l 1
 631 731 l 2
 639 725 643 719 643 713 c 1
 596 657 l 1
 574 635.667 563 623.667 563 621 c 1
 594.333 583.667 610 536.333 610 479 c 2
 610 0 l 1
 524 0 l 1
 524 21.3333 516.667 58.3333 502 111 c 0
 486 161.667 466 211.333 442 260 c 0
 419.333 308.667 391.333 351.667 358 389 c 0
 328.667 423 297.333 440 264 440 c 1
 205.333 434 176 383 176 287 c 1
 180 223 l 1
 183.333 226.333 189.667 229.667 199 233 c 0
 208.333 237.667 222 240 240 240 c 0
 278 240 308.667 227.667 332 203 c 0
 354 178.333 365 149 365 115 c 0
 365 77 354 47 332 25 c 0
 309.333 0.333333 278.667 -12 240 -12 c 0
 200 -12 169 1 147 27 c 0
 124.333 53.6667 110.667 83.6667 106 117 c 0
 98.6667 173 96 231 98 291 c 0
 98 347 111.667 397.333 139 442 c 0
 165.667 482.667 203.333 506 252 512 c 1
 294 512 324.667 506.667 344 496 c 1
 354 494 l 1
 375 489 l 1
 385 485 l 2
EndSplineSet
EndChar
StartChar: uni0E2B
Encoding: 173 3627
OldEncoding: 3627
Width: 823
Flags: W
Fore
209 0 m 1
 209 459 l 1
 199 455 186 453 170 453 c 0
 130 453 99.3333 466 78 492 c 1
 54.6667 516.667 43 546 43 580 c 0
 43 613.333 54.6667 642.667 78 668 c 0
 100.667 692.667 131.333 705 170 705 c 0
 192.667 705 214.667 699.333 236 688 c 0
 254.667 677.333 269.667 662.333 281 643 c 0
 290.333 626.333 295 604.667 295 578 c 2
 295 260 l 1
 318.333 316.667 353.667 364.333 401 403 c 0
 451 444.333 486.667 469.667 508 479 c 1
 478 501 463 534 463 578 c 0
 463 610.667 474.667 640.667 498 668 c 0
 520.667 692.667 552 705 592 705 c 0
 632 705 663.333 692.667 686 668 c 0
 708 644 719 614.667 719 580 c 0
 719 558.667 713.333 537.333 702 516 c 0
 688.667 494 672.333 478.333 653 469 c 1
 666.333 464.333 679.333 451.333 692 430 c 1
 708.667 410.667 717 377.333 717 330 c 2
 717 0 l 1
 633 0 l 1
 633 330 l 2
 633 368.667 626 396 612 412 c 1
 596 428 584.667 437.333 578 440 c 1
 489.333 395.333 420.333 332.667 371 252 c 1
 320.333 174 295 99 295 27 c 2
 295 0 l 1
 209 0 l 1
592 643 m 0
 572 643 557 637 547 625 c 0
 534.333 611 528 596 528 580 c 0
 528 564 534.333 549.667 547 537 c 1
 556.333 523 571.333 516 592 516 c 0
 614 516 629.667 523 639 537 c 1
 649.667 549.667 655 564 655 580 c 0
 655 596 649.667 611 639 625 c 0
 629 637 613.333 643 592 643 c 0
170 641 m 0
 148.667 641 133 635 123 623 c 0
 111.667 608.333 106 593.333 106 578 c 0
 106 562.667 111.667 548.333 123 535 c 1
 132.333 521 148 514 170 514 c 0
 192 514 207.667 521 217 535 c 1
 227.667 547.667 233 562 233 578 c 0
 233 594 227.667 609 217 623 c 0
 207 635 191.333 641 170 641 c 0
EndSplineSet
EndChar
StartChar: uni0E2C
Encoding: 174 3628
OldEncoding: 3628
Width: 888
Flags: W
Fore
209 0 m 1
 209 459 l 1
 199 455 186 453 170 453 c 0
 130 453 99.3333 466 78 492 c 1
 54.6667 516.667 43 546 43 580 c 0
 43 613.333 54.6667 642.667 78 668 c 0
 100.667 692.667 131.333 705 170 705 c 0
 192.667 705 214.667 699.333 236 688 c 0
 254.667 677.333 269.667 662.333 281 643 c 0
 290.333 626.333 295 604.667 295 578 c 2
 295 223 l 1
 500 666 l 1
 696 223 l 1
 696 582 l 1
 652.667 582 620 592.667 598 614 c 0
 577.333 636 567 663.333 567 696 c 0
 567 726.667 578 752 600 772 c 0
 622.667 792.667 650.667 803 684 803 c 0
 714.667 803 740 792 760 770 c 0
 780.667 747.333 791 718.667 791 684 c 1
 800.333 688 813 698.333 829 715 c 0
 845 730.333 857.333 752.667 866 782 c 1
 926 748 l 1
 913.333 709.333 892 677 862 651 c 0
 828 622.333 801.333 604.667 782 598 c 1
 782 0 l 1
 696 0 l 2
 694.667 0 694 5.33333 694 16 c 1
 690 53 l 1
 684 86 l 1
 500 492 l 1
 311 86 l 1
 305 72 301 57 299 41 c 1
 295 0 l 1
 209 0 l 1
170 641 m 0
 148.667 641 133 635 123 623 c 0
 111.667 608.333 106 593.333 106 578 c 0
 106 562.667 111.667 548.333 123 535 c 1
 132.333 521 148 514 170 514 c 0
 192 514 207.667 521 217 535 c 1
 227.667 547.667 233 562 233 578 c 0
 233 594 227.667 609 217 623 c 0
 207 635 191.333 641 170 641 c 0
678 641 m 0
 694.667 641 708.333 646.333 719 657 c 1
 727 668.333 731 680.667 731 694 c 0
 731 710 727 723 719 733 c 1
 709 743 695.333 748 678 748 c 0
 662.667 748 650.333 742.333 641 731 c 0
 631.667 721.667 627 709.333 627 694 c 0
 627 679.333 631.667 667 641 657 c 0
 649.667 646.333 662 641 678 641 c 0
EndSplineSet
EndChar
StartChar: uni0E2D
Encoding: 175 3629
OldEncoding: 3629
Width: 735
Flags: W
Fore
201 256 m 1
 201 133 l 2
 201 107.667 205 92 213 86 c 1
 219 78 236 74 264 74 c 2
 479 74 l 2
 506.333 74 524 78 532 86 c 0
 539.333 92 543 107.667 543 133 c 2
 543 479 l 2
 543 530.333 525 570 489 598 c 0
 451.667 628 405.333 643 350 643 c 0
 260 645 187 607.333 131 530 c 1
 78 573 l 1
 97.3333 607 132 638.667 182 668 c 1
 233.333 695.333 290.667 709 354 709 c 0
 406 709 453.333 700 496 682 c 0
 537.333 664 570 638 594 604 c 1
 617.333 566.667 629 525 629 479 c 2
 629 133 l 2
 629 78.3333 619.333 42.3333 600 25 c 0
 580.667 8.33333 540.333 8.67362e-19 479 0 c 2
 264 0 l 2
 223.333 0 192 3.33333 170 10 c 0
 148.667 16.6667 135 29 129 47 c 1
 119.667 65 115 93.6667 115 133 c 2
 115 373 l 2
 115 390.333 119 408 127 426 c 1
 133.667 446 146.667 463 166 477 c 0
 184.667 492.333 210.667 500 244 500 c 0
 282 500 312.667 487.667 336 463 c 0
 358 438.333 369 409 369 375 c 0
 369 339 358 309 336 285 c 0
 313.333 260.333 282.667 248 244 248 c 0
 234.667 248 220.333 250.667 201 256 c 1
242 311 m 0
 261.333 311 277 318 289 332 c 0
 299.667 342.667 305 356.333 305 373 c 0
 305 390.333 299.667 405.333 289 418 c 0
 279 430 263.333 436 242 436 c 0
 221.333 436 205.667 430.667 195 420 c 0
 183.667 407.333 178 392.333 178 375 c 0
 178 357.667 183.667 342.667 195 330 c 0
 207 317.333 222.667 311 242 311 c 0
EndSplineSet
EndChar
StartChar: uni0E2E
Encoding: 176 3630
OldEncoding: 3630
Width: 735
Flags: W
Fore
115 133 m 2
 115 303 l 2
 115 330.333 124.333 359 143 389 c 0
 161.667 417.667 195.333 432 244 432 c 0
 282.667 432 313.333 419.667 336 395 c 0
 358 371 369 341.667 369 307 c 0
 369 274.333 358 244.333 336 217 c 1
 312.667 192.333 282 180 244 180 c 0
 228 180 213.667 182.667 201 188 c 1
 201 133 l 2
 201 107.667 205 92 213 86 c 1
 219 78 236 74 264 74 c 2
 479 74 l 2
 506.333 74 524 78 532 86 c 0
 539.333 92 543 107.667 543 133 c 2
 543 516 l 1
 527 503.333 498.333 491.667 457 481 c 0
 409 470.333 368 465 334 465 c 0
 272 465 216 475.333 166 496 c 0
 115.333 516 90 544.667 90 582 c 0
 90 612 103 635.667 129 653 c 0
 156.333 672.333 188.333 686.667 225 696 c 0
 262.333 704.667 298.667 709 334 709 c 0
 383.333 709 427.667 703.333 467 692 c 0
 498.333 683.333 527 670.333 553 653 c 2
 582 633 l 1
 582 633 l 1
 612 663 635.667 689.667 653 713 c 1
 713 666 l 1
 689.667 632.667 671.667 610.667 659 600 c 0
 642.333 584.667 628.667 573.667 618 567 c 1
 623.333 563 627 555 629 543 c 1
 629 133 l 2
 629 78.3333 619.333 42.3333 600 25 c 0
 580.667 8.33333 540.333 8.67362e-19 479 0 c 2
 264 0 l 2
 223.333 0 192 3.33333 170 10 c 0
 148.667 16.6667 135 29 129 47 c 1
 119.667 65 115 93.6667 115 133 c 2
334 535 m 0
 368.667 535 400.667 539 430 547 c 1
 459.333 553 482.667 559.667 500 567 c 0
 516 575 524 580 524 582 c 1
 511.333 594.667 491.667 608.333 465 623 c 1
 432.333 637.667 388.667 645 334 645 c 0
 292 645 255.667 640.333 225 631 c 0
 192.333 621 176 606 176 586 c 0
 176 552 228.667 535 334 535 c 0
242 242 m 0
 263.333 242 279 248 289 260 c 0
 299.667 274.667 305 289.667 305 305 c 0
 305 322.333 299.667 337.333 289 350 c 0
 278.333 362.667 262.667 369 242 369 c 0
 223.333 369 207.667 362.667 195 350 c 0
 183.667 340 178 325 178 305 c 0
 178 287.667 183.667 272.667 195 260 c 0
 207 248 222.667 242 242 242 c 0
EndSplineSet
EndChar
StartChar: uni0E2F
Encoding: 177 3631
OldEncoding: 3631
Width: 684
Flags: W
Fore
209 709 m 0
 249 709 279.667 697.333 301 674 c 0
 323 650 334 620.667 334 586 c 0
 334 554 323 525.333 301 500 c 0
 279.667 474 251.667 461 217 461 c 0
 197.667 461 182.667 463.667 172 469 c 2
 150 479 l 1
 160 454.333 176.333 433.333 199 416 c 1
 219.667 398 247.667 389 283 389 c 0
 321.667 389 356.333 403.333 387 432 c 0
 418.333 461.333 444.333 499 465 545 c 1
 483 592.333 492 642.667 492 696 c 1
 578 696 l 1
 578 217 l 2
 578 147 560.667 93.6667 526 57 c 0
 492 20.3333 436 -7.66667 358 -27 c 1
 338 51 l 1
 397.333 65.6667 439 85 463 109 c 1
 482.333 132.333 492 171 492 225 c 2
 492 457 l 1
 472 407.667 444.667 372 410 350 c 0
 370 325.333 329 313 287 313 c 0
 241 313 198.667 326 160 352 c 0
 119.333 378.667 92 413.667 78 457 c 0
 71.3333 481.667 68 506 68 530 c 0
 68 582 78.6667 624.333 100 657 c 0
 122.667 691.667 159 709 209 709 c 0
213 520 m 0
 234.333 520 250 526.333 260 539 c 0
 270.667 551.667 276 566.667 276 584 c 0
 276 600 270 614.333 258 627 c 0
 248 639 233 645 213 645 c 0
 193 645 178 639 168 627 c 0
 157.333 613 152 598.667 152 584 c 0
 152 566.667 157.333 551.667 168 539 c 0
 178 526.333 193 520 213 520 c 0
EndSplineSet
EndChar
StartChar: uni0E30
Encoding: 178 3632
OldEncoding: 3632
Width: 567
Flags: W
Fore
231 457 m 0
 167 457 120 470 90 496 c 1
 58.6667 520 43 550.667 43 588 c 0
 43 620 54.6667 648.667 78 674 c 0
 101.333 697.333 130 709 164 709 c 0
 206.667 709 238 698 258 676 c 0
 278.667 653.333 289 626.667 289 596 c 0
 289 570.667 280.667 546.667 264 524 c 1
 286.667 524 316 534.333 352 555 c 1
 388 578.333 406 625.333 406 696 c 1
 492 696 l 1
 492 644.667 481.667 601 461 565 c 1
 436.333 527.667 406.333 500.333 371 483 c 0
 333.667 465.667 287 457 231 457 c 0
231 0 m 0
 169 0 122 13 90 39 c 0
 58.6667 66.3333 43 97 43 131 c 0
 43 161.667 54.6667 189.667 78 215 c 0
 101.333 241.667 130 254 164 252 c 0
 190 252 214 245.667 236 233 c 0
 251.333 224.333 264.667 211 276 193 c 0
 284.667 176.333 289 158.333 289 139 c 0
 289 113 280.667 89.3333 264 68 c 1
 288.667 68 318 78.6667 352 100 c 0
 388 121.333 406 168 406 240 c 1
 492 240 l 1
 492 188 481.667 144.333 461 109 c 0
 437.667 71 407.667 43.6667 371 27 c 0
 334.333 9 287.667 0 231 0 c 0
164 197 m 0
 146.667 197 132.333 191.333 121 180 c 0
 111 168 106 153.667 106 137 c 0
 106 124.333 111.667 110.667 123 96 c 0
 133 84 146.667 78 164 78 c 0
 183.333 78 198.333 83.3333 209 94 c 0
 218.333 105.333 223 119.667 223 137 c 0
 223 156.333 218.333 170.667 209 180 c 0
 197.667 191.333 182.667 197 164 197 c 0
164 653 m 0
 146 653 131.667 647.667 121 637 c 0
 111 625 106 610.667 106 594 c 0
 106 580 111.667 566.333 123 553 c 0
 133 541 146.667 535 164 535 c 0
 184 535 199 541 209 553 c 0
 218.333 562.333 223 576 223 594 c 0
 223 633.333 203.333 653 164 653 c 0
EndSplineSet
EndChar
StartChar: uni0E31
Encoding: 179 3633
OldEncoding: 3633
Width: 0
Flags: W
Fore
-432 975 m 1
 -432 1015.67 -421.667 1047.67 -401 1071 c 1
 -381.667 1097 -352.333 1110 -313 1110 c 0
 -276.333 1110 -246.333 1098.33 -223 1075 c 0
 -201 1051 -190 1023.67 -190 993 c 0
 -190 959 -203 929.667 -229 905 c 1
 -223 903 -211 901 -193 899 c 2
 -156 895 l 1
 -118 897 -80.3333 906 -43 922 c 0
 -1.66667 940 30.3333 962.333 53 989 c 1
 79 1017 97.6667 1050.67 109 1090 c 1
 180 1055 l 1
 168.667 1016.33 146.333 978.667 113 942 c 1
 80.3333 909.333 40 881.333 -8 858 c 0
 -58 834.667 -108.667 823 -160 823 c 0
 -224.667 821 -286 832.667 -344 858 c 0
 -396.667 882.667 -426 921.667 -432 975 c 1
-313 932 m 0
 -296.333 932 -282 937.333 -270 948 c 1
 -260.667 960 -256 974.333 -256 991 c 0
 -256 1010.33 -260.667 1024.67 -270 1034 c 0
 -282.667 1045.33 -297 1051 -313 1051 c 0
 -330.333 1051 -344.667 1045.33 -356 1034 c 0
 -367.333 1024 -373 1009.67 -373 991 c 0
 -373 977 -367.333 963.333 -356 950 c 0
 -346 938 -331.667 932 -313 932 c 0
EndSplineSet
EndChar
StartChar: uni0E32
Encoding: 180 3634
OldEncoding: 3634
Width: 606
Flags: W
Fore
27 555 m 1
 53.6667 605 84.3333 643.333 119 670 c 0
 154.333 696 202 709 262 709 c 0
 332.667 709 390 691 434 655 c 0
 478 620.333 500 570 500 504 c 2
 500 0 l 1
 414 0 l 1
 414 508 l 2
 414 552.667 400.333 586.667 373 610 c 0
 345.667 633.333 308.667 645 262 645 c 0
 221.333 645 186.667 634 158 612 c 0
 127.333 590 104.667 560.667 90 524 c 1
 59 541 l 1
 27 555 l 1
EndSplineSet
EndChar
StartChar: uni0E33
Encoding: 181 3635
OldEncoding: 3635
Width: 606
Flags: W
Fore
-150 825 m 0
 -188 825 -218.667 837.333 -242 862 c 0
 -264.667 888 -276 917.333 -276 950 c 0
 -276 985.333 -265.333 1014.67 -244 1038 c 0
 -221.333 1062.67 -190 1075 -150 1075 c 0
 -110.667 1075 -79.6667 1062.67 -57 1038 c 0
 -35.6667 1014.67 -25 985.333 -25 950 c 0
 -25 915.333 -35.6667 886 -57 862 c 0
 -80.3333 837.333 -111.333 825 -150 825 c 0
27 555 m 1
 53.6667 605 84.3333 643.333 119 670 c 0
 154.333 696 202 709 262 709 c 0
 332.667 709 390 691 434 655 c 0
 478 620.333 500 570 500 504 c 2
 500 0 l 1
 414 0 l 1
 414 508 l 2
 414 552.667 400.333 586.667 373 610 c 0
 345.667 633.333 308.667 645 262 645 c 0
 221.333 645 186.667 634 158 612 c 0
 127.333 590 104.667 560.667 90 524 c 1
 59 541 l 1
 27 555 l 1
-150 1020 m 0
 -172 1020 -189 1013 -201 999 c 0
 -213 985 -219 968.667 -219 950 c 0
 -219 931.333 -213 915 -201 901 c 0
 -188.333 887.667 -171.333 881 -150 881 c 0
 -136.667 881 -124.333 884.333 -113 891 c 0
 -103 896.333 -94.6667 905.333 -88 918 c 0
 -82.6667 926.667 -80 937.333 -80 950 c 0
 -80 968.667 -86 985 -98 999 c 0
 -110 1013 -127.333 1020 -150 1020 c 0
EndSplineSet
EndChar
StartChar: uni0E34
Encoding: 182 3636
OldEncoding: 3636
Width: 0
Flags: W
Fore
-358 1106 m 1
 -268 1094 -203.333 1059 -164 1001 c 0
 -125.333 941 -99.3333 879 -86 815 c 1
 -193 850 l 2
 -230.333 861.333 -281.333 871 -346 879 c 0
 -383.333 883 -421 885 -459 885 c 2
 -580 881 l 1
 -657 870 l 1
 -651 910.667 -633.333 949.667 -604 987 c 1
 -578 1024.33 -543.333 1053 -500 1073 c 1
 -458.667 1095 -411.333 1106 -358 1106 c 1
-375 1042 m 1
 -418.333 1042 -456.333 1031.33 -489 1010 c 1
 -525 988.667 -545.667 965.333 -551 940 c 1
 -510 944 l 1
 -428 946 l 1
 -358 944 l 1
 -306 940 -264.333 932 -233 920 c 0
 -209 911.333 -189.333 902.333 -174 893 c 1
 -212.667 978.333 -279.667 1028 -375 1042 c 1
EndSplineSet
EndChar
StartChar: uni0E35
Encoding: 183 3637
OldEncoding: 3637
Width: 81
Flags: W
Fore
-147 1026 m 1
 -147 1188 l 1
 -70 1188 l 1
 -70 903 l 1
 -70 903 l 1
 -61 881 l 1
 -45 815 l 1
 -152 850 l 2
 -189.333 861.333 -240.333 871 -305 879 c 0
 -341.667 883 -379.333 885 -418 885 c 2
 -539 881 l 1
 -616 870 l 1
 -610 910.667 -592.333 949.667 -563 987 c 1
 -537.667 1023 -503 1052.33 -459 1075 c 0
 -417 1095.67 -369.667 1106 -317 1106 c 1
 -284.333 1102 -255 1093.67 -229 1081 c 0
 -209.667 1073 -190.667 1062.33 -172 1049 c 1
 -147 1026 l 1
-334 1042 m 1
 -362 1042 -389.333 1036.67 -416 1026 c 0
 -442.667 1014.67 -463 1001.67 -477 987 c 1
 -491.667 975 -502.667 959.333 -510 940 c 1
 -469 944 l 1
 -387 946 l 1
 -317 944 l 1
 -264.333 940 -223 932 -193 920 c 0
 -168.333 911.333 -148.333 902.333 -133 893 c 1
 -147.667 929 -170.333 961 -201 989 c 0
 -231.667 1018.33 -276 1036 -334 1042 c 1
EndSplineSet
EndChar
StartChar: uni0E36
Encoding: 184 3638
OldEncoding: 3638
Width: 0
Flags: W
Fore
-76 1090 m 0
 -76 1062.67 -82.6667 1039.33 -96 1020 c 0
 -110.667 999.333 -129.333 987 -152 983 c 1
 -144.667 973 -133 951.333 -117 918 c 0
 -102.333 888.667 -92 854.333 -86 815 c 1
 -193 850 l 2
 -230.333 861.333 -281.333 871 -346 879 c 0
 -383.333 883 -421 885 -459 885 c 2
 -580 881 l 1
 -657 870 l 1
 -648.333 916 -630.667 957 -604 993 c 0
 -579.333 1028.33 -546.667 1057 -506 1079 c 0
 -467.333 1099.67 -429.667 1110 -393 1110 c 1
 -348 1106 l 1
 -311 1098 l 1
 -297 1092 l 1
 -297 1119.33 -286.667 1143.67 -266 1165 c 1
 -248 1188.33 -222 1200 -188 1200 c 0
 -152 1200 -124.667 1189.67 -106 1169 c 0
 -88 1147 -78 1120.67 -76 1090 c 0
-186 1145 m 0
 -204.667 1145 -217.667 1140 -225 1130 c 1
 -235 1120.67 -240 1108.67 -240 1094 c 0
 -240 1080 -235 1068.33 -225 1059 c 0
 -213.667 1047.67 -200.667 1042 -186 1042 c 0
 -173.333 1042 -161.333 1047.67 -150 1059 c 0
 -140 1068.33 -135 1080 -135 1094 c 0
 -135 1108 -139 1120 -147 1130 c 1
 -157 1140 -170 1145 -186 1145 c 0
-375 1042 m 1
 -403 1042 -430.333 1036.67 -457 1026 c 0
 -483.667 1014.67 -504 1001.67 -518 987 c 1
 -532.667 975 -543.667 959.333 -551 940 c 1
 -510 944 l 1
 -428 946 l 1
 -358 944 l 1
 -306 940 -264.333 932 -233 920 c 0
 -209 911.333 -189.333 902.333 -174 893 c 1
 -186.667 925.667 -209.333 957 -242 987 c 0
 -272 1015.67 -316.333 1034 -375 1042 c 1
EndSplineSet
EndChar
StartChar: uni0E37
Encoding: 185 3639
OldEncoding: 3639
Width: 81
Flags: W
Fore
-70 901 m 1
 -67.3333 901 -59 872.333 -45 815 c 1
 -152 850 l 2
 -189.333 861.333 -240.333 871 -305 879 c 0
 -341.667 883 -379.333 885 -418 885 c 2
 -539 881 l 1
 -616 870 l 1
 -610.667 912 -593 952.333 -563 991 c 0
 -533.667 1029.67 -501 1058.33 -465 1077 c 1
 -427.667 1099 -388 1110 -346 1110 c 0
 -330 1110 -315 1108 -301 1104 c 1
 -301 1188 l 1
 -223 1188 l 1
 -223 1079 l 1
 -191.667 1067.67 -166.333 1049.33 -147 1024 c 1
 -147 1188 l 1
 -70 1188 l 1
 -70 901 l 1
-334 1042 m 1
 -376.667 1042 -415 1031.33 -449 1010 c 0
 -484.333 988 -504.667 964.667 -510 940 c 1
 -469 944 l 1
 -387 946 l 1
 -317 944 l 1
 -264.333 940 -223 932 -193 920 c 0
 -168.333 911.333 -148.333 902.333 -133 893 c 1
 -171.667 978.333 -238.667 1028 -334 1042 c 1
EndSplineSet
EndChar
StartChar: uni0E38
Encoding: 186 3640
OldEncoding: 3640
Width: 0
Flags: W
Fore
-106 -512 m 1
 -193 -512 l 1
 -193 -332 l 1
 -205 -336 -219.333 -338 -236 -338 c 0
 -275.333 -338 -305.333 -325.667 -326 -301 c 0
 -347.333 -277 -358 -247.667 -358 -213 c 0
 -358 -179 -347.333 -149 -326 -123 c 1
 -303.333 -98.3333 -271.667 -86 -231 -86 c 0
 -194.333 -86 -165 -97 -143 -119 c 0
 -118.333 -141.667 -106 -171.667 -106 -209 c 2
 -106 -512 l 1
-231 -274 m 0
 -213 -274 -197.333 -268 -184 -256 c 0
 -173.333 -245.333 -168 -231 -168 -213 c 0
 -168 -195.667 -173.333 -180.667 -184 -168 c 0
 -194.667 -156 -210.333 -150 -231 -150 c 0
 -251.667 -150 -268.333 -156.667 -281 -170 c 0
 -291.667 -182.667 -297 -197 -297 -213 c 0
 -297 -229.667 -291 -244 -279 -256 c 0
 -266.333 -268 -250.333 -274 -231 -274 c 0
EndSplineSet
EndChar
StartChar: uni0E39
Encoding: 187 3641
OldEncoding: 3641
Width: 0
Flags: W
Fore
-385 -410 m 2
 -385 -332 l 1
 -397 -336 -410.667 -338 -426 -338 c 0
 -464.667 -338 -494.667 -325 -516 -299 c 0
 -539.333 -271.667 -551 -242.333 -551 -211 c 0
 -551 -179.667 -539.333 -150.333 -516 -123 c 0
 -494 -98.3333 -463.333 -86 -424 -86 c 0
 -386.667 -86 -357.333 -97 -336 -119 c 1
 -311.333 -140.333 -299 -170.333 -299 -209 c 2
 -299 -410 l 2
 -299 -423.333 -293.667 -435.333 -283 -446 c 0
 -273 -456 -260.667 -461 -246 -461 c 0
 -230.667 -461 -218.333 -456 -209 -446 c 0
 -198.333 -435.333 -193 -423.333 -193 -410 c 2
 -193 -94 l 1
 -106 -94 l 1
 -106 -410 l 2
 -106 -444.667 -119.667 -474 -147 -498 c 0
 -173 -519.333 -206 -530 -246 -530 c 0
 -282 -530 -314 -518.667 -342 -496 c 0
 -370.667 -473.333 -385 -444.667 -385 -410 c 2
-424 -274 m 0
 -402.667 -274 -387 -268 -377 -256 c 0
 -365.667 -242.667 -360 -228.333 -360 -213 c 0
 -360 -197.667 -365.667 -183.333 -377 -170 c 1
 -386.333 -156.667 -402 -150 -424 -150 c 0
 -445.333 -150 -461 -156 -471 -168 c 0
 -481.667 -180.667 -487 -195.667 -487 -213 c 0
 -487 -229.667 -481 -244 -469 -256 c 1
 -459 -268 -444 -274 -424 -274 c 0
EndSplineSet
EndChar
StartChar: uni0E3A
Encoding: 188 3642
OldEncoding: 3642
Width: 0
Flags: W
Fore
-150 -127 m 1
 -128.667 -127 -112.667 -133 -102 -145 c 1
 -91.3333 -161 -86 -177 -86 -193 c 0
 -86 -207 -91.3333 -222 -102 -238 c 1
 -112.667 -250 -128.667 -256 -150 -256 c 0
 -170 -256 -185.667 -250 -197 -238 c 0
 -209 -223.333 -215 -208.333 -215 -193 c 0
 -215 -178.333 -209.667 -163 -199 -147 c 1
 -187 -135.667 -170.667 -129 -150 -127 c 1
EndSplineSet
EndChar
StartChar: uni0E3F
Encoding: 189 3647
OldEncoding: 3647
Width: 878
Flags: W
Fore
514 34 m 2
 483 34 l 1
 483 -31 l 1
 398 -31 l 1
 398 34 l 1
 74 34 l 1
 74 58 l 1
 121.333 58 153.333 65 170 79 c 0
 187.333 93.6667 196 124.333 196 171 c 2
 196 732 l 2
 196 774.667 188.333 805 173 823 c 1
 155.667 839 122.667 847 74 847 c 1
 74 869 l 1
 398 869 l 1
 398 947 l 1
 483 947 l 1
 483 869 l 1
 517.667 869 551.333 865 584 857 c 0
 614.667 849.667 643.667 837 671 819 c 0
 729.667 781.667 759 727.667 759 657 c 0
 759 556.333 703.333 494.667 592 472 c 1
 652 472 700.667 451.333 738 410 c 0
 778 366.667 798 314.667 798 254 c 0
 798 178.667 767.333 120.667 706 80 c 1
 655.333 49.3333 591.333 34 514 34 c 2
483 817 m 1
 483 497 l 1
 528.333 497 565 511.667 593 541 c 0
 620.333 570.333 634 608.333 634 655 c 0
 634 701.667 619.667 740.333 591 771 c 0
 562.333 801.667 526.333 817 483 817 c 1
398 495 m 1
 398 823 l 1
 350 823 l 2
 332.667 823 324 810.667 324 786 c 2
 324 495 l 1
 398 495 l 1
398 78 m 1
 398 444 l 1
 324 444 l 1
 324 132 l 2
 324 111.333 327.667 97 335 89 c 1
 363 80 l 1
 398 78 l 1
483 438 m 1
 483 80 l 1
 533 80 575 96.6667 609 130 c 0
 641.667 163.333 658 205.667 658 257 c 0
 658 311.667 642.667 355.667 612 389 c 1
 579.333 421.667 536.333 438 483 438 c 1
EndSplineSet
EndChar
StartChar: uni0E40
Encoding: 190 3648
OldEncoding: 3648
Width: 409
Flags: W
Fore
115 696 m 1
 201 696 l 1
 201 233 l 1
 210.333 237.667 224.667 240 244 240 c 0
 282 240 312.667 227.667 336 203 c 1
 356.667 177 367 147 367 113 c 0
 367 78.3333 356 49 334 25 c 0
 311.333 0.333333 280.667 -12 242 -12 c 0
 204.667 -12 175.333 -1.33333 154 20 c 0
 128 44 115 74.3333 115 111 c 2
 115 696 l 1
242 176 m 0
 222 176 207 170 197 158 c 1
 184.333 145.333 178 131 178 115 c 0
 178 97.6667 183.667 82.6667 195 70 c 0
 207 57.3333 222.667 51 242 51 c 0
 263.333 51 279 57.3333 289 70 c 0
 299.667 82.6667 305 97.6667 305 115 c 0
 305 129.667 299.667 144 289 158 c 1
 276.333 170 260.667 176 242 176 c 0
EndSplineSet
EndChar
StartChar: uni0E41
Encoding: 191 3649
OldEncoding: 3649
Width: 739
Flags: W
Fore
115 696 m 1
 201 696 l 1
 201 233 l 1
 210.333 237.667 224.667 240 244 240 c 0
 282 240 312.667 227.667 336 203 c 1
 356.667 177 367 147 367 113 c 0
 367 78.3333 356 49 334 25 c 0
 311.333 0.333333 280.667 -12 242 -12 c 0
 204.667 -12 175.333 -1.33333 154 20 c 0
 128 44 115 74.3333 115 111 c 2
 115 696 l 1
444 696 m 1
 530 696 l 1
 530 233 l 1
 542 237.667 555.667 240 571 240 c 0
 609.667 240 640.667 227.667 664 203 c 1
 685.333 177 696 147 696 113 c 0
 696 80.3333 684.667 51.6667 662 27 c 0
 640 1 609 -12 569 -12 c 0
 533.667 -12 505 -1.33333 483 20 c 0
 457 44.6667 444 75 444 111 c 2
 444 696 l 1
569 176 m 0
 549.667 176 534.667 170 524 158 c 0
 512 143.333 506 129 506 115 c 0
 506 99 511.333 84.6667 522 72 c 0
 534 58 549.667 51 569 51 c 0
 590.333 51 606.667 58 618 72 c 0
 629.333 84.6667 635 99 635 115 c 0
 635 129 628.667 143.333 616 158 c 0
 604 170 588.333 176 569 176 c 0
242 176 m 0
 222 176 207 170 197 158 c 1
 184.333 145.333 178 131 178 115 c 0
 178 97.6667 183.667 82.6667 195 70 c 0
 207 57.3333 222.667 51 242 51 c 0
 263.333 51 279 57.3333 289 70 c 0
 299.667 82.6667 305 97.6667 305 115 c 0
 305 129.667 299.667 144 289 158 c 1
 276.333 170 260.667 176 242 176 c 0
EndSplineSet
EndChar
StartChar: uni0E42
Encoding: 192 3650
OldEncoding: 3650
Width: 440
Flags: W
Fore
170 111 m 2
 170 944 l 2
 170 978.667 166.667 1006 160 1026 c 1
 152 1042 133.333 1059 104 1077 c 0
 76.6667 1094.33 22.3333 1121 -59 1157 c 1
 -41 1178.33 -13.6667 1201.67 23 1227 c 0
 63 1254.33 108 1268 158 1268 c 0
 188 1268 222 1259.67 260 1243 c 0
 297.333 1225.67 325.333 1217 344 1217 c 0
 364.667 1217 388 1225.67 414 1243 c 1
 449 1184 l 1
 415 1158 380.667 1145 346 1145 c 0
 328 1145 296.667 1153.67 252 1171 c 1
 214 1187.67 182.667 1196 158 1196 c 0
 138.667 1196 120.667 1192.67 104 1186 c 0
 93.3333 1181.33 84 1175.67 76 1169 c 1
 190 1108 l 1
 208.667 1096.67 224.667 1078.33 238 1053 c 0
 250 1028.33 256 993.333 256 948 c 2
 256 233 l 1
 265.333 237.667 279.667 240 299 240 c 0
 338.333 240 368.333 227.667 389 203 c 0
 411 179 422 149 422 113 c 0
 422 77 411 47.6667 389 25 c 0
 367 0.333333 336.333 -12 297 -12 c 0
 261 -12 232.333 -1.33333 211 20 c 1
 183.667 42.6667 170 73 170 111 c 2
297 176 m 0
 277 176 262 170 252 158 c 0
 239.333 144 233 129.667 233 115 c 0
 233 98.3333 238.667 83.3333 250 70 c 0
 260 57.3333 275.667 51 297 51 c 0
 318.333 51 334 57.3333 344 70 c 0
 354.667 82.6667 360 97.6667 360 115 c 0
 360 130.333 354 144.667 342 158 c 0
 332 170 317 176 297 176 c 0
EndSplineSet
EndChar
StartChar: uni0E43
Encoding: 193 3651
OldEncoding: 3651
Width: 440
Flags: W
Fore
170 111 m 2
 170 1112 l 2
 170 1178.67 144.667 1212 94 1212 c 0
 67.3333 1212 49 1206 39 1194 c 0
 29.6667 1180.67 23.3333 1169.67 20 1161 c 1
 55.3333 1161 83.3333 1151.67 104 1133 c 0
 123.333 1113.67 133 1090.33 133 1063 c 0
 133 1034.33 123.333 1010.33 104 991 c 0
 86.6667 973.667 64.3333 965 37 965 c 0
 16.3333 965 -3.66667 971 -23 983 c 0
 -40.3333 992.333 -52.3333 1009.33 -59 1034 c 0
 -65 1052 -68 1074 -68 1100 c 0
 -68 1147.33 -54.3333 1188.33 -27 1223 c 0
 0.333333 1255.67 40 1272 92 1272 c 0
 138.667 1272 178.333 1258.33 211 1231 c 1
 241 1203 256 1162.67 256 1110 c 2
 256 233 l 1
 265.333 237.667 279.667 240 299 240 c 0
 338.333 240 368.333 227.667 389 203 c 0
 411 179 422 149 422 113 c 0
 422 77 411 47.6667 389 25 c 0
 367 0.333333 336.333 -12 297 -12 c 0
 261 -12 232.333 -1.33333 211 20 c 1
 183.667 42.6667 170 73 170 111 c 2
35 1112 m 0
 17 1112 5.33333 1107.33 0 1098 c 1
 -9.33333 1088 -14 1076.33 -14 1063 c 0
 -14 1049 -9.33333 1037.33 0 1028 c 1
 5.33333 1018.67 17 1014 35 1014 c 0
 51 1014 63.3333 1018.67 72 1028 c 0
 80 1038 84 1049.67 84 1063 c 0
 84 1075.67 80 1087.33 72 1098 c 0
 63.3333 1107.33 51 1112 35 1112 c 0
297 176 m 0
 277 176 262 170 252 158 c 0
 239.333 144 233 129.667 233 115 c 0
 233 98.3333 238.667 83.3333 250 70 c 0
 260 57.3333 275.667 51 297 51 c 0
 318.333 51 334 57.3333 344 70 c 0
 354.667 82.6667 360 97.6667 360 115 c 0
 360 130.333 354 144.667 342 158 c 0
 332 170 317 176 297 176 c 0
EndSplineSet
EndChar
StartChar: uni0E44
Encoding: 194 3652
OldEncoding: 3652
Width: 512
Flags: W
Fore
244 111 m 2
 244 1174 l 2
 244 1184.67 241.333 1190 236 1190 c 0
 230.667 1190 227 1186.67 225 1180 c 2
 150 918 l 1
 139.333 883.333 122 866 98 866 c 0
 74 866 57 884.667 47 922 c 2
 -20 1174 l 1
 -29.3333 1202.67 -42.3333 1219.67 -59 1225 c 1
 -16 1272 l 1
 10.6667 1262 29 1236.67 39 1196 c 1
 100 961 l 1
 162 1200 l 2
 174 1245.33 202.667 1268 248 1268 c 0
 273.333 1268 293 1260.33 307 1245 c 1
 322.333 1231 330 1209.33 330 1180 c 2
 330 233 l 1
 339.333 237.667 353.667 240 373 240 c 0
 411 240 441.667 227.667 465 203 c 1
 485.667 177 496 147.667 496 115 c 0
 496 79 485 49 463 25 c 0
 440.333 0.333333 409 -12 369 -12 c 0
 333 -12 304.333 -1.33333 283 20 c 0
 257 44 244 74.3333 244 111 c 2
369 176 m 0
 351 176 336 170 324 158 c 0
 311.333 143.333 305 129 305 115 c 0
 305 98.3333 311.333 84 324 72 c 1
 333.333 58 348.333 51 369 51 c 0
 390.333 51 406 57.3333 416 70 c 0
 426.667 82.6667 432 97.6667 432 115 c 0
 432 129.667 426.667 144 416 158 c 1
 402.667 170 387 176 369 176 c 0
EndSplineSet
EndChar
StartChar: uni0E45
Encoding: 195 3653
OldEncoding: 3653
Width: 606
Flags: W
Fore
27 555 m 1
 53.6667 605 84.3333 643.333 119 670 c 0
 154.333 696 202 709 262 709 c 0
 332.667 709 390 691 434 655 c 0
 478 620.333 500 570 500 504 c 2
 500 -362 l 1
 414 -362 l 1
 414 508 l 2
 414 552.667 400.333 586.667 373 610 c 0
 345.667 633.333 308.667 645 262 645 c 0
 221.333 645 186.667 634 158 612 c 0
 127.333 590 104.667 560.667 90 524 c 1
 59 541 l 1
 27 555 l 1
EndSplineSet
EndChar
StartChar: uni0E46
Encoding: 196 3654
OldEncoding: 3654
Width: 815
Flags: W
Fore
551 709 m 1
 585 702.333 615.667 689.333 643 670 c 0
 666.333 652 683.333 628.667 694 600 c 0
 704 575.333 709 543.333 709 504 c 2
 709 -39 l 2
 709 -84.3333 701.333 -124 686 -158 c 0
 671.333 -189.333 648 -214.333 616 -233 c 1
 588.667 -252.333 547.333 -269 492 -283 c 1
 469 -205 l 1
 529 -190.333 570 -171 592 -147 c 0
 612.667 -124.333 623 -85.6667 623 -31 c 2
 623 492 l 2
 623 528.667 618.667 559.333 610 584 c 0
 601.333 605.333 581.667 623 551 637 c 1
 469 586 l 1
 469 586 l 1
 434 604 l 1
 373 637 l 1
 344.333 625.667 322.333 606.667 307 580 c 0
 293.667 554 287 521.667 287 483 c 1
 317 506 l 2
 331 515.333 350.333 520 375 520 c 0
 411 520 439 509 459 487 c 0
 477.667 464.333 487 438.667 487 410 c 0
 487 379.333 477.667 352.667 459 330 c 1
 437.667 306.667 409.667 295 375 295 c 0
 341 295 311.667 304.667 287 324 c 0
 263.667 341.333 245 365.667 231 397 c 1
 219 428.333 213 462.667 213 500 c 0
 213 550.667 228.667 595.667 260 635 c 0
 290.667 673.667 329 698.333 375 709 c 1
 434 678 l 2
 457.333 666 469 659 469 657 c 1
 551 709 l 1
375 465 m 0
 359.667 465 346.667 459.667 336 449 c 0
 324.667 436.333 319 423.333 319 410 c 0
 319 395.333 324 383 334 373 c 1
 344 360.333 357.667 354 375 354 c 0
 393.667 354 408 359.667 418 371 c 0
 427.333 380.333 432 393.333 432 410 c 0
 432 427.333 427.333 441 418 451 c 0
 408.667 460.333 394.333 465 375 465 c 0
EndSplineSet
EndChar
StartChar: uni0E47
Encoding: 197 3655
OldEncoding: 3655
Width: 0
Flags: W
Fore
-203 815 m 0
 -226.333 815 -244.667 819.667 -258 829 c 0
 -282 843.667 -300.333 856.667 -313 868 c 0
 -333 886 -350.333 899 -365 907 c 0
 -380.333 915.667 -394 920 -406 920 c 0
 -436 918 -457 903.667 -469 877 c 0
 -480.333 851.667 -487 829.667 -489 811 c 1
 -515 822.333 -538.333 846.333 -559 883 c 0
 -579.667 917.667 -590 952.333 -590 987 c 0
 -590 1001 -586.667 1018 -580 1038 c 0
 -557.333 1095.33 -501.333 1124 -412 1124 c 1
 -356 1122 l 1
 -324 1118 -294 1116 -266 1116 c 0
 -225.333 1116 -196 1123 -178 1137 c 0
 -159.333 1149.67 -150 1174 -150 1210 c 1
 -82 1210 l 1
 -82 1153.33 -97.6667 1114 -129 1092 c 0
 -161.667 1067.33 -213 1055 -283 1055 c 0
 -311.667 1055 -343.667 1057 -379 1061 c 1
 -429 1061 -464.333 1056.33 -485 1047 c 0
 -509.667 1036.33 -522 1017.67 -522 991 c 0
 -522 972.333 -516 950 -504 924 c 1
 -501.333 931.333 -491 944.333 -473 963 c 0
 -458.333 977.667 -436 985 -406 985 c 0
 -381.333 985 -359.333 979.667 -340 969 c 0
 -318.667 956.333 -304.333 946 -297 938 c 1
 -291 960.667 -280 977.667 -264 989 c 0
 -247.333 1001.67 -227 1008 -203 1008 c 0
 -174.333 1008 -150.333 999 -131 981 c 1
 -114.333 962.333 -106 939.667 -106 913 c 0
 -106 885.667 -114.333 862.667 -131 844 c 1
 -150.333 824.667 -174.333 815 -203 815 c 0
-203 864 m 0
 -187 864 -175.333 869 -168 879 c 0
 -160 889 -156 900.333 -156 913 c 0
 -156 926.333 -160 938 -168 948 c 0
 -176 958 -187.667 963 -203 963 c 0
 -217 963 -228.667 958 -238 948 c 0
 -246 938 -250 926.333 -250 913 c 0
 -250 901.667 -246 891 -238 881 c 0
 -228.667 869.667 -217 864 -203 864 c 0
EndSplineSet
EndChar
StartChar: uni0E48
Encoding: 198 3656
OldEncoding: 3656
Width: 0
Flags: W
Fore
-188 1268 m 1
 -188 1507 l 1
 -111 1507 l 1
 -111 1268 l 1
 -188 1268 l 1
EndSplineSet
EndChar
StartChar: uni0E49
Encoding: 199 3657
OldEncoding: 3657
Width: 0
Flags: W
Fore
-180 1395 m 0
 -180 1360.33 -185.667 1331.67 -197 1309 c 0
 -209 1286.33 -219 1272 -227 1266 c 1
 -168.333 1266 -122 1281 -88 1311 c 0
 -62.6667 1333.67 -47 1359.67 -41 1389 c 0
 -33 1419 -29 1454.33 -29 1495 c 1
 47 1495 l 1
 47 1367 3.33333 1281.67 -84 1239 c 0
 -126.667 1217 -178 1206 -238 1206 c 1
 -303 1210 l 1
 -342 1219 l 1
 -333.333 1223.67 -321.667 1231.67 -307 1243 c 1
 -293 1257 -282.667 1277 -276 1303 c 1
 -279.333 1303 -282.333 1302 -285 1300 c 1
 -303 1298 l 1
 -330 1303 l 1
 -376 1317 -399 1349.67 -399 1401 c 0
 -399 1421.67 -394.333 1438.67 -385 1452 c 1
 -377 1468 -364.667 1481 -348 1491 c 0
 -334 1499 -315.667 1503 -293 1503 c 0
 -255.667 1503 -228.333 1492 -211 1470 c 1
 -190.333 1450 -180 1425 -180 1395 c 0
-293 1450 m 0
 -310.333 1450 -322.667 1445.33 -330 1436 c 0
 -338 1425.33 -342 1413.67 -342 1401 c 0
 -342 1387.67 -338 1376 -330 1366 c 0
 -321.333 1355.33 -309 1350 -293 1350 c 0
 -279 1350 -266.667 1355.33 -256 1366 c 1
 -246.667 1373.33 -242 1385 -242 1401 c 0
 -242 1414.33 -246.667 1426 -256 1436 c 0
 -263.333 1445.33 -275.667 1450 -293 1450 c 0
EndSplineSet
EndChar
StartChar: uni0E4A
Encoding: 200 3658
OldEncoding: 3658
Width: 0
Flags: W
Fore
-381 1225 m 0
 -404.333 1227 -424 1234.33 -440 1247 c 0
 -458 1261 -471 1279.67 -479 1303 c 0
 -487.667 1327 -492 1349.33 -492 1370 c 0
 -489.333 1406.67 -478.333 1436.67 -459 1460 c 0
 -439.667 1483.33 -413.667 1495 -381 1495 c 0
 -367 1495 -354 1493 -342 1489 c 1
 -315 1473 l 1
 -303 1460 l 1
 -299.667 1464.67 -291.667 1472.33 -279 1483 c 1
 -266.333 1491 -250.333 1495 -231 1495 c 0
 -197.667 1495 -174 1483.33 -160 1460 c 0
 -144.667 1437.33 -137 1407.33 -137 1370 c 0
 -137 1342 -145.333 1312.67 -162 1282 c 1
 -146.667 1289.33 -135 1296.33 -127 1303 c 1
 -111 1313 -98.6667 1325.67 -90 1341 c 0
 -74 1368.33 -66 1396.33 -66 1425 c 0
 -66 1441.67 -68 1459.67 -72 1479 c 1
 -12 1499 l 1
 -8 1487 -6 1470 -6 1448 c 0
 -6 1393.33 -19.6667 1346.33 -47 1307 c 0
 -81 1256.33 -149.333 1231 -252 1231 c 1
 -215 1282 l 1
 -202.333 1304.67 -195 1330 -193 1358 c 0
 -193 1382 -196.333 1401.67 -203 1417 c 0
 -209 1432.33 -222.667 1440 -244 1440 c 0
 -257.333 1440 -269 1435 -279 1425 c 0
 -291 1413 -297.667 1405 -299 1401 c 1
 -301 1406.33 -308.667 1414.33 -322 1425 c 0
 -332.667 1435 -349 1440 -371 1440 c 0
 -387 1440 -400.667 1434.33 -412 1423 c 1
 -421.333 1411.67 -426 1396 -426 1376 c 1
 -410 1384 l 1
 -398 1387.33 -388.333 1389 -381 1389 c 0
 -357 1389 -337.333 1381.33 -322 1366 c 0
 -306.667 1349.33 -299 1328.33 -299 1303 c 0
 -299 1283.67 -307.333 1265.67 -324 1249 c 0
 -340 1233 -359 1225 -381 1225 c 0
-381 1352 m 0
 -397.667 1352 -408.667 1347 -414 1337 c 1
 -422 1327 -426 1317 -426 1307 c 0
 -426 1294.33 -422 1284 -414 1276 c 1
 -408.667 1266.67 -397.667 1262 -381 1262 c 0
 -365 1262 -353.333 1266.67 -346 1276 c 0
 -339.333 1282.67 -336 1293 -336 1307 c 0
 -336 1317 -339.333 1327.67 -346 1339 c 1
 -354 1347.67 -365.667 1352 -381 1352 c 0
EndSplineSet
EndChar
StartChar: uni0E4B
Encoding: 201 3659
OldEncoding: 3659
Width: 0
Flags: W
Fore
-188 1331 m 1
 -315 1331 l 1
 -315 1401 l 1
 -188 1401 l 1
 -188 1503 l 1
 -111 1503 l 1
 -111 1401 l 1
 16 1401 l 1
 16 1331 l 1
 -111 1331 l 1
 -111 1231 l 1
 -188 1231 l 1
 -188 1331 l 1
EndSplineSet
EndChar
StartChar: uni0E4C
Encoding: 202 3660
OldEncoding: 3660
Width: 0
Flags: W
Fore
-252 1292 m 1
 -249.333 1299.33 -242.333 1308.33 -231 1319 c 0
 -221 1327.67 -203.333 1333 -178 1335 c 1
 -148.667 1333 -125.667 1323.67 -109 1307 c 0
 -92.3333 1288.33 -84 1266.33 -84 1241 c 0
 -84 1215 -92.3333 1193.33 -109 1176 c 1
 -126.333 1155.33 -149.333 1145 -178 1145 c 0
 -218 1143 -250 1154.67 -274 1180 c 1
 -297.333 1202 -309 1232 -309 1270 c 0
 -309 1300.67 -302.333 1328 -289 1352 c 1
 -271.667 1377.33 -251.667 1395 -229 1405 c 0
 -199 1416.33 -163 1423 -121 1425 c 0
 -79 1427 -45.3333 1432.67 -20 1442 c 0
 0 1448 10 1467 10 1499 c 1
 72 1499 l 1
 72 1471 63.6667 1447 47 1427 c 0
 33.6667 1409.67 16 1397.67 -6 1391 c 1
 -30 1380.33 -65 1374 -111 1372 c 0
 -151 1370 -183.667 1364.67 -209 1356 c 1
 -231.667 1345.33 -246 1324 -252 1292 c 1
-178 1286 m 0
 -206.667 1286 -221 1271.67 -221 1243 c 0
 -221 1233 -217 1223.33 -209 1214 c 1
 -203.667 1204.67 -193.333 1200 -178 1200 c 0
 -167.333 1200 -156.333 1204 -145 1212 c 1
 -137 1222.67 -133 1233 -133 1243 c 0
 -133 1255.67 -137 1266 -145 1274 c 0
 -153.667 1282 -164.667 1286 -178 1286 c 0
EndSplineSet
EndChar
StartChar: uni0E4D
Encoding: 203 3661
OldEncoding: 3661
Width: 0
Flags: W
Fore
-221 782 m 0
 -260.333 782 -291 795 -313 821 c 0
 -336.333 846.333 -348 875.667 -348 909 c 0
 -348 941.667 -336.333 970.333 -313 995 c 1
 -291.667 1021 -261 1034 -221 1034 c 0
 -182.333 1034 -151.667 1021.67 -129 997 c 0
 -107 974.333 -96 945 -96 909 c 0
 -96 873 -107 843 -129 819 c 0
 -152.333 794.333 -183 782 -221 782 c 0
-221 977 m 0
 -243.667 977 -260.667 970 -272 956 c 0
 -284.667 942.667 -291 927 -291 909 c 0
 -291 889.667 -284.667 873.333 -272 860 c 0
 -260.667 846.667 -243.667 840 -221 840 c 0
 -198.333 840 -181.333 846.667 -170 860 c 0
 -158 874 -152 890.333 -152 909 c 0
 -152 921 -154.667 931.333 -160 940 c 0
 -168 953.333 -176 962.333 -184 967 c 0
 -196 973.667 -208.333 977 -221 977 c 0
EndSplineSet
EndChar
StartChar: uni0E4E
Encoding: 204 3662
OldEncoding: 3662
Width: 0
Flags: W
Fore
-41 1103 m 2
 -43 1105 l 2
 -51 1114.33 -61.3333 1124.33 -74 1135 c 0
 -86 1146.33 -104.333 1152 -129 1152 c 2
 -139 1152 l 2
 -155.667 1151.33 -170.667 1144.67 -184 1132 c 0
 -197.333 1120.67 -207.667 1105 -215 1085 c 1
 -219 1062 l 1
 -219 1051.33 -217.333 1041.67 -214 1033 c 2
 -203 1007 l 1
 -199 997 l 1
 -197 986 l 1
 -197 982 -199 978.667 -203 976 c 1
 -215 972 l 1
 -223.667 972 -229 975.333 -231 982 c 1
 -245.667 1004.67 -259 1018 -271 1022 c 0
 -283 1026.67 -300 1029 -322 1029 c 0
 -338 1029 -354.333 1023 -371 1011 c 0
 -387 999 -397 984 -401 966 c 1
 -403 943 l 1
 -403 923.667 -398.667 907.333 -390 894 c 0
 -380 880 -366.667 872 -350 870 c 2
 -342 870 l 2
 -328 870 -314.333 873.333 -301 880 c 0
 -287 886.667 -277.333 894.333 -272 903 c 1
 -281 864 l 1
 -301 839.333 -330.333 827 -369 827 c 1
 -401 831 l 1
 -429 839 -450 854.333 -464 877 c 0
 -478 899 -485 923.333 -485 950 c 0
 -485 975.333 -480.333 997 -471 1015 c 0
 -457 1042.33 -438.333 1063.33 -415 1078 c 0
 -391 1092 -366 1099 -340 1099 c 0
 -313.333 1099 -288.667 1091.67 -266 1077 c 1
 -268 1101 l 1
 -268 1112.33 -267 1123.33 -265 1134 c 0
 -263 1146 -258.667 1157 -252 1167 c 0
 -244.667 1180.33 -231.333 1192 -212 1202 c 0
 -194 1210 -177.333 1214 -162 1214 c 0
 -135.333 1214 -111 1208.67 -89 1198 c 0
 -65 1187.33 -47 1172 -35 1152 c 1
 -23 1129 l 2
 -18.3333 1120.33 -16 1112.33 -16 1105 c 0
 -16 1098.33 -19 1095 -25 1095 c 0
 -31.6667 1095 -37 1097.67 -41 1103 c 2
EndSplineSet
EndChar
StartChar: uni0E4F
Encoding: 205 3663
OldEncoding: 3663
Width: 696
Flags: W
Fore
348 0 m 0
 240.667 0 156 34.6667 94 104 c 0
 32.6667 174.667 2 256 2 348 c 0
 2 443.333 32 525.333 92 594 c 0
 152 662 237.333 696 348 696 c 0
 422 696 485.667 679.667 539 647 c 1
 592.333 612.333 631.667 569.333 657 518 c 0
 683 465.333 696 408.667 696 348 c 0
 696 286 683 229.333 657 178 c 0
 631.667 126.667 592.333 83.6667 539 49 c 1
 485.667 16.3333 422 -1.73472e-18 348 0 c 0
348 627 m 0
 261.333 627 193 599.667 143 545 c 0
 94.3333 489.667 70 424 70 348 c 0
 70 301.333 80 256.333 100 213 c 0
 120.667 170.333 153 135.667 197 109 c 1
 238.333 81.6667 288.667 68 348 68 c 0
 407.333 68 458.667 81.6667 502 109 c 0
 542.667 133.667 574.667 167.667 598 211 c 1
 618.667 255.667 629 301.333 629 348 c 0
 629 393.333 618.667 438.333 598 483 c 1
 574 527.667 542 562.667 502 588 c 0
 459.333 614 408 627 348 627 c 0
348 152 m 0
 308.667 152 273.333 161.333 242 180 c 0
 211.333 200 189.333 224.667 176 254 c 0
 161.333 284.667 154 316 154 348 c 0
 154 379.333 161.333 410.667 176 442 c 0
 188.667 470.667 210.667 494.667 242 514 c 0
 274 533.333 309.333 543 348 543 c 0
 388 543 423.667 533.333 455 514 c 0
 485 496 506.667 472 520 442 c 0
 535.333 411.333 543 380 543 348 c 0
 543 296 526 250.333 492 211 c 0
 456.667 171.667 408.667 152 348 152 c 0
EndSplineSet
EndChar
StartChar: uni0E50
Encoding: 206 3664
OldEncoding: 3664
Width: 724
Flags: W
Fore
362 -8 m 0
 269.333 -8 197 18 145 70 c 0
 93.6667 121.333 68 180.667 68 248 c 0
 68 291.333 79.3333 333 102 373 c 0
 125.333 412.333 159 444.333 203 469 c 1
 248.333 492.333 301.333 504 362 504 c 0
 423.333 504 476.667 492.333 522 469 c 0
 568 443.667 602.333 411.667 625 373 c 0
 646.333 335 657 293.333 657 248 c 0
 657 204.667 645.667 163 623 123 c 0
 599.667 83.6667 566 52.3333 522 29 c 0
 476 4.33333 422.667 -8 362 -8 c 0
362 424 m 0
 296.667 424 247 407 213 373 c 0
 177.667 337.667 160 296 160 248 c 0
 160 201.333 177.667 160.333 213 125 c 0
 248.333 89.6667 298 72 362 72 c 0
 426.667 72 476.667 89.6667 512 125 c 0
 547.333 160.333 565 201.333 565 248 c 0
 565 296 547.333 337.667 512 373 c 0
 478 407 428 424 362 424 c 0
EndSplineSet
EndChar
StartChar: uni0E51
Encoding: 207 3665
OldEncoding: 3665
Width: 724
Flags: W
Fore
158 256 m 0
 158 215.333 171 180.667 197 152 c 0
 223 121.333 254.333 106 291 106 c 0
 314.333 106 338 113 362 127 c 1
 343.333 127 319 133 289 145 c 1
 258.333 159.667 242 186.333 240 225 c 0
 240 263 252 293 276 315 c 0
 299.333 338.333 328 350 362 350 c 0
 406.667 350 440.333 337.667 463 313 c 0
 485 289 496 257 496 217 c 0
 496 181.667 487 149.667 469 121 c 0
 453 93.6667 429.667 71.6667 399 55 c 0
 369 39 335.667 31 299 31 c 0
 234.333 31 182.333 50.6667 143 90 c 0
 101.667 131.333 80 186.667 78 256 c 0
 76 302.667 89.6667 347 119 389 c 1
 146.333 432.333 180.333 464.333 221 485 c 0
 264.333 508.333 311.333 520 362 520 c 0
 457.333 518 533.333 490.667 590 438 c 0
 646 384 674 313 674 225 c 0
 674 165 661.667 114.667 637 74 c 0
 610.333 31.3333 572.667 -10.3333 524 -51 c 1
 473 -8 l 1
 553.667 59.3333 594 137 594 225 c 0
 594 287.667 574.333 340.333 535 383 c 1
 494.333 423.667 436.667 444 362 444 c 0
 304.667 444 256.333 426.333 217 391 c 0
 179.667 355.667 160 310.667 158 256 c 0
362 295 m 0
 346 295 332.667 289.667 322 279 c 0
 312 269 307 256 307 240 c 0
 307 224.667 312 212.333 322 203 c 1
 332 190.333 345.333 184 362 184 c 0
 379.333 184 393 190.333 403 203 c 1
 413 212.333 418 224.667 418 240 c 0
 418 256 413 269 403 279 c 0
 392.333 289.667 378.667 295 362 295 c 0
EndSplineSet
EndChar
StartChar: uni0E52
Encoding: 208 3666
OldEncoding: 3666
Width: 888
Flags: W
Fore
248 291 m 0
 248 333.667 256 371 272 403 c 0
 289.333 436.333 311.333 461 338 477 c 0
 365.333 495 395.333 504 428 504 c 0
 463.333 504 491.333 496.333 512 481 c 0
 534 464.333 547 452 551 444 c 1
 553 456.667 563.333 469.667 582 483 c 1
 598 499.667 626 508 666 508 c 0
 712 508 746 493 768 463 c 0
 791.333 431.667 803 399.667 803 367 c 2
 803 162 l 2
 803 106 790 65 764 39 c 0
 738 13 691 0 623 0 c 2
 338 0 l 2
 252 0 192 17 158 51 c 0
 123.333 85.6667 106 141 106 217 c 2
 106 563 l 2
 106 593 102.667 619 96 641 c 0
 90 661.667 76.3333 676 55 684 c 1
 127 743 l 1
 171 716.333 193 670.667 193 606 c 2
 193 213 l 2
 193 167.667 203.667 134.333 225 113 c 0
 246.333 89.6667 282.667 78 334 78 c 2
 623 78 l 2
 659.667 78 684.667 84.6667 698 98 c 0
 710.667 110.667 717 132 717 162 c 2
 717 342 l 2
 717 402 695.667 432 653 432 c 0
 623.667 432 601.333 421 586 399 c 1
 572 383 560.333 364 551 342 c 1
 549 348 542.667 358.333 532 373 c 0
 524 383 509.667 396 489 412 c 0
 471.667 425.333 452.667 432 432 432 c 0
 408.667 432 389 426 373 414 c 1
 355 398 343.333 382.333 338 367 c 1
 340 370.333 345.333 374.333 354 379 c 0
 362 383 373.667 385 389 385 c 0
 413 385 435 379.667 455 369 c 0
 470.333 359.667 484 345.333 496 326 c 1
 504 307.333 508 287.333 508 266 c 0
 508 231.333 497.667 202.667 477 180 c 0
 455.667 156.667 426.333 145 389 145 c 0
 349.667 145 316.333 158.667 289 186 c 0
 261.667 213.333 248 248.333 248 291 c 0
389 324 m 0
 371.667 324 357.333 318.333 346 307 c 0
 335.333 296.333 330 282 330 264 c 0
 330 250.667 335.333 237 346 223 c 0
 356 211 370.333 205 389 205 c 0
 407.667 205 422 211 432 223 c 0
 443.333 234.333 449 248 449 264 c 0
 449 280.667 444 295 434 307 c 0
 422.667 318.333 407.667 324 389 324 c 0
EndSplineSet
EndChar
StartChar: uni0E53
Encoding: 209 3667
OldEncoding: 3667
Width: 854
Flags: W
Fore
287 444 m 0
 239.667 444 207.333 424.333 190 385 c 0
 174 344.333 166 293 166 231 c 1
 190 244 l 2
 201.333 249.333 218 252 240 252 c 0
 278.667 252 309.333 239.667 332 215 c 1
 352 190.333 362 161 362 127 c 0
 362 90.3333 350 59 326 33 c 0
 302.667 5.66667 269 -8 225 -8 c 0
 174.333 -10 137.667 13 115 61 c 1
 90.3333 108.333 78 179.333 78 274 c 0
 78 318 86 358.333 102 395 c 0
 120 433.667 144 463.667 174 485 c 0
 205.333 508.333 241.667 520 283 520 c 0
 335 520 373.667 507 399 481 c 0
 424.333 456.333 441 434 449 414 c 1
 449 423.333 461 443.667 485 475 c 0
 507 505 540.667 520 586 520 c 0
 651.333 520 699.667 494 731 442 c 0
 763 387.333 778 318.667 776 236 c 0
 774 136.667 757.667 58 727 0 c 1
 633 0 l 1
 650.333 20 664 52.6667 674 98 c 0
 684.667 148 690 198 690 248 c 0
 690 306.667 682 353.667 666 389 c 0
 649.333 425.667 622.667 444 586 444 c 0
 528.667 444 500 398.333 500 307 c 2
 500 0 l 1
 410 0 l 1
 410 307 l 2
 410 344.333 399.667 376.333 379 403 c 1
 355.667 430.333 325 444 287 444 c 0
236 188 m 0
 217.333 188 203 182 193 170 c 1
 181.667 160 176 146.333 176 129 c 0
 176 113 181.667 98.6667 193 86 c 0
 205 74 219.333 68 236 68 c 0
 254.667 68 269.667 74 281 86 c 0
 290.333 95.3333 295 109.667 295 129 c 0
 295 145 290.333 158.667 281 170 c 0
 269.667 182 254.667 188 236 188 c 0
EndSplineSet
EndChar
StartChar: uni0E54
Encoding: 210 3668
OldEncoding: 3668
Width: 854
Flags: W
Fore
469 90 m 1
 461 90 431.667 104.333 381 133 c 1
 326.333 161.667 299 201.333 299 252 c 0
 299 284 312 312 338 336 c 0
 363.333 359.333 394.667 371 432 371 c 0
 470.667 371 500.667 359.333 522 336 c 0
 544 312 555 284 555 252 c 0
 555 222 547.333 199.333 532 184 c 0
 519.333 171.333 507.333 162.667 496 158 c 1
 526 134.667 556 121 586 117 c 2
 678 104 l 2
 707.333 100 742 86.3333 782 63 c 1
 748 -8 l 1
 719.333 15.3333 669.333 27 598 27 c 0
 566 27 527.667 22 483 12 c 1
 435.667 4 388.667 0 342 0 c 0
 296 0 253 9.66667 213 29 c 0
 171.667 47 139 75.6667 115 115 c 0
 90.3333 153.667 78 202 78 260 c 0
 78 306 91.6667 347.667 119 385 c 0
 145.667 423 181.667 451.667 227 471 c 1
 271.667 493 325.667 504 389 504 c 1
 453 500 l 1
 498.333 494.667 533 492 557 492 c 0
 610.333 492 652 500.667 682 518 c 0
 712.667 536.667 735.333 567.333 750 610 c 0
 764 652.667 774 714.333 780 795 c 1
 870 782 l 1
 870 739.333 861.333 685.667 844 621 c 0
 824.667 551.667 792.667 499.667 748 465 c 1
 704.667 433.667 652.667 418 592 418 c 0
 574.667 418 548.667 420 514 424 c 1
 418 428 l 2
 352.667 430 293.333 415.667 240 385 c 0
 190.667 356.333 166 310.667 166 248 c 0
 166 137.333 234.333 82 371 82 c 0
 409 82 441.667 84.6667 469 90 c 1
432 307 m 0
 414 307 399.667 301.667 389 291 c 0
 379.667 281.667 375 268.667 375 252 c 0
 375 237.333 379.667 224.333 389 213 c 0
 399.667 202.333 414 197 432 197 c 0
 448.667 197 462.333 202.333 473 213 c 0
 482.333 222.333 487 235.333 487 252 c 0
 487 270 482.333 283.667 473 293 c 0
 463.667 302.333 450 307 432 307 c 0
EndSplineSet
EndChar
StartChar: uni0E55
Encoding: 211 3669
OldEncoding: 3669
Width: 854
Flags: W
Fore
559 571 m 0
 559 549 557 532 553 520 c 1
 539 494 l 1
 590.333 494 633.333 501.333 668 516 c 0
 700.667 530.667 726.333 560 745 604 c 0
 764.333 650 776 713.667 780 795 c 1
 870 782 l 1
 870 739.333 861.333 685.667 844 621 c 0
 824.667 551.667 792.667 499.667 748 465 c 0
 705.333 432.333 652.667 416 590 416 c 1
 518 422 l 1
 418 426 l 1
 376 426 334.333 420.667 293 410 c 1
 252.333 396.667 221.667 377.333 201 352 c 0
 177.667 325.333 166 290.667 166 248 c 0
 166 137.333 234.333 82 371 82 c 0
 409 82 441.667 84.6667 469 90 c 1
 461 90 431.667 104.333 381 133 c 1
 326.333 161.667 299 201.333 299 252 c 0
 299 284 312 312 338 336 c 0
 363.333 359.333 394.667 371 432 371 c 0
 470.667 371 500.667 359.333 522 336 c 0
 544 312 555 284 555 252 c 0
 555 222 547.333 199.333 532 184 c 0
 519.333 171.333 507.333 162.667 496 158 c 1
 526 134.667 556 121 586 117 c 2
 678 104 l 2
 707.333 100 742 86.3333 782 63 c 1
 748 -8 l 1
 719.333 15.3333 669.333 27 598 27 c 0
 566 27 527.667 22 483 12 c 1
 435.667 4 388.667 0 342 0 c 0
 296 0 253 9.66667 213 29 c 0
 171.667 47 139 75.6667 115 115 c 0
 90.3333 153.667 78 202 78 260 c 0
 78 309.333 91.6667 351.667 119 387 c 0
 145.667 423 177.667 449.667 215 467 c 0
 254.333 485 292.667 496 330 500 c 1
 317 528 l 1
 313 542.667 311 557 311 571 c 0
 311 605 322.667 633.667 346 657 c 0
 370 679 400 690 436 690 c 0
 476 688 506 676.333 526 655 c 1
 548 633.667 559 605.667 559 571 c 0
434 621 m 0
 418 621 404.333 615.333 393 604 c 0
 383.667 594.667 379 581.667 379 565 c 0
 379 551 383.667 538 393 526 c 1
 403.667 515.333 417.333 510 434 510 c 0
 446 510 456.333 512.667 465 518 c 1
 483 539 l 1
 487 547 489 555.667 489 565 c 0
 489 583 484.333 596.667 475 606 c 0
 465 616 451.333 621 434 621 c 0
432 307 m 0
 414 307 399.667 301.667 389 291 c 0
 379.667 281.667 375 268.667 375 252 c 0
 375 237.333 379.667 224.333 389 213 c 0
 399.667 202.333 414 197 432 197 c 0
 448.667 197 462.333 202.333 473 213 c 0
 482.333 222.333 487 235.333 487 252 c 0
 487 270 482.333 283.667 473 293 c 0
 463.667 302.333 450 307 432 307 c 0
EndSplineSet
EndChar
StartChar: uni0E56
Encoding: 212 3670
OldEncoding: 3670
Width: 653
Flags: W
Fore
324 78 m 1
 364 78 398 86.6667 426 104 c 0
 455.333 121.333 477.333 144 492 172 c 0
 505.333 199.333 512 231.333 512 268 c 0
 512 304 503.667 334.667 487 360 c 1
 473 386.667 450 407.333 418 422 c 0
 385.333 436.667 348.333 444 307 444 c 1
 273 438 240.333 428 209 414 c 1
 141 375 l 1
 139 403.667 135 434.333 129 467 c 0
 125 488.333 116 522.333 102 569 c 0
 91.3333 606.333 79.3333 640.667 66 672 c 1
 43.3333 717.333 30.3333 742.667 27 748 c 1
 94 782 l 1
 110 762.667 129.333 719.667 152 653 c 0
 170.667 597 187 544.667 201 496 c 1
 263.667 518.667 316 530 358 530 c 0
 408 530 451.667 518.667 489 496 c 0
 526.333 472.667 554.333 441 573 401 c 0
 592.333 361 602 316.667 602 268 c 0
 602 202.667 587.667 149.667 559 109 c 0
 531 67.6667 495 37.3333 451 18 c 0
 409.667 0.666667 364.333 -8 315 -8 c 0
 285 -8 253.667 -0.666667 221 14 c 0
 191 28.6667 165 50 143 78 c 0
 121.667 103.333 111 134 111 170 c 0
 111 204.667 123 233.333 147 256 c 0
 172.333 279.333 202 291 236 291 c 0
 275.333 291 306.667 279.333 330 256 c 1
 351.333 232 362 202 362 166 c 0
 362 140 357.333 120 348 106 c 0
 341.333 96.6667 333.333 87.3333 324 78 c 1
236 223 m 0
 220.667 223 207.667 217.667 197 207 c 0
 185.667 194.333 180 181.333 180 168 c 0
 180 151.333 185 138.333 195 129 c 1
 205 117 218.667 111 236 111 c 0
 252.667 111 266 117 276 129 c 1
 286 138.333 291 151.333 291 168 c 0
 291 183.333 286 196.333 276 207 c 0
 265.333 217.667 252 223 236 223 c 0
EndSplineSet
EndChar
StartChar: uni0E57
Encoding: 213 3671
OldEncoding: 3671
Width: 897
Flags: W
Fore
598 86 m 1
 639.333 94 671.333 112.333 694 141 c 1
 716.667 167 731 200.667 737 242 c 0
 744.333 290 748 335.667 748 379 c 2
 748 442 l 1
 746 460 745 484.667 745 516 c 0
 745 570 749.333 617.667 758 659 c 1
 764 697.667 779 730 803 756 c 1
 870 713 l 1
 836 677.667 819 610 819 510 c 1
 821 451 l 1
 821 379 l 2
 821 314.333 815.667 257 805 207 c 0
 793 158.333 769.667 116.667 735 82 c 0
 713 59.3333 683 39.6667 645 23 c 0
 609 6.33333 579 -4 555 -8 c 1
 500 51 l 1
 521.333 77 541 116.667 559 170 c 0
 575.667 223.333 584 269.667 584 309 c 0
 584 379 560 414 512 414 c 0
 485.333 414 465 401 451 375 c 0
 435.667 347.667 428 321 428 295 c 1
 358 295 l 1
 358 320.333 350.667 347 336 375 c 1
 318.667 401 296 414 268 414 c 0
 234.667 414 208 398.333 188 367 c 1
 170.667 335 162 296.667 162 252 c 0
 162 222.667 165.333 198.667 172 180 c 1
 176 188.667 185.667 199 201 211 c 0
 215 223 236 229 264 229 c 0
 302 229 330.667 218.333 350 197 c 0
 369.333 173.667 379 146.333 379 115 c 0
 379 79 368 50.3333 346 29 c 1
 324 4.33333 292.667 -8 252 -8 c 0
 200 -8 158.333 20 127 76 c 1
 94.3333 130.667 78 192 78 260 c 0
 78 322 96.3333 375.333 133 420 c 0
 167.667 464.667 212.667 487 268 487 c 0
 309.333 487 338.667 478.333 356 461 c 0
 374.667 442.333 387 428 393 418 c 1
 397 427.333 408 441.667 426 461 c 0
 443.333 478.333 472 487 512 487 c 0
 568.667 487 608.333 468 631 430 c 0
 656.333 385.333 668 337.667 666 287 c 0
 666 244.333 657 203.333 639 164 c 0
 623.667 129.333 610 103.333 598 86 c 1
262 168 m 0
 245.333 168 231.667 162.667 221 152 c 1
 211.667 140 207 127 207 113 c 0
 207 96.3333 211.667 83.3333 221 74 c 1
 231 61.3333 244.667 55 262 55 c 0
 280.667 55 295 60.6667 305 72 c 0
 314.333 81.3333 319 95 319 113 c 0
 319 129 314.333 142 305 152 c 0
 294.333 162.667 280 168 262 168 c 0
EndSplineSet
EndChar
StartChar: uni0E58
Encoding: 214 3672
OldEncoding: 3672
Width: 854
Flags: W
Fore
422 162 m 0
 466.667 117.333 498 88.6667 516 76 c 0
 535.333 62 556 55 578 55 c 0
 604 55 626.333 62.6667 645 78 c 0
 663.667 92 674 113 676 141 c 1
 674 135.667 666.333 127.667 653 117 c 0
 642.333 107 625.333 102 602 102 c 0
 572 102 544 112.333 518 133 c 1
 494.667 155 483 183 483 217 c 0
 483 251 494.667 279.667 518 303 c 0
 541.333 326.333 569.333 338 602 338 c 0
 631.333 338 657.333 329.667 680 313 c 1
 703.333 298.333 721 276.667 733 248 c 0
 745.667 217.333 752 187.333 752 158 c 0
 752 104.667 737 63 707 33 c 0
 677 3 635.333 -12 582 -12 c 0
 544.667 -12 509 -2.66667 475 16 c 0
 441 36 400.667 73 354 127 c 0
 337.333 147.667 323 158 311 158 c 0
 293.667 158 285 139.333 285 102 c 0
 285 60.6667 295 26.6667 315 0 c 1
 213 0 l 1
 177 36 145 75 117 117 c 1
 91 152.333 78 201.333 78 264 c 1
 88 338 118.667 394.667 170 434 c 0
 220.667 472.667 285.667 492 365 492 c 0
 385.667 492 409.333 490.333 436 487 c 2
 504 477 l 2
 522 475 539 473 555 471 c 1
 606 469 l 2
 638.667 469 664.667 474.333 684 485 c 1
 704 499.667 715 520.333 717 547 c 1
 721 614 l 1
 721 680 715.667 727.333 705 756 c 1
 791 756 l 1
 796.333 742.667 799 674.333 799 551 c 0
 799 494.333 782.667 453.333 750 428 c 1
 717.333 404.667 672.667 393 616 393 c 0
 572.667 393 523.667 398.667 469 410 c 1
 434.333 415.333 406.333 418 385 418 c 0
 333.667 418 288 407.667 248 387 c 0
 206.667 365.667 179.333 335 166 295 c 0
 162 281 160 266.667 160 252 c 0
 160 225.333 166 196.667 178 166 c 0
 186.667 139.333 199.667 118 217 102 c 1
 217 184.667 236 231.333 274 242 c 1
 306 242 334 234.333 358 219 c 0
 373.333 209.667 394.667 190.667 422 162 c 0
606 274 m 0
 588.667 274 575 268 565 256 c 0
 555.667 246.667 551 234.333 551 219 c 0
 551 203 555.667 189.333 565 178 c 0
 575.667 167.333 589.333 162 606 162 c 0
 622.667 162 636.333 167.333 647 178 c 0
 657 190 662 203 662 217 c 0
 662 233 657 246 647 256 c 0
 637 268 623.333 274 606 274 c 0
EndSplineSet
EndChar
StartChar: uni0E59
Encoding: 215 3673
OldEncoding: 3673
Width: 776
Flags: W
Fore
315 -12 m 0
 269 -12 220.667 5 170 39 c 0
 120.667 72.3333 90 116 78 170 c 0
 71.3333 204.667 68 231.333 68 250 c 0
 68 303.333 80.6667 349 106 387 c 0
 133.333 426.333 172.333 455 223 473 c 0
 248.333 482.333 274.333 487 301 487 c 0
 342.333 487 375.667 478.333 401 461 c 0
 427 443 445.667 428.667 457 418 c 1
 459 471.333 478.667 498 516 498 c 0
 538.667 498 561.333 490.333 584 475 c 0
 601.333 461.667 616.333 455 629 455 c 0
 651 455 662 480.667 662 532 c 0
 662 584 655.667 634.667 643 684 c 0
 631 732 622.667 756 618 756 c 2
 705 756 l 1
 710.333 744.667 717 723.333 725 692 c 1
 734.333 645.333 739 608.667 739 582 c 0
 741 522.667 735.667 471.333 723 428 c 0
 711 392.667 686.333 375 649 375 c 0
 633.667 375 613.333 382.333 588 397 c 0
 564.667 411 548.333 418 539 418 c 0
 527.667 416 522 405 522 385 c 0
 522 358.333 527.667 336.333 539 319 c 1
 700 27 l 1
 618 -8 l 1
 444 319 l 1
 429.333 347.667 409 369.667 383 385 c 0
 353.667 400.333 325 408 297 408 c 0
 255.667 408 221 392.667 193 362 c 0
 162.333 328 147 287.333 147 240 c 0
 147 213.333 153.333 187.333 166 162 c 0
 177.333 137.333 193 118.667 213 106 c 1
 210.333 106 209 120.667 209 150 c 1
 213.667 179.333 226.667 202.333 248 219 c 1
 266 238.333 293.333 248 330 248 c 0
 364 248 392.667 238.333 416 219 c 0
 440.667 199 453 173 453 141 c 0
 455 95 442.667 57.6667 416 29 c 0
 390.667 1.66667 357 -12 315 -12 c 0
330 180 m 0
 312 180 297.667 174.667 287 164 c 0
 277 154.667 272 141.667 272 125 c 0
 272 112.333 277.667 99.3333 289 86 c 0
 299.667 75.3333 313.333 70 330 70 c 0
 345.333 70 359 75.3333 371 86 c 0
 380.333 95.3333 385 108.333 385 125 c 0
 385 143 380.333 156.667 371 166 c 0
 361 175.333 347.333 180 330 180 c 0
EndSplineSet
EndChar
StartChar: uni0E5A
Encoding: 216 3674
OldEncoding: 3674
Width: 997
Flags: W
Fore
536 240 m 2
 536 201.333 527.333 163 510 125 c 0
 494 86.3333 469.333 57.6667 436 39 c 1
 338 39 l 1
 381 81 l 2
 394.333 95 406 109.333 416 124 c 0
 424 138 430 156.667 434 180 c 0
 437.333 203.333 439 223.333 439 240 c 2
 439 625 l 2
 439 640.333 433 648 421 648 c 0
 415 648 408.667 642 402 630 c 2
 374 579 l 1
 350 537.667 332.333 512.667 321 504 c 0
 311.667 495.333 300 487.333 286 480 c 0
 274.667 474.667 258.667 472 238 472 c 0
 192.667 472 156.667 487.333 130 518 c 0
 102.667 549.333 89 584.667 89 624 c 0
 89 663.333 99.3333 694 120 716 c 0
 140.667 738 166.667 749 198 749 c 0
 226.667 749 247.667 737.333 261 714 c 0
 274.333 691.333 281 667 281 641 c 0
 281 616.333 274.333 594 261 574 c 0
 245 550.667 224.667 539 200 539 c 1
 185 541 l 1
 192.333 534.333 201.333 529.667 212 527 c 0
 220.667 524.333 231.333 523 244 523 c 0
 260.667 523 274 529.333 284 542 c 0
 292.667 552 300.333 562.667 307 574 c 2
 324 606 l 1
 345 647 l 1
 364 686 l 1
 371.333 697.333 377 705.333 381 710 c 0
 391 723.333 402 733 414 739 c 0
 424.667 745.667 441.333 749 464 749 c 0
 481.333 749 497.333 743.333 512 732 c 0
 528 720 536 698.667 536 668 c 1
 549.333 693.333 567.333 713 590 727 c 0
 613.333 741.667 637.333 749 662 749 c 0
 693.333 749 720 739 742 719 c 0
 764 698.333 775 668.333 775 629 c 2
 775 240 l 2
 775 222.667 773.333 203.333 770 182 c 0
 766.667 163.333 761.667 144 755 124 c 1
 739.667 88 716.333 59.6667 685 39 c 1
 578 39 l 1
 623 82 l 2
 637 96 647.667 110 655 124 c 0
 663 138.667 668.667 157.333 672 180 c 0
 677.333 204.667 680 224.667 680 240 c 2
 680 592 l 1
 678 610.667 673.667 625.667 667 637 c 0
 660.333 649 647 655 627 655 c 0
 601 655 579 646 561 628 c 0
 544.333 611.333 536 591.667 536 569 c 2
 536 240 l 2
244 641 m 0
 244 661 239.667 676.333 231 687 c 0
 221.667 697.667 211.333 703 200 703 c 0
 183.333 703 171.667 697.333 165 686 c 0
 157.667 674 154 659 154 641 c 0
 154 620.333 158 604 166 592 c 1
 175.333 581.333 186.667 576 200 576 c 0
 229.333 576 244 597.667 244 641 c 0
EndSplineSet
EndChar
